<?xml version="1.0" encoding="UTF-8" standalone="no"?>
<!-- Created with Inkscape (http://www.inkscape.org/) -->

<svg
   xmlns:dc="http://purl.org/dc/elements/1.1/"
   xmlns:cc="http://creativecommons.org/ns#"
   xmlns:rdf="http://www.w3.org/1999/02/22-rdf-syntax-ns#"
   xmlns:svg="http://www.w3.org/2000/svg"
   xmlns="http://www.w3.org/2000/svg"
   xmlns:sodipodi="http://sodipodi.sourceforge.net/DTD/sodipodi-0.dtd"
   xmlns:inkscape="http://www.inkscape.org/namespaces/inkscape"
   width="210mm"
   height="297mm"
   viewBox="0 0 210 297"
   version="1.1"
   id="svg8"
   inkscape:version="0.92.3 (2405546, 2018-03-11)"
   sodipodi:docname="drawing.svg">
  <defs
     id="defs2" />
  <sodipodi:namedview
     id="base"
     pagecolor="#ffffff"
     bordercolor="#666666"
     borderopacity="1.0"
     inkscape:pageopacity="0.0"
     inkscape:pageshadow="2"
     inkscape:zoom="2.8"
     inkscape:cx="597.71325"
     inkscape:cy="177.59892"
     inkscape:document-units="mm"
     inkscape:current-layer="layer1"
     showgrid="false"
     inkscape:window-width="1366"
     inkscape:window-height="705"
     inkscape:window-x="-8"
     inkscape:window-y="-8"
     inkscape:window-maximized="1" />
  <metadata
     id="metadata5">
    <rdf:RDF>
      <cc:Work
         rdf:about="">
        <dc:format>image/svg+xml</dc:format>
        <dc:type
           rdf:resource="http://purl.org/dc/dcmitype/StillImage" />
        <dc:title></dc:title>
      </cc:Work>
    </rdf:RDF>
  </metadata>
  <g
     inkscape:label="Layer 1"
     inkscape:groupmode="layer"
     id="layer1">
    <path
       style="fill:#000000;stroke-width:0.3527835"
       d="m 114.74825,264.4277 c -0.11145,-0.34504 -0.42499,-0.54233 -0.71746,-0.45148 -0.88517,0.27495 -1.36385,-1.00857 -1.36385,-3.65701 0,-2.67102 -0.37535,-3.29258 -1.49516,-2.47587 -1.0357,0.75536 -2.60512,0.96342 -3.163,0.41932 -0.39611,-0.38633 -0.23264,-0.73595 0.91138,-1.94907 0.76674,-0.81306 1.39406,-1.61856 1.39406,-1.78999 0,-0.17143 0.52034,-0.83892 1.15631,-1.48331 0.82783,-0.83879 1.27255,-1.75768 1.56552,-3.23468 0.61707,-3.11109 0.51034,-4.74423 -0.5764,-8.81915 -2.07321,-7.77386 -2.07672,-7.64513 0.2317,-8.48771 1.17247,-0.42797 2.0414,-0.50727 3.76314,-0.34348 1.23125,0.11708 2.45059,0.35535 2.70963,0.52936 0.86954,0.58413 1.73732,4.3243 1.73732,7.48785 0,1.69996 -0.28505,4.78541 -0.63344,6.85654 -0.57961,3.44556 -0.58056,3.91929 -0.0119,5.57226 0.8551,2.48257 1.48134,7.31683 1.09744,8.47181 -0.2328,0.7004 -0.55263,0.95422 -1.20957,0.95989 -0.57566,0.005 -1.09909,0.32594 -1.47266,0.90305 -0.39813,0.61507 -0.8021,0.84826 -1.29043,0.74489 -0.47634,-0.10076 -0.85107,0.0986 -1.13587,0.60457 -0.51348,0.91222 -1.2268,0.97996 -1.49745,0.14221 z m 0.93138,-1.35106 c -0.12523,-0.25319 -0.21808,-0.17799 -0.2369,0.19177 -0.0171,0.33458 0.0757,0.52204 0.20595,0.41657 0.13027,-0.10545 0.14421,-0.37922 0.031,-0.60834 z m -0.64717,-4.38399 c 0.37037,0 1.25273,-0.0938 1.96079,-0.20842 l 1.28739,-0.20841 -0.23939,2.35082 c -0.17923,1.76015 -0.13827,2.15144 0.1627,1.55733 0.22115,-0.43641 0.40852,-1.57903 0.41637,-2.53914 0.0119,-1.4705 0.16906,-1.84804 0.99604,-2.39511 0.96056,-0.63542 0.97135,-0.69022 0.49986,-2.53914 -0.26504,-1.03935 -0.82483,-2.43621 -1.24397,-3.10413 -0.48712,-0.77627 -0.63239,-1.34883 -0.40265,-1.58697 0.38189,-0.39584 1.04482,-3.70494 1.4669,-7.32228 0.22793,-1.95338 -0.12301,-5.07847 -0.94817,-8.44388 -0.26246,-1.07043 -0.35007,-1.1186 -2.40572,-1.32304 -2.71756,-0.27027 -4.70064,0.31483 -4.69833,1.3862 0.003,1.21596 1.12988,6.34098 1.75994,8.00148 0.69298,1.82629 0.77444,6.12999 0.15995,8.44924 -0.24794,0.93578 -0.89213,2.05544 -1.51556,2.63412 -0.59639,0.55358 -1.20857,1.32864 -1.3604,1.72235 -0.15183,0.39372 -0.72069,1.14357 -1.26412,1.66632 -1.51909,1.4613 -0.10271,1.2327 1.97714,-0.31911 0.93587,-0.69826 1.87166,-1.26957 2.07953,-1.26957 0.63001,0 2.00578,-1.38101 2.14679,-2.15498 0.16191,-0.88869 0.77907,-0.9647 1.15496,-0.14224 0.27139,0.59384 -1.03149,1.97338 -3.06888,3.2494 -0.68948,0.43183 -0.74074,0.77114 -0.55147,3.65003 l 0.20867,3.17394 0.37412,-2.14242 c 0.29611,-1.6957 0.51451,-2.14239 1.04751,-2.14239 z m 1.19577,0.85129 c -0.30436,-0.24636 -0.41246,0.14558 -0.38235,1.38633 l 0.0419,1.7298 0.38234,-1.38633 c 0.26481,-0.96015 0.2519,-1.49192 -0.0419,-1.7298 z m 4.48817,-0.75673 c -0.14168,-0.61139 -0.37337,-1.01794 -0.51481,-0.90347 -0.30115,0.24377 -0.12123,2.40928 0.23856,2.87196 0.38709,0.49773 0.56086,-0.7405 0.27625,-1.96849 z"
       id="path3754"
       inkscape:connector-curvature="0" />
  </g>
</svg>
