<?xml version="1.0" encoding="UTF-8" standalone="no"?>
<!-- Generator: Adobe Illustrator 16.0.0, SVG Export Plug-In . SVG Version: 6.00 Build 0)  -->

<svg
   xmlns:dc="http://purl.org/dc/elements/1.1/"
   xmlns:cc="http://creativecommons.org/ns#"
   xmlns:rdf="http://www.w3.org/1999/02/22-rdf-syntax-ns#"
   xmlns:svg="http://www.w3.org/2000/svg"
   xmlns="http://www.w3.org/2000/svg"
   xmlns:sodipodi="http://sodipodi.sourceforge.net/DTD/sodipodi-0.dtd"
   xmlns:inkscape="http://www.inkscape.org/namespaces/inkscape"
   version="1.1"
   id="Layer_1"
   x="0px"
   y="0px"
   width="25px"
   height="28px"
   viewBox="2299.784 3886.945 832.33 976.579"
   enable-background="new 2299.784 3886.945 832.33 976.579"
   xml:space="preserve"
   sodipodi:docname="coin_.svg"
   inkscape:version="0.92.3 (2405546, 2018-03-11)"><metadata
   id="metadata34"><rdf:RDF><cc:Work
       rdf:about=""><dc:format>image/svg+xml</dc:format><dc:type
         rdf:resource="http://purl.org/dc/dcmitype/StillImage" /><dc:title></dc:title></cc:Work></rdf:RDF></metadata><defs
   id="defs32" /><sodipodi:namedview
   pagecolor="#ffffff"
   bordercolor="#666666"
   borderopacity="1"
   objecttolerance="10"
   gridtolerance="10"
   guidetolerance="10"
   inkscape:pageopacity="0"
   inkscape:pageshadow="2"
   inkscape:window-width="1366"
   inkscape:window-height="705"
   id="namedview30"
   showgrid="false"
   inkscape:zoom="19.142857"
   inkscape:cx="12.5"
   inkscape:cy="13.480547"
   inkscape:window-x="-8"
   inkscape:window-y="-8"
   inkscape:window-maximized="1"
   inkscape:current-layer="Layer_1" />
<g
   id="g27"
   transform="matrix(-1,0,0,1,5431.9,0)">
	<path
   d="m 2868.612,3904.82 v 0 l -225.691,-15.533 c -85.202,0.247 -172.216,55.927 -237.734,147.344 -67.073,93.485 -103.197,214.435 -103.197,340.548 0,125.853 37.292,246.541 104.752,340.547 65.649,91.418 152.016,142.947 236.44,142.947 l 211.575,-12.684 c 94.783,0 275.156,-147.617 275.156,-470.551 0,-322.411 -174.288,-472.618 -261.301,-472.618"
   id="path23"
   inkscape:connector-curvature="0"
   style="fill:#f7d80e" />
	<path
   d="m 2738.222,4114.063 h -136.089 c -3.496,-0.26 -6.735,3.109 -6.735,6.739 v 509.904 c 0,3.891 3.239,7.26 6.735,7.26 l 136.089,-0.26 c 3.883,0 6.992,-3.109 6.992,-7 v -509.904 c 0,-3.629 -3.11,-6.739 -6.992,-6.739 m -19.163,487.126 c 0,3.889 -2.979,5.957 -5.181,5.957 h -44.281 c -2.075,0 -5.441,-1.561 -5.441,-5.957 V 4154.21 c 0,-3.89 2.463,-6.479 4.921,-6.479 h 44.545 c 3.235,0 5.438,2.849 5.438,6.479 v 446.979 z m 105.142,-492.043 c -49.209,-73.035 -114.467,-114.47 -183.352,-114.47 -63.32,0 -126.768,42.476 -173.9,114.731 -47.26,72.515 -72.898,167.027 -72.898,265.965 0,98.923 26.155,193.451 73.936,266.21 47.134,71.994 110.063,112.402 172.863,112.402 68.885,0 133.629,-39.105 182.57,-112.141 48.171,-71.994 74.844,-166.521 74.844,-266.472 0,-99.964 -25.896,-194.231 -74.063,-266.225 m -173.64,608.321 c -69.532,0 -202.904,-113.168 -202.904,-342.095 0,-193.711 109.806,-348.314 202.904,-348.314 124.432,0 219.732,157.974 219.732,348.314 0,190.601 -95.301,342.095 -219.732,342.095 m 218.959,-814.975 v 0 l -226.858,-15.547 c -85.72,0.26 -173.12,55.94 -239.029,147.878 -67.2,94.267 -103.848,215.462 -103.848,342.356 0,126.373 37.422,247.828 105.402,342.355 66.036,91.938 152.793,143.469 237.475,143.988 l 212.743,-13.203 c 95.17,0 276.71,-148.4 276.71,-472.881 -10e-4,-323.712 -175.322,-474.946 -262.595,-474.946 m -226.208,926.076 c -145.804,0 -308.435,-192.424 -308.435,-451.389 0,-119.648 34.833,-234.105 97.76,-322.413 59.173,-82.61 135.571,-131.044 210.024,-131.305 h 3.756 c 77.819,1.822 158.23,46.873 220.253,130.003 66.427,88.568 103.327,203.546 103.327,323.714 0,120.676 -36.641,235.926 -101.902,323.713 -62.022,83.898 -143.858,127.414 -224.526,127.676 h -0.257 z m 210.281,-12.959 c -2.202,0 -79.374,6.74 -84.295,6.74 45.578,-24.602 88.051,-58.791 121.586,-104.883 68.107,-94.266 106.824,-213.654 106.824,-340.287 0,-126.114 -38.456,-246.542 -108.248,-340.548 -39.754,-53.338 -80.281,-85.979 -132.979,-111.868 l 94.394,7.246 c 72.381,0 243.819,145.29 243.819,445.43 -10e-4,284.868 -173.898,438.17 -241.101,438.17"
   id="path25"
   inkscape:connector-curvature="0"
   style="fill:#764016" />
</g>
</svg>