<?xml version="1.0" encoding="UTF-8" standalone="no"?>
<!-- Created with Inkscape (http://www.inkscape.org/) -->

<svg
   xmlns:dc="http://purl.org/dc/elements/1.1/"
   xmlns:cc="http://creativecommons.org/ns#"
   xmlns:rdf="http://www.w3.org/1999/02/22-rdf-syntax-ns#"
   xmlns:svg="http://www.w3.org/2000/svg"
   xmlns="http://www.w3.org/2000/svg"
   xmlns:sodipodi="http://sodipodi.sourceforge.net/DTD/sodipodi-0.dtd"
   xmlns:inkscape="http://www.inkscape.org/namespaces/inkscape"
   width="210mm"
   height="297mm"
   viewBox="0 0 210 297"
   version="1.1"
   id="svg8"
   inkscape:version="0.92.3 (2405546, 2018-03-11)"
   sodipodi:docname="drawing.svg">
  <defs
     id="defs2">
    <filter
       height="1.0166688"
       y="-0.0083343902"
       width="1.0428432"
       x="-0.021421586"
       id="filter928"
       style="color-interpolation-filters:sRGB"
       inkscape:collect="always">
      <feGaussianBlur
         id="feGaussianBlur930"
         stdDeviation="0.45745283"
         inkscape:collect="always" />
    </filter>
  </defs>
  <sodipodi:namedview
     id="base"
     pagecolor="#ffffff"
     bordercolor="#666666"
     borderopacity="1.0"
     inkscape:pageopacity="0.0"
     inkscape:pageshadow="2"
     inkscape:zoom="0.98994949"
     inkscape:cx="410.1669"
     inkscape:cy="457.62473"
     inkscape:document-units="mm"
     inkscape:current-layer="layer1"
     showgrid="false"
     inkscape:window-width="1366"
     inkscape:window-height="705"
     inkscape:window-x="-8"
     inkscape:window-y="-8"
     inkscape:window-maximized="1" />
  <metadata
     id="metadata5">
    <rdf:RDF>
      <cc:Work
         rdf:about="">
        <dc:format>image/svg+xml</dc:format>
        <dc:type
           rdf:resource="http://purl.org/dc/dcmitype/StillImage" />
        <dc:title></dc:title>
      </cc:Work>
    </rdf:RDF>
  </metadata>
  <g
     inkscape:label="Layer 1"
     inkscape:groupmode="layer"
     id="layer1">
    <g
       id="layer1-9"
       inkscape:label="Layer 1"
       transform="translate(39.489698,70.454221)">
      <path
         style="display:inline;opacity:0.119;fill:#000000;stroke-width:0.26458335;filter:url(#filter928)"
         d="m 118.33354,170.30597 c -2.471,-3.15265 -5.29202,-7.2443 -4.87702,-11.37131 0.97034,-5.45565 -0.6319,-10.82693 -1.50829,-16.16874 -0.6316,-2.12036 -1.22273,-7.75478 -1.69829,-2.17818 -1.08574,5.29924 -0.73169,10.66049 -0.0132,15.98097 2.09812,6.23969 -5.87626,6.05923 -7.77248,10.55892 -4.875985,4.06399 -12.149902,-1.2052 -7.706175,-6.6555 4.983876,-2.00786 7.482625,-6.88375 4.988874,-11.96644 -1.282618,-5.64667 -2.435131,-11.38492 -2.065499,-17.20319 -1.306934,-6.0625 -2.834398,-12.09432 -3.035854,-18.3342 -0.600737,-4.76827 -1.194354,-9.56712 0.04714,-14.288472 0.002,-5.577681 2.910586,-11.002824 0.875429,-16.509659 -2.042021,-3.809127 -8.100507,3.51343 -12.158672,0.808177 -4.939634,-2.206408 -3.061077,-9.496309 -3.383934,-13.898834 -0.198399,-3.28938 1.602261,-6.634956 0.336816,-9.824307 -0.634962,-4.416215 -3.095898,-10.951466 2.413894,-13.103127 1.454976,-1.817051 4.756721,-2.029357 1.875203,0.232575 -0.827323,-1.090394 -2.120417,2.616661 -3.164733,1.319921 -1.237203,3.695729 0.01441,7.914404 1.039349,11.590424 0.209701,3.051876 -0.959244,6.210786 -0.886419,9.336451 0.172579,4.262066 -1.63044,12.845582 5.125535,12.040019 3.372663,0.01149 7.770823,-4.792917 9.815603,-3.55522 1.35528,5.347159 2.215005,10.624944 0.305804,15.9374 -0.127583,5.187429 -2.195942,10.233522 -0.911456,15.420452 0.492153,6.27325 0.99949,12.56043 2.882503,18.59906 1.106568,5.4179 -0.03101,11.09975 1.784126,16.45858 0.44143,4.43942 3.73932,9.79191 0.1201,13.63322 -2.268793,2.27228 -8.588784,4.97429 -4.123219,8.56088 3.721029,0.81943 5.900869,-2.59788 7.790689,-4.89539 5.52676,-0.0114 4.51102,-5.44101 3.72846,-9.33325 -1.22818,-6.56318 1.44034,-13.0287 0.76471,-19.57114 -1.91029,-5.6038 -0.23201,-11.65402 -0.57343,-17.47784 -0.096,-2.00449 0.556,-6.55144 1.6143,-2.043 2.02984,5.871 0.8071,12.34453 2.97896,18.17544 -1.30915,5.46995 1.01153,10.7017 1.55497,16.08729 1.25942,4.43753 1.00524,9.05825 0.29504,13.56552 2.81128,2.19295 2.68595,10.29812 8.01449,6.9827 2.27357,-1.72789 0.65484,-3.85041 -0.25821,-5.75458 -0.99836,-2.21497 -2.51616,-4.31261 -2.0322,-6.86242 0.34508,-7.49172 3.49264,-15.02371 1.12943,-22.50645 -1.11465,-5.47525 -0.1821,-11.06565 0.98429,-16.43989 3.87591,-4.35199 3.35662,-10.53274 4.65611,-16.001321 1.33846,-5.268691 2.25259,-10.696411 0.73366,-16.030815 -0.47381,-5.386265 -0.86022,-10.867866 -2.01753,-16.095967 -1.39817,-5.633201 -7.85711,-4.206649 -10.96656,-8.274807 -3.84997,-4.953505 5.09389,-10.359671 0.52882,-15.370603 -1.97875,-4.339712 -6.83552,-5.483726 -10.58434,-2.755047 -4.12268,3.049541 -4.17813,8.570444 -1.34866,12.691961 3.35822,4.601156 -1.17399,8.574511 -5.631011,9.216086 -4.287915,-0.203168 -6.418057,8.145043 -9.889998,5.7076 -0.759642,-4.607675 -0.346154,-9.67406 2.69976,-13.395952 1.722857,-1.535281 2.993643,-5.317506 -0.54834,-2.890836 -4.14134,2.093213 0.202837,-7.130636 -3.67323,-7.25606 2.987308,-1.903556 3.570104,4.74146 3.777737,6.345867 5.785024,-1.68814 3.624484,4.654019 1.184944,7.098341 -2.090373,2.212564 -2.875578,7.87174 -1.23762,9.277509 2.334967,-5.233091 8.693221,-4.879101 12.481408,-8.325898 0.28073,-5.029315 -5.053409,-9.964626 -1.99709,-15.290393 2.53942,-3.635694 8.0642,-6.95525 12.33864,-4.325272 4.18759,2.346041 6.80182,7.916245 4.58186,12.450258 -4.49696,4.648562 0.18484,9.628398 5.33455,10.256442 5.40583,2.275142 5.11367,8.888595 5.9575,13.759371 0.29449,4.719274 0.87934,9.403395 1.50826,14.077846 -0.18508,6.652155 -2.56953,13.02183 -2.99458,19.66614 -1.45334,5.16355 -4.74229,9.51356 -4.77692,15.16994 -0.82715,5.84094 2.41797,11.42327 1.25291,17.29665 -0.14958,5.23496 -2.82416,10.44754 -1.44187,15.64991 2.07884,3.80286 5.57599,10.89027 -0.99638,12.35038 -1.07855,0.0933 -2.21484,0.0837 -3.22867,-0.34819 z m -7.57337,-40.046 c -0.10557,-2.36242 -1.33246,-5.20732 -0.98561,-1.17191 0.13469,2.78233 2.08796,7.01963 0.98561,1.17191 z m 10.45889,-29.83929 c -0.50282,-4.782154 -1.29282,-9.446105 -1.66805,-14.26344 -0.39017,-3.306816 2.06335,-3.944437 2.23705,-0.3547 0.2317,5.318125 1.43973,10.792204 0.24694,16.0746 -0.71831,1.06331 -0.77309,-1.30062 -0.81594,-1.45646 z"
         id="path839"
         inkscape:connector-curvature="0" />
    </g>
  </g>
</svg>
