<?xml version="1.0" encoding="UTF-8" standalone="no"?>
<!-- Created with Inkscape (http://www.inkscape.org/) -->

<svg
   xmlns:dc="http://purl.org/dc/elements/1.1/"
   xmlns:cc="http://creativecommons.org/ns#"
   xmlns:rdf="http://www.w3.org/1999/02/22-rdf-syntax-ns#"
   xmlns:svg="http://www.w3.org/2000/svg"
   xmlns="http://www.w3.org/2000/svg"
   xmlns:sodipodi="http://sodipodi.sourceforge.net/DTD/sodipodi-0.dtd"
   xmlns:inkscape="http://www.inkscape.org/namespaces/inkscape"
   width="210mm"
   height="297mm"
   viewBox="0 0 210 297"
   version="1.1"
   id="svg8"
   inkscape:version="0.92.3 (2405546, 2018-03-11)"
   sodipodi:docname="p_man_black.svg">
  <defs
     id="defs2">
    <filter
       inkscape:collect="always"
       style="color-interpolation-filters:sRGB"
       id="filter72"
       x="-0.065635701"
       width="1.1312714"
       y="-0.024801621"
       height="1.0496032">
      <feGaussianBlur
         inkscape:collect="always"
         stdDeviation="1.2724479"
         id="feGaussianBlur74" />
    </filter>
    <filter
       height="1.0500135"
       y="-0.025006728"
       width="1.1284825"
       x="-0.064241269"
       id="filter928"
       style="color-interpolation-filters:sRGB"
       inkscape:collect="always">
      <feGaussianBlur
         id="feGaussianBlur930"
         stdDeviation="1.3719265"
         inkscape:collect="always" />
    </filter>
  </defs>
  <sodipodi:namedview
     id="base"
     pagecolor="#ffffff"
     bordercolor="#666666"
     borderopacity="1.0"
     inkscape:pageopacity="0.0"
     inkscape:pageshadow="2"
     inkscape:zoom="0.78691102"
     inkscape:cx="92.28539"
     inkscape:cy="1020.239"
     inkscape:document-units="mm"
     inkscape:current-layer="layer1-9"
     showgrid="false"
     inkscape:window-width="1366"
     inkscape:window-height="705"
     inkscape:window-x="-8"
     inkscape:window-y="-8"
     inkscape:window-maximized="1" />
  <metadata
     id="metadata5">
    <rdf:RDF>
      <cc:Work
         rdf:about="">
        <dc:format>image/svg+xml</dc:format>
        <dc:type
           rdf:resource="http://purl.org/dc/dcmitype/StillImage" />
        <dc:title></dc:title>
      </cc:Work>
    </rdf:RDF>
  </metadata>
  <g
     inkscape:label="Layer 1"
     inkscape:groupmode="layer"
     id="layer1"
     style="display:inline">
    <g
       id="layer1-6"
       inkscape:label="Layer 1"
       transform="translate(-32.189393,-79.232399)">
      <path
         inkscape:connector-curvature="0"
         id="path34"
         d="m 95.649008,220.4737 c -0.21914,-0.21915 -0.4738,-0.63587 -0.5659,-0.92605 -0.0921,-0.29018 -0.26998,-0.5276 -0.3953,-0.5276 -0.12532,0 -0.41496,-0.18709 -0.64363,-0.41577 -0.32303,-0.32303 -0.41649,-1.0165 -0.41896,-3.10885 -0.003,-2.45567 -0.0664,-2.79805 -0.71998,-3.88371 -0.71151,-1.18184 -0.71685,-1.22771 -0.72442,-6.21613 -0.006,-4.22375 -0.0692,-5.02576 -0.39365,-5.02708 -0.50212,-0.002 -0.81247,-1.42206 -0.75208,-3.44117 0.0316,-1.05816 -0.10153,-1.86984 -0.39941,-2.43427 -0.72012,-1.36453 -1.2339,-4.0205 -1.2181,-6.29698 0.0207,-2.99041 0.24861,-3.41745 0.96434,-1.80724 0.31245,0.70294 0.67215,1.62782 0.79934,2.05529 0.12719,0.42747 0.39081,0.8304 0.58583,0.89541 0.64002,0.21334 0.11205,-1.67513 -1.28737,-4.60469 -1.56696,-3.28028 -1.7609,-4.20402 -2.28145,-10.86679 -0.31712,-4.05907 -0.55337,-5.5976 -1.18706,-7.73068 -0.91507,-3.08023 -0.93277,-3.27606 -0.3733,-4.12991 0.30641,-0.46764 0.40222,-1.18836 0.35929,-2.70267 -0.0322,-1.13573 0.0318,-2.33286 0.14219,-2.66028 0.14941,-0.44311 0.0986,-0.59531 -0.1987,-0.59531 -0.58866,0 -0.72062,0.58016 -0.72062,3.16833 0,1.88177 -0.0807,2.36227 -0.41852,2.4919 -0.64371,0.24702 -0.68153,0.20376 -0.35511,-0.40616 0.16682,-0.31172 0.31984,-1.56494 0.34004,-2.78494 0.0305,-1.84256 -0.0305,-2.20503 -0.36016,-2.14051 -0.30853,0.0604 -0.40168,0.52263 -0.41845,2.07663 -0.0248,2.29567 -0.21293,2.82138 -0.8273,2.3115 -0.31539,-0.26176 -0.36977,-0.67202 -0.24599,-1.85623 0.1588,-1.51936 0.0328,-2.33135 -0.3618,-2.33135 -0.11518,0 -0.29435,0.84571 -0.39816,1.87935 -0.16843,1.67717 -0.12777,1.96182 0.37794,2.64584 0.52691,0.71267 0.5327,0.76647 0.0825,0.76647 -0.89592,0 -1.11917,-0.56049 -1.11917,-2.80982 v -2.17483 l -1.38906,-1.32845 c -1.10413,-1.05596 -1.51567,-1.69801 -2.0063,-3.13007 -0.76865,-2.24356 -1.79665,-4.05058 -2.30433,-4.05058 -0.5165,0 -0.50297,0.0596 0.37652,1.65766 0.41923,0.76178 1.08411,2.2473 1.47752,3.30115 0.6681,1.78969 1.6537,2.97869 2.46913,2.97869 0.43135,0 0.58277,0.73088 0.58277,2.81291 0,2.50275 0.44552,3.47009 1.6517,3.58633 l 0.86184,0.0831 -0.0696,1.7198 c -0.0383,0.94588 -0.0634,4.2201 -0.0557,7.27604 0.0137,5.45029 -0.14945,7.00691 -0.97142,9.27133 -0.46052,1.26867 -0.39084,4.12628 0.1046,4.28971 0.24106,0.0795 0.33073,-0.3416 0.33073,-1.55337 0,-2.99822 1.00956,-0.58578 1.23088,2.94129 0.11154,1.7776 0.0345,2.58378 -0.36739,3.8465 -0.35644,1.11983 -0.47372,2.07843 -0.39218,3.2057 0.0846,1.16899 -0.008,1.87116 -0.34072,2.57129 -0.51646,1.08836 -0.48676,1.76903 0.42574,9.76008 0.66924,5.86073 0.65574,6.00034 -0.62248,6.44068 -0.84701,0.29179 -0.99219,0.28575 -0.99219,-0.0412 0,-0.43921 -0.61001,-0.49997 -1.3019,-0.12968 -0.50023,0.26771 -2.66685,3.4291 -2.66685,3.89128 0,0.54072 -1.04187,1.19519 -2.13636,1.34199 -0.61551,0.0826 -1.33912,0.37012 -1.60804,0.63904 -0.55395,0.55395 -1.08248,0.61469 -1.83665,0.21107 -0.63114,-0.33777 -0.42273,-0.77871 0.37115,-0.78524 0.34933,-0.003 0.92735,-0.42345 1.45453,-1.05834 0.60003,-0.72261 0.75038,-1.05356 0.47864,-1.05356 -0.21791,0 -0.47433,0.12641 -0.56981,0.2809 -0.19555,0.3164 -1.46084,0.84991 -1.62541,0.68535 -0.0588,-0.0588 0.34468,-0.37678 0.89659,-0.70664 1.43524,-0.85778 0.5957,-0.98069 -0.9181,-0.13441 l -1.25341,0.7007 0.97537,-0.87597 c 0.80097,-0.71935 0.9492,-1.00606 0.82905,-1.60358 -0.10885,-0.54127 -0.0423,-0.7276 0.2598,-0.7276 0.22336,0 1.02375,-0.52721 1.77864,-1.17157 0.75523,-0.64465 1.53781,-1.10815 1.74,-1.03056 0.25288,0.097 0.62352,-0.42457 1.18855,-1.6727 1.02594,-2.26623 0.98679,-2.90117 -0.65114,-10.55905 -1.39784,-6.53542 -1.75465,-8.93428 -1.75465,-11.79685 0,-1.99494 0.0301,-2.10579 0.52917,-1.9474 0.68848,0.21852 0.6968,-0.35394 0.0243,-1.67214 -0.46345,-0.90845 -1.05938,-2.78949 -1.46314,-4.61844 -0.14998,-0.67933 -0.11207,-0.72177 0.50607,-0.56663 0.88862,0.22303 0.84353,-0.15184 -0.13052,-1.08503 -1.2199,-1.16875 -1.76141,-3.44423 -2.23407,-9.38796 -0.22565,-2.83766 -0.58823,-6.58813 -0.80572,-8.33438 -0.38404,-3.08346 -0.37884,-3.23603 0.18032,-5.29167 0.31668,-1.16416 0.61721,-3.00963 0.66786,-4.10104 0.12191,-2.62685 0.27455,-3.25845 0.74396,-3.07832 0.64103,0.24599 0.72093,-0.33117 0.14688,-1.06095 -0.69635,-0.88528 -0.68689,-1.17569 0.1151,-3.53365 0.82277,-2.41902 0.8237,-3.16395 0.008,-6.52996 -0.73022,-3.01407 -1.36082,-7.41916 -1.09948,-7.6805 0.0939,-0.0939 0.49693,0.12803 0.89559,0.4932 1.07061,0.98066 2.52497,1.28185 6.1897,1.28185 2.76073,0 3.45237,-0.0844 4.32123,-0.52738 1.03326,-0.52679 1.03566,-0.52679 2.12385,0 1.39926,0.67736 6.46463,0.76142 7.97042,0.13226 0.52011,-0.21732 1.05207,-0.32935 1.18213,-0.24897 0.13006,0.0804 0.23648,1.47013 0.23648,3.08833 0,2.30751 -0.1256,3.33214 -0.58224,4.74996 -0.57768,1.79364 -0.57867,1.82899 -0.12669,4.51669 0.52931,3.14754 0.56102,4.24904 0.14163,4.92059 -0.24419,0.39102 -0.19176,0.63478 0.27121,1.26099 0.47085,0.63686 0.63509,1.43665 0.91454,4.45364 l 0.34063,3.67737 -0.87642,1.30234 c -0.48203,0.7163 -0.87641,1.46441 -0.87641,1.66249 0,0.19807 -0.53578,0.9114 -1.19063,1.58519 -1.32262,1.36088 -1.37006,1.48843 -0.77485,2.08364 0.60244,0.60244 1.43587,0.51239 2.60395,-0.28133 l 1.02588,-0.69711 -0.13442,1.19256 c -0.0739,0.65591 -0.5324,2.05599 -1.01881,3.11129 l -0.8844,1.91873 0.63263,0.51227 c 0.40231,0.32577 0.94673,0.48522 1.49537,0.43795 0.4745,-0.0409 0.94424,0.007 1.04387,0.10681 0.31808,0.31808 -0.7446,5.02754 -1.52066,6.73913 -0.75652,1.66846 -0.97015,2.98589 -0.48418,2.98589 0.14552,0 0.26458,-0.12609 0.26458,-0.2802 0,-0.15411 0.0949,-0.22157 0.21078,-0.14993 0.11593,0.0717 0.0997,1.16627 -0.036,2.43249 -0.20545,1.91657 -0.17834,2.41812 0.16184,2.99419 0.51484,0.87186 1.15416,4.02013 1.37628,6.77741 0.18283,2.26943 -0.47815,7.87959 -1.46365,12.42303 -0.2826,1.30287 -0.51456,3.08881 -0.51545,3.96875 -8e-4,0.90146 -0.17418,1.93073 -0.39688,2.35774 -0.4899,0.93935 -0.49852,0.87321 0.13536,1.03898 0.3651,0.0955 0.95062,1.03354 1.87717,3.00742 1.822,3.88149 1.954,4.23068 1.43711,3.8017 -0.34104,-0.28304 -0.4053,-0.25247 -0.4053,0.1928 0,0.29104 0.17859,0.67738 0.39687,0.85854 0.21829,0.18116 0.39688,0.45231 0.39688,0.60257 0,0.15026 -0.23813,0.0577 -0.52917,-0.20569 -0.29104,-0.26339 -0.52916,-0.64896 -0.52916,-0.85681 0,-0.20785 -0.14883,-0.32335 -0.33073,-0.25665 -0.1819,0.0667 -0.30239,0.25093 -0.26776,0.4094 0.0346,0.15848 -0.11419,0.22015 -0.33073,0.13706 -0.44616,-0.17121 -0.5588,0.56602 -0.12724,0.83274 0.42512,0.26273 1.10168,1.71863 0.79867,1.71863 -0.14926,0 -0.27138,-0.12822 -0.27138,-0.28493 0,-0.25413 -1.56537,-1.99848 -1.60269,-1.78594 -0.008,0.0476 -0.0669,0.58436 -0.13015,1.19285 -0.10182,0.97986 -0.0471,1.11944 0.47821,1.22074 0.51926,0.10013 0.50486,0.11887 -0.11553,0.15042 -0.38979,0.0198 -0.88801,-0.14327 -1.10715,-0.36241 z m -12.02758,-12.5874 c 0.15858,-2.202 -0.006,-3.28291 -0.43514,-2.85399 -0.0727,0.0727 -0.21272,1.36093 -0.31114,2.86273 -0.14982,2.28629 -0.11827,2.71044 0.19393,2.60704 0.26745,-0.0886 0.42361,-0.82807 0.55235,-2.61578 z m 9.21322,-22.30518 c 0,-0.20131 -0.23812,-0.42829 -0.52916,-0.5044 -0.40653,-0.10631 -0.52917,-0.36089 -0.52917,-1.0985 0,-0.52807 -0.18486,-1.24224 -0.41079,-1.58706 -0.22594,-0.34482 -0.43429,-0.93274 -0.46302,-1.30649 -0.0287,-0.37374 -0.17129,-0.71251 -0.31682,-0.7528 -0.44494,-0.12322 -0.45777,1.60241 -0.0166,2.23228 0.2274,0.32467 0.41347,0.91326 0.41347,1.30797 -1e-5,1.28248 0.45224,2.07502 1.18407,2.07502 0.39236,0 0.668,-0.15104 0.668,-0.36602 z m 2.27658,-0.097 c 0.0788,-0.25467 0.25367,-0.66977 0.38857,-0.92246 0.33203,-0.62195 0.31077,-0.73119 -0.1423,-0.73119 -0.45849,0 -0.93535,0.80046 -0.93535,1.57011 0,0.66548 0.49056,0.72496 0.68908,0.0835 z m 0.50982,-4.8948 c 0.12204,-0.83309 0.0884,-1.25677 -0.0999,-1.25677 -0.3853,0 -0.94969,1.96381 -0.72938,2.53793 0.26611,0.69346 0.62015,0.14651 0.82928,-1.28116 z m -16.69528,0.74906 c -0.13098,-0.52187 -0.0503,-0.65617 0.43726,-0.7276 0.92377,-0.13535 0.88961,-0.65616 -0.0649,-0.9889 -0.47329,-0.16499 -1.12099,-0.54466 -1.43932,-0.84372 -0.78413,-0.73665 -1.08777,-0.19063 -0.41965,0.75463 0.28215,0.39919 0.5968,1.11276 0.69921,1.5857 0.10518,0.48569 0.35197,0.8599 0.56711,0.8599 0.27076,0 0.33445,-0.18505 0.22026,-0.64001 z m 9.96482,-25.8359 c 0.42231,-0.30071 1.12012,-1.05879 1.55071,-1.68462 0.91249,-1.32626 3.05441,-6.19161 2.82624,-6.41978 -0.33901,-0.33901 -0.93334,0.5616 -1.8837,2.85443 -0.93828,2.26369 -2.42496,4.61022 -3.21993,5.08225 -0.35628,0.21155 -0.49617,0.71446 -0.19875,0.71446 0.0867,0 0.50312,-0.24603 0.92543,-0.54674 z m -4.25802,-10.56576 c 0,-0.55332 -0.20511,-0.63691 -0.9044,-0.36857 -0.66916,0.25678 -0.49571,0.89774 0.24294,0.89774 0.48507,0 0.66146,-0.14112 0.66146,-0.52917 z m -4.3919,-5.09323 c 0.59436,-0.6035 1.06217,-1.54255 1.56898,-3.14941 0.83682,-2.65314 1.43322,-3.53119 2.55025,-3.7546 0.97362,-0.19472 1.0656,-0.70276 0.12724,-0.70276 -0.88558,0 -2.12196,0.65209 -2.36432,1.24698 -0.10594,0.26005 -0.53608,1.47444 -0.95587,2.69866 -0.88225,2.57287 -1.33614,3.35552 -2.08358,3.59274 -0.29492,0.0936 -0.53622,0.34076 -0.53622,0.54924 0,0.64759 0.8082,0.41811 1.69352,-0.48085 z m 10.8338,0.6798 c 0.099,-0.0991 -0.10457,-0.486 -0.45248,-0.85989 -0.34792,-0.3739 -1.14749,-1.87043 -1.77682,-3.32564 -1.06995,-2.47402 -2.2083,-4.10104 -2.86933,-4.10104 -0.51125,0 -0.30075,0.61981 0.48994,1.44261 0.42619,0.44349 1.26088,1.9311 1.85488,3.30581 1.26347,2.92407 2.18451,4.10745 2.75381,3.53815 z m 1.0183,73.47305 c -0.50713,-0.42278 -0.58,-0.66586 -0.43357,-1.4464 0.22836,-1.21728 0.49012,-1.18491 1.01443,0.12547 0.72678,1.81639 0.53544,2.25154 -0.58086,1.32093 z m 4.5605,-47.95952 c 0.33797,-0.76422 0.76216,-2.1008 0.94265,-2.97018 0.18048,-0.86939 0.4992,-1.70578 0.70826,-1.85865 0.43706,-0.31958 0.21057,-1.19002 -0.30965,-1.19002 -0.18687,0 -0.91609,0.47625 -1.62049,1.05833 -1.91947,1.58616 -3.16426,1.34517 -1.33732,-0.2589 0.48353,-0.42455 1.04124,-1.26302 1.23934,-1.86328 0.22819,-0.69144 0.82437,-1.50871 1.62691,-2.23027 l 1.26672,-1.13889 0.0599,-4.19964 c 0.0329,-2.3098 -0.0405,-5.61431 -0.16326,-7.34336 -0.18752,-2.64163 -0.1642,-3.12433 0.14602,-3.02233 0.20304,0.0668 0.40648,0.49917 0.45208,0.9609 0.10178,1.03064 0.843132,1.17191 0.843132,0.16067 0,-0.84444 -0.38155,-1.60426 -1.319882,-2.62844 -1.08322,-1.18231 -1.86595,-4.33831 -2.13267,-8.59896 -0.19945,-3.18604 -0.16795,-3.75351 0.29156,-5.25339 0.28334,-0.92483 0.51516,-1.97655 0.51516,-2.33715 0,-1.14965 -0.61168,-0.51401 -0.95485,0.99227 -0.42515,1.86606 -1.23001,3.72466 -1.82779,4.22077 -0.36784,0.30528 -1.27756,0.39313 -4.07105,0.39313 -3.38228,0 -3.64777,-0.0378 -4.44065,-0.6328 l -0.8433,-0.6328 -0.80493,0.6773 c -0.60723,0.51095 -1.24492,0.7251 -2.59629,0.87191 -1.87942,0.20416 -5.50333,-0.14152 -6.76338,-0.64516 -1.07478,-0.42958 -2.03234,-2.61858 -2.0409,-4.66554 -0.004,-0.87312 -0.0941,-1.71915 -0.20102,-1.88006 -0.23979,-0.3609 -2.17876,-0.74415 -2.17876,-0.43064 0,0.12475 0.34287,0.48031 0.76193,0.79013 0.68046,0.50309 0.77524,0.75598 0.88637,2.36487 0.0881,1.27499 0.009,2.03353 -0.26902,2.59529 -0.55617,1.12201 -1.86439,2.73592 -2.48844,3.06991 -0.46494,0.24883 -0.50737,0.21651 -0.35326,-0.26908 0.26037,-0.82033 -0.17128,-0.68365 -2.02634,0.64164 -0.91884,0.65643 -2.26593,1.47429 -2.99353,1.81746 -1.20516,0.56841 -1.48777,0.60191 -3.175,0.37633 -1.01865,-0.13619 -1.96082,-0.35436 -2.09371,-0.48482 -0.1329,-0.13046 -0.29703,-1.19408 -0.36473,-2.36359 -0.0677,-1.16952 -0.22686,-2.1264 -0.35368,-2.1264 -0.68836,0 0.0686,-12.37661 0.84526,-13.82088 0.36103,-0.67135 0.31655,-0.93309 -0.41203,-2.42462 -0.74886,-1.53306 -1.30793,-4.16259 -1.07897,-5.07483 0.0846,-0.33702 0.47174,-0.76773 0.86034,-0.95714 0.6777,-0.33033 0.70397,-0.42147 0.64312,-2.23109 -0.042,-1.24796 0.0778,-2.22462 0.35364,-2.88489 0.57034,-1.365022 0.73515,-1.041539 0.37726,0.7405 -0.16359,0.8146 -0.21566,1.91704 -0.11569,2.44987 0.16842,0.89779 0.23385,0.95466 0.89276,0.77595 0.39105,-0.10606 1.08365,-0.17386 1.5391,-0.15066 l 0.82809,0.0422 0.18777,-2.25412 c 0.26656,-3.199988 0.66901,-3.094847 0.67251,0.17569 0.002,1.50018 0.0762,3.17096 0.16578,3.71286 0.15079,0.91211 0.098,1.02016 -0.71085,1.4552 -0.48056,0.25847 -1.31588,0.93649 -1.85628,1.50672 -0.87845,0.92696 -0.95487,1.11614 -0.72137,1.78594 0.29946,0.85906 0.73855,0.99725 0.73855,0.23244 0,-1.00831 0.58033,-1.75922 2.20482,-2.8529 0.90474,-0.60912 1.99168,-1.46935 2.41542,-1.91164 0.45597,-0.47592 1.04041,-0.80415 1.43189,-0.80415 h 0.66146 l -0.69677,0.7276 c -0.38323,0.40018 -0.95497,1.32291 -1.27055,2.05052 -0.31557,0.7276 -0.92412,1.69284 -1.35234,2.14498 -1.002,1.05799 -1.44672,2.85826 -1.65965,6.71856 -0.15641,2.8354 -0.11504,3.23199 0.60709,5.82083 0.42622,1.52797 0.8565,3.4925 0.95619,4.36563 0.24452,2.14169 0.41319,2.77812 0.73626,2.77812 0.33705,0 0.0406,-4.11583 -0.38422,-5.33448 -0.27509,-0.78911 -0.23196,-0.89183 0.7646,-1.82142 0.70968,-0.66198 1.41695,-1.04611 2.15604,-1.17098 1.28133,-0.21648 1.60658,-0.56792 0.96189,-1.03933 -0.43209,-0.31594 -0.4326,-0.3745 -0.009,-1.02109 0.24719,-0.37726 1.2396,-1.20078 2.20537,-1.83005 1.92622,-1.25506 1.35722,-1.17826 7.07247,-0.95458 1.83239,0.0717 4.36563,-0.30155 4.36563,-0.64326 0,-0.19372 -0.81619,-0.22945 -2.57969,-0.11294 -3.0292,0.20012 -3.75958,-0.0447 -2.71198,-0.90899 0.36381,-0.30016 1.16335,-0.77928 1.77677,-1.06471 1.24338,-0.57858 1.9274,-1.38254 1.9274,-2.26538 0,-0.83483 0.37769,-0.95996 0.95683,-0.31702 0.72754,0.80771 1.61763,1.06486 2.97913,0.86069 0.94839,-0.14222 1.49283,-0.4535 2.56232,-1.46498 0.74694,-0.70642 1.43585,-1.2844 1.53093,-1.2844 0.0951,0 0.1745,0.62508 0.17648,1.38907 0.002,0.76398 0.0767,1.66182 0.16599,1.99519 0.20688,0.77233 0.78557,0.60219 0.66877,-0.19663 -0.1,-0.68385 -0.16556,-0.71215 2.23376,0.96402 1.90935,1.33387 2.36532,1.81244 1.96349,2.06079 -0.61484,0.37999 0.1054,0.66673 1.67475,0.66673 1.41862,0 1.80425,0.11193 2.72916,0.79212 1.439902,1.05891 3.003912,3.38306 3.283432,4.87922 0.13092,0.70082 0.1215,2.02108 -0.0223,3.12841 -0.32598,2.50946 -0.32617,3.63567 -6.3e-4,3.63567 0.14552,0 0.26459,-0.23813 0.26459,-0.52917 0,-0.91197 0.45211,-0.57645 0.62392,0.46302 0.0902,0.54571 0.16531,2.38164 0.16691,4.07986 0.002,2.41816 0.15321,3.70901 0.69604,5.95313 0.81711,3.37805 0.76748,5.11288 -0.28109,9.82597 -0.36609,1.64548 -0.85452,4.08054 -1.0854,5.41125 -0.23088,1.33071 -0.49063,2.5341 -0.5772,2.67418 -0.0866,0.14009 -0.13057,0.99538 -0.0978,1.90064 0.0781,2.15405 -0.39776,4.70616 -1.0739,5.7596 -0.47029,0.73271 -0.51698,0.75606 -0.36058,0.18027 0.5114,-1.88259 0.50958,-1.90344 -0.15746,-1.80896 -0.509192,0.0721 -0.745472,0.41507 -1.236342,1.79447 -0.63586,1.7868 -1.003,2.39574 -1.44445,2.39574 -0.15138,0 -0.12807,-0.16449 0.0545,-0.38447 0.41732,-0.50285 1.8857,-4.44291 1.71819,-4.61041 -0.25094,-0.25095 -0.64358,0.39674 -1.17254,1.93419 -0.53105,1.54352 -1.66793,3.32527 -2.12176,3.32527 -0.13011,0 0.04,-0.62527 0.37794,-1.38948 z m -19.03216,-38.16935 c 0,-0.37664 -0.20616,-0.54927 -0.7276,-0.60926 -0.78444,-0.0903 -0.98248,0.38447 -0.40238,0.96456 0.46793,0.46793 1.12998,0.25976 1.12998,-0.3553 z m 16.74183,0.35388 c 0.40243,-0.40243 -0.0644,-1.01172 -0.77524,-1.01172 -0.63097,0 -0.95771,0.76639 -0.46087,1.08099 0.5048,0.31964 0.86753,0.29931 1.23611,-0.0693 z m -22.5864,-2.20351 c 0.39324,-0.36444 0.64254,-0.77984 0.554,-0.9231 -0.20123,-0.32559 -1.37641,0.41291 -1.74094,1.09403 -0.39467,0.73745 0.31743,0.6349 1.18694,-0.17093 z m 14.92754,-1.81183 c 0.0673,-0.34954 -0.0413,-0.45812 -0.3908,-0.3908 -0.2662,0.0513 -0.52595,0.31102 -0.57722,0.57722 -0.0673,0.34954 0.0413,0.45811 0.3908,0.3908 0.2662,-0.0513 0.52595,-0.31102 0.57722,-0.57722 z m -0.13992,-1.84901 c 0.18583,-0.48428 -0.21676,-1.07812 -0.57909,-0.85419 -0.42192,0.26076 -0.36357,1.20891 0.0744,1.20891 0.20271,0 0.42982,-0.15963 0.50469,-0.35472 z m -9.55919,-3.78733 c 0.58706,-0.53129 0.62183,-0.88504 0.087,-0.88504 -0.21828,0 -0.39687,0.10518 -0.39687,0.23373 0,0.12855 -0.2501,0.29913 -0.55579,0.37907 -0.30604,0.08 -0.47736,0.27223 -0.38126,0.42773 0.24967,0.40397 0.68933,0.34914 1.24695,-0.15549 z m 18.73059,0.23944 c -0.005,-0.10914 -0.2972,-0.55044 -0.64881,-0.98066 -0.55651,-0.68094 -0.66221,-0.72249 -0.81632,-0.32087 -0.10724,0.27946 0.008,0.66609 0.29293,0.98066 0.46203,0.51053 1.19086,0.71004 1.1722,0.32087 z m -9.41924,-1.97168 c 0.34391,-0.54937 0.0169,-0.9593 -0.41816,-0.52422 -0.1722,0.1722 -0.5274,0.31309 -0.78934,0.31309 -0.26194,0 -0.47625,0.1865 -0.47625,0.41445 0,0.56041 1.30424,0.40291 1.68375,-0.20332 z m 7.15815,0.15744 c 0.81512,-0.31279 0.40195,-0.63315 -0.81658,-0.63315 -0.6793,0 -1.98992,-0.13145 -2.91247,-0.2921 -1.56214,-0.27204 -2.75396,-0.17124 -2.38132,0.2014 0.49089,0.49089 5.24868,1.05451 6.11037,0.72385 z m -6.44114,-3.0448 c 1.4211,-2.2146 0.38054,-1.93217 -1.11871,0.30364 -0.38302,0.57118 -0.50663,0.61145 -0.9886,0.32207 -0.70671,-0.42431 -0.82262,-0.41618 -0.82262,0.0577 0,0.54224 1.36367,1.22796 1.77141,0.89074 0.17391,-0.14383 0.69524,-0.8522 1.15852,-1.57415 z m -3.37752,-2.3414 c -0.31894,-0.13506 -0.79355,-0.5794 -1.0547,-0.98741 -0.26114,-0.40801 -0.6204,-0.8609 -0.79835,-1.00642 -0.17795,-0.14552 -0.46203,-0.85989 -0.63129,-1.5875 -0.16926,-0.7276 -0.47927,-1.82276 -0.68893,-2.43368 -0.24873,-0.72481 -0.29789,-1.27642 -0.14149,-1.5875 0.27031,-0.53762 0.0504,-1.71883 -0.30911,-1.66037 -0.28108,0.0457 -0.68132,-0.53641 -0.68699,-0.99917 -0.002,-0.18191 0.11502,-0.33073 0.26054,-0.33073 0.14552,0 0.26458,0.17859 0.26458,0.39687 0,0.21828 0.0619,0.39688 0.13755,0.39688 0.26878,0 2.3865,-1.39653 3.03953,-2.004422 0.60584,-0.563951 0.76242,-0.592572 1.80044,-0.329095 0.83764,0.212615 1.31241,0.208605 1.80368,-0.01523 0.82966,-0.378017 1.04671,-0.249715 1.24368,0.735147 0.0865,0.43234 0.63122,1.21859 1.2248,1.7678 1.29162,1.19504 1.40142,2.19263 0.40324,3.66353 -0.69665,1.02656 -0.67467,1.5656 0.0524,1.28658 0.95157,-0.36516 0.0191,1.41324 -1.58441,3.02173 -1.33023,1.33436 -1.83788,1.66962 -2.697,1.78116 -0.58209,0.0756 -1.31929,0.0269 -1.63822,-0.10817 z m 1.65379,-1.45625 c 0.4813,-0.36403 0.45121,-0.38899 -0.47859,-0.39687 -0.96086,-0.008 -1.33604,0.33791 -0.66146,0.61011 0.52371,0.21132 0.59683,0.19764 1.14005,-0.21324 z m 0.68281,-0.93445 c 0.46191,0 0.75683,-0.14029 0.75683,-0.36002 0,-0.7237 -3.64679,-0.71004 -4.49026,0.0168 -0.35239,0.30367 0.79926,0.61257 1.81521,0.48689 0.63877,-0.079 1.50197,-0.14368 1.91822,-0.14368 z m 0.58792,-1.98438 c 0.18076,-0.47103 -0.0541,-1.19062 -0.38857,-1.19062 -0.12995,0 -0.23627,0.16586 -0.23627,0.36856 0,0.46167 -0.57589,0.68977 -1.74144,0.68977 -0.75718,0 -0.9044,-0.0954 -0.9044,-0.58586 0,-0.54252 -0.032,-0.55383 -0.43305,-0.15281 -0.23818,0.23818 -0.36098,0.62088 -0.27289,0.85045 0.22627,0.58965 3.75124,0.60784 3.97662,0.0205 z m -2.16395,-1.38906 c 0.16516,-2.48343 -0.52465,-3.50573 -2.36552,-3.50573 -1.47365,0 -1.40991,0.58997 0.0889,0.82235 l 1.03765,0.16089 -1.12448,0.0375 c -1.39566,0.0466 -1.52486,0.65812 -0.22937,1.08568 0.49231,0.16247 0.99833,0.27667 1.12448,0.25377 0.68571,-0.1245 0.89083,0.0936 0.89083,0.94706 0,1.08866 0.50677,1.26277 0.57756,0.19844 z m 4.13188,-1.96394 c 0.0546,-0.28745 -0.13011,-0.4835 -0.52679,-0.55928 -0.52049,-0.0994 -0.49843,-0.12202 0.14922,-0.15273 0.64408,-0.0305 0.70977,-0.0966 0.43063,-0.4329 -0.50498,-0.60847 -2.91042,-0.47573 -2.91042,0.1606 0,0.12995 0.32743,0.24382 0.72761,0.25304 0.69939,0.0161 0.70452,0.026 0.13229,0.25606 -0.32742,0.13161 -0.59531,0.42824 -0.59531,0.65919 0,0.62084 2.47334,0.44534 2.59277,-0.18398 z m -30.72848,1.17019 c -0.3649,-1.34596 -0.43315,-1.98288 -0.2785,-2.59906 0.25393,-1.01174 0.55586,-0.45546 0.76444,1.40844 0.12071,1.07866 0.0902,1.65364 -0.0877,1.65364 -0.15001,0 -0.32923,-0.20836 -0.39827,-0.46302 z m 33.32221,-0.56999 c 0.50064,-0.84751 1.0781,-1.13849 0.79493,-0.40056 -0.0883,0.23019 -0.1606,0.46412 -0.1606,0.51986 0,0.0557 -0.25159,0.23599 -0.55908,0.40056 -0.55804,0.29865 -0.55818,0.29768 -0.0752,-0.51986 z m -29.52307,-1.94355 c 0.003,-0.76398 0.18101,-1.98437 0.39601,-2.711978 l 0.3909,-1.322917 -0.13142,1.293699 c -0.0723,0.711536 -0.13142,1.931926 -0.13142,2.711976 0,0.78006 -0.11907,1.41828 -0.26459,1.41828 -0.14552,0 -0.26228,-0.62508 -0.25948,-1.38906 z m 28.26559,-0.96851 c -1.44807,-1.42919 -1.69591,-2.080423 -1.27597,-3.35285 0.17056,-0.516788 0.24523,-1.004487 0.16594,-1.083775 -0.0793,-0.07929 -0.66896,0.285876 -1.31039,0.811477 -1.2063,0.988476 -2.03777,1.228017 -2.03777,0.587071 0,-0.46375 -0.64935,-0.725252 -1.25677,-0.506119 -0.25466,0.09187 -1.02347,0.683447 -1.70846,1.314613 -1.3174,1.213883 -1.80528,1.378653 -2.30377,0.778013 -0.52991,-0.638509 -1.31528,-0.193305 -1.51238,0.85732 -0.14681,0.78257 -0.21405,0.86225 -0.36612,0.43387 -0.10245,-0.28861 -0.0245,-0.98621 0.17332,-1.550208 0.19778,-0.563998 0.3596,-1.359563 0.3596,-1.76792 0,-0.523802 0.23494,-0.909765 0.79774,-1.310511 0.43876,-0.312424 0.9776,-0.915844 1.19742,-1.340933 0.29853,-0.577307 0.58874,-0.772891 1.14682,-0.772891 0.41092,0 1.27107,-0.355021 1.91143,-0.788936 1.53681,-1.041352 3.03579,-1.08202 4.1867,-0.113586 0.65883,0.554365 0.81405,0.886503 0.81405,1.74184 0,1.208301 0.60509,1.315863 0.74518,0.132465 0.0461,-0.38896 0.19663,-0.7072 0.33462,-0.7072 0.42808,0 1.29921,1.678499 1.30451,2.513542 0.006,0.950636 0.35991,1.589157 0.74784,1.349403 0.58591,-0.362114 1.08173,1.540415 0.67659,2.596185 -0.22523,0.58694 -0.63374,0.2507 -0.63374,-0.52162 0,-0.35521 -0.11906,-0.64584 -0.26458,-0.64584 -0.14552,0 -0.26641,0.44648 -0.26863,0.99218 -0.007,1.61713 -0.2827,1.67741 -1.62318,0.35441 z m -26.89619,-0.68514 c 0.005,-0.43656 0.0647,-0.58312 0.13177,-0.32569 0.0671,0.25743 0.0627,0.61462 -0.01,0.79375 -0.0725,0.17913 -0.12737,-0.0315 -0.12197,-0.46806 z"
         style="fill:#000000;stroke-width:0.26458335" />
      <g
         transform="translate(-62.766479,-17.638521)"
         inkscape:label="Layer 1"
         id="layer1-4">
        <g
           id="layer1-9"
           inkscape:label="Layer 1"
           transform="translate(39.489698,70.454221)">
          <path
             style="display:inline;opacity:0.119;fill:#000000;stroke-width:0.26458335;filter:url(#filter928)"
             d="m 118.33354,170.30597 c -2.471,-3.15265 -5.29202,-7.2443 -4.87702,-11.37131 0.97034,-5.45565 -0.6319,-10.82693 -1.50829,-16.16874 -0.6316,-2.12036 -1.22273,-7.75478 -1.69829,-2.17818 -1.08574,5.29924 -0.73169,10.66049 -0.0132,15.98097 2.09812,6.23969 -5.87626,6.05923 -7.77248,10.55892 -4.875985,4.06399 -12.149902,-1.2052 -7.706175,-6.6555 4.983876,-2.00786 7.482625,-6.88375 4.988874,-11.96644 -1.282618,-5.64667 -2.435131,-11.38492 -2.065499,-17.20319 -1.306934,-6.0625 -2.834398,-12.09432 -3.035854,-18.3342 -0.600737,-4.76827 -1.194354,-9.56712 0.04714,-14.288472 0.002,-5.577681 2.910586,-11.002824 0.875429,-16.509659 -2.042021,-3.809127 -8.100507,3.51343 -12.158672,0.808177 -4.939634,-2.206408 -3.061077,-9.496309 -3.383934,-13.898834 -0.198399,-3.28938 1.602261,-6.634956 0.336816,-9.824307 -0.634962,-4.416215 -3.095898,-10.951466 2.413894,-13.103127 1.454976,-1.817051 4.756721,-2.029357 1.875203,0.232575 -0.827323,-1.090394 -2.120417,2.616661 -3.164733,1.319921 -1.237203,3.695729 0.01441,7.914404 1.039349,11.590424 0.209701,3.051876 -0.959244,6.210786 -0.886419,9.336451 0.172579,4.262066 -1.63044,12.845582 5.125535,12.040019 3.372663,0.01149 7.770823,-4.792917 9.815603,-3.55522 1.35528,5.347159 2.215005,10.624944 0.305804,15.9374 -0.127583,5.187429 -2.195942,10.233522 -0.911456,15.420452 0.492153,6.27325 0.99949,12.56043 2.882503,18.59906 1.106568,5.4179 -0.03101,11.09975 1.784122,16.45858 0.44143,4.43942 3.73932,9.79191 0.1201,13.63322 -2.268789,2.27228 -8.58878,4.97429 -4.123215,8.56088 3.721025,0.81943 5.900865,-2.59788 7.790685,-4.89539 5.52676,-0.0114 4.51102,-5.44101 3.72846,-9.33325 -1.22818,-6.56318 1.44034,-13.0287 0.76471,-19.57114 -1.91029,-5.6038 -0.23201,-11.65402 -0.57343,-17.47784 -0.096,-2.00449 0.556,-6.55144 1.6143,-2.043 2.02984,5.871 0.8071,12.34453 2.97896,18.17544 -1.30915,5.46995 1.01153,10.7017 1.55497,16.08729 1.25942,4.43753 1.00524,9.05825 0.29504,13.56552 2.81128,2.19295 2.68595,10.29812 8.01449,6.9827 2.27357,-1.72789 0.65484,-3.85041 -0.25821,-5.75458 -0.99836,-2.21497 -2.51616,-4.31261 -2.0322,-6.86242 0.34508,-7.49172 3.49264,-15.02371 1.12943,-22.50645 -1.11465,-5.47525 -0.1821,-11.06565 0.98429,-16.43989 3.87591,-4.35199 3.35662,-10.53274 4.65611,-16.001321 1.33846,-5.268691 2.25259,-10.696411 0.73366,-16.030815 -0.47381,-5.386265 -0.86022,-10.867866 -2.01753,-16.095967 -1.39817,-5.633201 -7.85711,-4.206649 -10.96656,-8.274807 -3.84997,-4.953505 5.09389,-10.359671 0.52882,-15.370603 -1.97875,-4.339712 -6.83552,-5.483726 -10.58434,-2.755047 -4.12268,3.049541 -4.17813,8.570444 -1.34866,12.691961 3.35822,4.601156 -1.17399,8.574511 -5.631007,9.216086 -4.287915,-0.203168 -6.418057,8.145043 -9.889998,5.7076 -0.759642,-4.607675 -0.346154,-9.67406 2.69976,-13.395952 1.722857,-1.535281 2.993643,-5.317506 -0.54834,-2.890836 -4.14134,2.093213 0.202837,-7.130636 -3.67323,-7.25606 2.987308,-1.903556 3.570104,4.74146 3.777737,6.345867 5.785024,-1.68814 3.624484,4.654019 1.184944,7.098341 -2.090373,2.212564 -2.875578,7.87174 -1.23762,9.277509 2.334967,-5.233091 8.693221,-4.879101 12.481404,-8.325898 0.28073,-5.029315 -5.053405,-9.964626 -1.99709,-15.290393 2.53942,-3.635694 8.0642,-6.95525 12.33864,-4.325272 4.18759,2.346041 6.80182,7.916245 4.58186,12.450258 -4.49696,4.648562 0.18484,9.628398 5.33455,10.256442 5.40583,2.275142 5.11367,8.888595 5.9575,13.759371 0.29449,4.719274 0.87934,9.403395 1.50826,14.077846 -0.18508,6.652155 -2.56953,13.02183 -2.99458,19.66614 -1.45334,5.16355 -4.74229,9.51356 -4.77692,15.16994 -0.82715,5.84094 2.41797,11.42327 1.25291,17.29665 -0.14958,5.23496 -2.82416,10.44754 -1.44187,15.64991 2.07884,3.80286 5.57599,10.89027 -0.99638,12.35038 -1.07855,0.0933 -2.21484,0.0837 -3.22867,-0.34819 z m -7.57337,-40.046 c -0.10557,-2.36242 -1.33246,-5.20732 -0.98561,-1.17191 0.13469,2.78233 2.08796,7.01963 0.98561,1.17191 z m 10.45889,-29.83929 c -0.50282,-4.782154 -1.29282,-9.446105 -1.66805,-14.26344 -0.39017,-3.306816 2.06335,-3.944437 2.23705,-0.3547 0.2317,5.318125 1.43973,10.792204 0.24694,16.0746 -0.71831,1.06331 -0.77309,-1.30062 -0.81594,-1.45646 z"
             id="path839"
             inkscape:connector-curvature="0" />
        </g>
      </g>
    </g>
  </g>
</svg>
