<?xml version="1.0" encoding="UTF-8" standalone="no"?>
<!-- Created with Inkscape (http://www.inkscape.org/) -->

<svg
   xmlns:dc="http://purl.org/dc/elements/1.1/"
   xmlns:cc="http://creativecommons.org/ns#"
   xmlns:rdf="http://www.w3.org/1999/02/22-rdf-syntax-ns#"
   xmlns:svg="http://www.w3.org/2000/svg"
   xmlns="http://www.w3.org/2000/svg"
   xmlns:sodipodi="http://sodipodi.sourceforge.net/DTD/sodipodi-0.dtd"
   xmlns:inkscape="http://www.inkscape.org/namespaces/inkscape"
   width="210mm"
   height="297mm"
   viewBox="0 0 210 297"
   version="1.1"
   id="svg8"
   sodipodi:docname="drawing2.svg"
   inkscape:version="0.92.3 (2405546, 2018-03-11)">
  <defs
     id="defs2">
    <filter
       height="1.0166688"
       y="-0.0083343902"
       width="1.0428432"
       x="-0.021421586"
       id="filter928"
       style="color-interpolation-filters:sRGB"
       inkscape:collect="always">
      <feGaussianBlur
         id="feGaussianBlur930"
         stdDeviation="0.45745283"
         inkscape:collect="always" />
    </filter>
    <filter
       inkscape:collect="always"
       style="color-interpolation-filters:sRGB"
       id="filter848"
       x="-0.042827513"
       width="1.085655"
       y="-0.016671152"
       height="1.0333423">
      <feGaussianBlur
         inkscape:collect="always"
         stdDeviation="0.91461766"
         id="feGaussianBlur850" />
    </filter>
  </defs>
  <sodipodi:namedview
     id="base"
     pagecolor="#ffffff"
     bordercolor="#666666"
     borderopacity="1.0"
     inkscape:pageopacity="0.0"
     inkscape:pageshadow="2"
     inkscape:zoom="0.98994949"
     inkscape:cx="131.0815"
     inkscape:cy="680.42687"
     inkscape:document-units="mm"
     inkscape:current-layer="layer1"
     showgrid="false"
     inkscape:window-width="1366"
     inkscape:window-height="705"
     inkscape:window-x="-8"
     inkscape:window-y="-8"
     inkscape:window-maximized="1" />
  <metadata
     id="metadata5">
    <rdf:RDF>
      <cc:Work
         rdf:about="">
        <dc:format>image/svg+xml</dc:format>
        <dc:type
           rdf:resource="http://purl.org/dc/dcmitype/StillImage" />
        <dc:title></dc:title>
      </cc:Work>
    </rdf:RDF>
  </metadata>
  <g
     inkscape:label="Layer 1"
     inkscape:groupmode="layer"
     id="layer1">
    <path
       style="fill:#000000;stroke-width:0.26458335"
       d="m 44.138587,174.53755 c -0.320808,-0.35727 -0.970241,-1.06827 -1.443184,-1.57999 -0.728747,-0.7885 -0.859895,-1.12992 -0.859895,-2.2386 0,-1.21592 -0.07669,-1.36894 -1.087131,-2.16922 -1.037595,-0.8218 -1.079024,-0.91021 -0.909259,-1.94047 0.09783,-0.59369 0.27278,-2.62725 0.388781,-4.51902 0.187635,-3.05996 0.144637,-3.7608 -0.389572,-6.35 -0.330266,-1.60073 -0.683101,-3.68432 -0.784074,-4.63021 -0.100976,-0.94588 -0.455142,-2.67229 -0.787035,-3.83645 -0.8592,-3.01377 -1.03723,-5.06828 -0.659617,-7.61216 0.28027,-1.88812 0.267311,-2.31096 -0.09754,-3.18242 -0.491836,-1.17478 -0.831892,-3.63327 -1.361461,-9.84293 -0.348094,-4.08167 -0.909849,-6.80218 -1.884857,-9.12812 -0.431147,-1.02852 -0.704866,1.69026 -0.785633,7.80341 -0.04805,3.63703 -0.220342,7.1671 -0.382868,7.84459 -0.259143,1.08022 -0.215312,1.48741 0.356188,3.30908 0.959583,3.05871 1.066824,4.39978 0.612534,7.65984 -0.221046,1.58627 -0.607221,4.34272 -0.858168,6.12545 -0.450474,3.2002 -0.448337,3.30933 0.168391,8.59896 0.659924,5.66009 0.698453,6.94507 0.225338,7.51514 -0.160626,0.19354 -1.141444,0.60338 -2.179595,0.91074 -1.038152,0.30736 -2.046092,0.68812 -2.239868,0.84613 -0.193776,0.15801 -0.689488,0.95522 -1.101583,1.77157 -0.753008,1.49171 -1.544266,2.10963 -2.725734,2.12863 -0.320575,0.005 -0.88052,0.17953 -1.244322,0.3875 -1.046629,0.59831 -2.504316,0.49328 -3.358683,-0.24201 -0.631303,-0.54331 -0.739075,-0.83028 -0.720408,-1.91823 0.0128,-0.74573 0.256003,-1.73397 0.583097,-2.36933 0.471217,-0.91532 0.749755,-1.13749 1.738054,-1.38635 0.93863,-0.23635 1.510664,-0.65848 2.825404,-2.085 0.906672,-0.98376 1.811395,-2.17199 2.010494,-2.64051 0.458608,-1.07918 0.214777,-2.92691 -1.24927,-9.4669 -1.409587,-6.29672 -1.917776,-10.23147 -1.693066,-13.10888 0.183889,-2.3547 -0.05962,-3.75256 -1.864622,-10.70362 -0.353163,-1.36003 -0.689242,-3.62941 -0.783663,-5.29167 -0.09092,-1.60073 -0.407715,-5.05354 -0.703977,-7.67292 -0.551751,-4.87826 -0.52332,-6.87868 0.124129,-8.73379 0.202665,-0.58068 0.450531,-2.74605 0.550813,-4.81193 0.143285,-2.951792 0.321636,-4.165722 0.832848,-5.668752 0.818018,-2.40507 0.820161,-3.96385 0.0102,-7.42113 -0.352171,-1.503236 -0.717926,-3.417767 -0.812787,-4.254512 -0.09486,-0.836744 -0.260694,-1.521354 -0.368519,-1.521354 -0.107824,0 -0.518376,0.336444 -0.912339,0.747652 -0.736922,0.769181 -2.181433,1.490401 -5.864998,2.928295 -2.270496,0.886296 -3.648514,1.000138 -5.6885426,0.469947 L 7.5719654,86.948571 7.1015294,85.096487 C 6.180517,81.470513 6.210753,77.004174 7.2083504,69.317025 7.5205424,66.911382 7.5057984,66.656259 6.948405,64.819108 6.596825,63.660313 6.234627,61.410544 6.054133,59.264404 5.774844,55.943556 5.788243,55.600132 6.222979,54.93664 c 0.345209,-0.526855 0.550975,-0.641915 0.765077,-0.427813 0.4923634,0.492363 0.9010384,0.330402 1.2417344,-0.49211 0.457271,-1.10395 0.960289,-1.480867 1.4423649,-1.08078 0.310127,0.257383 0.4580127,0.165614 0.8005447,-0.496769 0.485554,-0.938957 1.074365,-1.058072 1.283174,-0.259584 0.109449,0.418534 0.277636,0.51066 0.692112,0.37911 0.811911,-0.25769 1.076407,0.732171 1.081157,4.046163 0.005,3.477671 0.168888,3.835289 1.315576,2.870414 2.074625,-1.74568 4.301112,-0.910629 2.435433,0.913418 -0.435284,0.42557 -1.050901,1.325774 -1.368037,2.000452 -0.317136,0.674677 -0.938305,1.676767 -1.380375,2.226864 -1.070095,1.331589 -1.526948,3.417525 -1.530207,6.986732 -0.0027,2.91756 0.323303,4.894792 0.806956,4.894792 0.533366,0 3.037983,-1.924333 3.386795,-2.602124 0.923176,-1.79386 3.532233,-3.629956 5.737336,-4.037592 0.969524,-0.179226 2.113444,-0.674339 3.268329,-1.414601 0.977212,-0.626378 2.044077,-1.223715 2.370811,-1.327416 1.430762,-0.454106 1.50699,-4.30306 0.118472,-5.981886 -0.188626,-0.228063 -0.71176,-1.418688 -1.162521,-2.645833 -0.450761,-1.227146 -0.9399,-2.558596 -1.086976,-2.958778 -0.184468,-0.501926 -0.177317,-0.986044 0.02306,-1.560836 0.159757,-0.458278 0.290467,-1.270884 0.290467,-1.805791 0,-0.643064 0.185537,-1.145109 0.547644,-1.481872 0.301204,-0.280122 0.807219,-0.792575 1.124479,-1.138784 0.317259,-0.346208 0.839314,-0.911755 1.160121,-1.256771 0.321352,-0.345601 0.888271,-0.6273 1.262445,-0.6273 0.373536,0 1.123087,-0.290409 1.665671,-0.645354 1.951106,-1.276365 3.066153,-1.219303 4.820848,0.246703 0.610788,0.5103 1.259401,0.927817 1.44136,0.927817 0.516345,0 1.045226,0.735498 2.38447,3.315999 l 1.240351,2.389958 -0.438618,1.181917 c -0.241239,0.650055 -0.528701,1.690319 -0.638802,2.311698 -0.110104,0.621378 -0.4528,1.398674 -0.76155,1.727325 -0.791118,0.842104 -1.373003,2.657783 -1.373003,4.284229 0,1.676163 0.446866,2.326739 2.686953,3.911852 0.868703,0.614706 1.946814,1.385539 2.395799,1.71296 0.515824,0.376164 1.196369,0.595313 1.848681,0.595313 1.93785,0 3.303563,1.146129 4.729107,3.96875 0.753671,1.49229 0.877176,2.021533 0.93364,4.000802 0.03579,1.254553 0.256485,2.921428 0.49044,3.704167 0.260815,0.872614 0.480917,2.907276 0.56896,5.259615 0.08611,2.300552 0.347668,4.749932 0.653341,6.118172 0.680122,3.04434 0.636751,5.80449 -0.147079,9.359962 -0.915554,4.15298 -1.902654,9.90011 -2.208726,12.85976 -0.29704,2.87229 -1.234713,5.12279 -2.662698,6.39072 -0.672137,0.5968 -0.822987,0.93401 -0.828543,1.85209 -0.0079,1.29742 -0.822314,5.09453 -1.273638,5.93784 -0.186251,0.34801 -0.30707,1.88033 -0.30707,3.89445 0,2.76324 0.111829,3.70659 0.666155,5.61945 1.316341,4.54242 1.157036,9.66688 -0.553898,17.81757 -0.370099,1.76311 -0.638103,3.93287 -0.637275,5.15938 0.0013,2.08319 0.03099,2.1773 1.870964,5.95114 2.057604,4.2202 2.118447,4.64969 0.887352,6.26374 -0.370002,0.48509 -0.897766,0.88199 -1.172814,0.88199 -0.275047,0 -0.573672,0.11906 -0.663609,0.26458 -0.31908,0.51629 -1.726986,0.28336 -2.327129,-0.38499 z m 1.438592,-0.0701 c -0.539208,-0.10233 -0.602096,-0.22771 -0.463021,-0.92308 0.08851,-0.44257 0.160933,-0.95662 0.160933,-1.14233 0,-0.18572 0.357187,-0.004 0.79375,0.40381 0.436563,0.40781 0.79375,0.8723 0.79375,1.03219 0,0.1599 0.119062,0.29072 0.264583,0.29072 0.409856,0 0.320353,-0.27381 -0.396875,-1.21414 -0.746752,-0.97904 -0.853559,-1.4888 -0.264583,-1.26279 0.251312,0.0964 0.396875,-0.004 0.396875,-0.27288 0,-0.23386 0.119062,-0.42519 0.264583,-0.42519 0.145521,0 0.264584,0.16015 0.264584,0.35587 0,0.19573 0.238125,0.57137 0.529166,0.83476 0.291042,0.26339 0.529167,0.35595 0.529167,0.20569 0,-0.15025 -0.178594,-0.42141 -0.396875,-0.60257 -0.218281,-0.18115 -0.396875,-0.50613 -0.396875,-0.72216 0,-0.24044 0.153932,-0.33372 0.396875,-0.24049 0.218281,0.0838 0.396875,0.0965 0.396875,0.0284 0,-0.0682 -0.715145,-1.62358 -1.589212,-3.45649 -1.101003,-2.3088 -1.751245,-3.37495 -2.116667,-3.47051 -0.629457,-0.16461 -0.668342,-0.42366 -0.130579,-0.86997 0.285292,-0.23677 0.396875,-0.86306 0.396875,-2.22759 0,-1.04402 0.245853,-3.02374 0.546338,-4.39938 1.022646,-4.6817 1.624478,-9.73227 1.448816,-12.15844 -0.221668,-3.06155 -0.618096,-5.1931 -1.231853,-6.62357 -0.454937,-1.06032 -0.485605,-1.4597 -0.264104,-3.43951 0.137829,-1.23195 0.203835,-2.28667 0.146677,-2.34383 -0.05716,-0.0571 -0.28539,0.0467 -0.507188,0.23077 -0.688369,0.57129 -0.496689,-0.79192 0.376402,-2.67697 0.797769,-1.72242 1.758474,-6.05223 1.495142,-6.73847 -0.09577,-0.24958 -0.35832,-0.32868 -0.757976,-0.22837 -0.882092,0.22139 -2.046004,-0.29058 -2.046004,-0.89997 0,-0.2794 0.341669,-1.32415 0.759267,-2.32165 0.708964,-1.69349 1.224208,-3.79802 0.929854,-3.79802 -0.07133,0 -0.567735,0.29766 -1.10312,0.66146 -1.118631,0.76013 -1.956366,0.8408 -2.551477,0.24569 -0.607341,-0.60735 -0.52845,-0.84471 0.624829,-1.88004 0.572331,-0.51379 1.231834,-1.4121 1.465559,-1.99624 0.233728,-0.58413 0.706027,-1.43497 1.049557,-1.89074 l 0.624602,-0.82867 -0.346575,-3.57187 c -0.369763,-3.81084 -0.521118,-4.44969 -1.171517,-4.94484 -0.34232,-0.2606 -0.356491,-0.40761 -0.08254,-0.8563 0.446797,-0.731807 0.415967,-2.290182 -0.102761,-5.194302 -0.422929,-2.3678 -0.419706,-2.4723 0.132291,-4.28963 0.431282,-1.41991 0.565783,-2.55684 0.565783,-4.782591 0,-1.605931 -0.09717,-2.979928 -0.215932,-3.053329 -0.118764,-0.0734 -0.68431,0.03341 -1.256771,0.237355 -1.278109,0.45534 -6.024838,0.515273 -7.285212,0.09199 -0.494657,-0.16613 -1.109631,-0.483952 -1.366605,-0.706274 -0.420076,-0.363432 -0.500181,-0.360852 -0.79375,0.02556 -0.575183,0.757063 -1.74023,0.982763 -5.072981,0.982763 -3.501572,0 -5.065457,-0.349644 -6.159027,-1.377 -0.330991,-0.310952 -0.677865,-0.489302 -0.77083,-0.396335 -0.259867,0.259865 0.373055,4.673324 1.101193,7.678781 0.815492,3.36602 0.814555,4.11094 -0.0082,6.52997 -0.804235,2.36455 -0.812366,2.6472 -0.102128,3.550125 0.582881,0.741017 0.507101,1.070977 -0.247275,1.076707 -0.373682,0.003 -0.468979,0.4031 -0.599238,2.51693 -0.08519,1.38245 -0.418945,3.43303 -0.741676,4.55685 -0.543305,1.89192 -0.565231,2.2448 -0.295904,4.7625 0.159984,1.49556 0.342054,2.89778 0.404599,3.11607 0.06255,0.21828 0.300237,2.81175 0.528203,5.76327 0.471429,6.10368 0.976609,8.23599 2.237428,9.44393 0.973379,0.93255 1.021534,1.30984 0.138908,1.08831 -0.363802,-0.0913 -0.661458,-0.11007 -0.661458,-0.0417 0,0.71787 0.74331,3.29137 1.363328,4.72014 0.776575,1.78953 0.805158,2.63676 0.06833,2.02525 -0.316695,-0.26284 -0.373321,0.0534 -0.373321,2.08467 0,3.11677 0.341667,5.51482 1.590616,11.16404 0.563013,2.54662 1.171982,5.6603 1.353263,6.91929 l 0.329603,2.28907 -0.802607,1.81197 c -0.607406,1.37128 -0.92343,1.80062 -1.299395,1.7653 -0.273234,-0.0257 -1.060212,0.48034 -1.748841,1.12448 -0.688628,0.64413 -1.449626,1.17114 -1.691106,1.17114 -0.338051,0 -0.405395,0.16739 -0.292739,0.72761 0.120017,0.59682 -0.029,0.88646 -0.829052,1.6114 l -0.975367,0.88379 1.268622,-0.70345 c 1.542925,-0.85556 2.326498,-0.72922 0.870858,0.14042 -0.569536,0.34025 -0.89718,0.66475 -0.728098,0.72111 0.169083,0.0564 0.708652,-0.1455 1.199042,-0.44858 1.28656,-0.79513 1.368677,-0.68685 0.381079,0.50252 -0.501534,0.60399 -1.110046,1.0556 -1.426051,1.05833 -0.735468,0.006 -0.964497,0.27452 -0.604718,0.70803 0.437232,0.52683 1.667473,0.43011 2.214266,-0.17409 0.263389,-0.29104 0.787858,-0.53079 1.165487,-0.53278 1.424204,-0.007 1.808313,-0.29799 2.809794,-2.12497 0.548462,-1.00055 1.351038,-2.18109 1.783502,-2.62342 0.826458,-0.84533 1.781842,-1.07117 1.781842,-0.42123 0,0.32638 0.144812,0.3329 0.979057,0.0441 0.71697,-0.24822 1.032679,-0.53946 1.179369,-1.08796 0.110173,-0.41195 0.152072,-0.82706 0.09311,-0.92246 -0.150654,-0.24377 -0.848352,-6.10843 -1.201883,-10.10269 -0.255238,-2.88377 -0.241043,-3.4378 0.101685,-3.96875 0.431948,-0.66918 0.655148,-3.09144 0.332904,-3.61284 -0.109408,-0.17703 0.04766,-1.0344 0.349043,-1.90527 0.643896,-1.86059 0.711317,-4.42375 0.176189,-6.6982 -0.540681,-2.29806 -0.951137,-2.50097 -0.951137,-0.47021 0,1.21172 -0.08967,1.63292 -0.33073,1.55348 -0.597841,-0.19702 -0.538043,-2.68354 0.11116,-4.62216 0.545592,-1.62922 0.609322,-2.38247 0.689168,-8.14524 0.04839,-3.4925 0.111355,-7.12391 0.139922,-8.06979 0.05107,-1.69085 0.03979,-1.72119 -0.669845,-1.80295 -1.322271,-0.15234 -1.791759,-1.1419 -1.791759,-3.77657 v -2.33315 l -0.910547,-0.43209 c -1.137379,-0.53972 -1.533973,-1.14256 -2.508671,-3.8133 -0.426895,-1.16972 -1.022834,-2.47316 -1.32431,-2.89655 -0.650143,-0.91304 -0.675881,-1.08497 -0.162417,-1.08497 0.510401,0 1.533965,1.82766 2.239891,3.99953 0.462834,1.42396 0.838669,2.00795 2.014399,3.13007 l 1.445405,1.37949 v 2.17483 c 0,2.24933 0.223248,2.80983 1.119172,2.80983 0.450183,0 0.444391,-0.0538 -0.08251,-0.76648 -0.505712,-0.68401 -0.546373,-0.96867 -0.377942,-2.64583 0.103804,-1.03365 0.282977,-1.87936 0.398158,-1.87936 0.395915,0 0.529974,0.8386 0.362226,2.26588 -0.11906,1.01302 -0.06523,1.55366 0.184695,1.8548 0.590211,0.71116 1.041976,-0.20651 0.859626,-1.74616 -0.175139,-1.47877 0.05268,-2.63909 0.518178,-2.63914 0.386305,-5e-5 0.293783,4.3347 -0.108709,5.09327 -0.181899,0.34281 -0.144283,0.46302 0.144891,0.46302 0.651206,0 0.781418,-0.52749 0.720127,-2.9172 -0.04641,-1.80939 0.0284,-2.36125 0.357045,-2.634 0.547518,-0.4544 0.783852,-0.18759 0.426042,0.48099 -0.176625,0.33002 -0.221295,1.27762 -0.117893,2.50085 0.139131,1.64593 0.08552,2.10657 -0.326342,2.80379 -0.541737,0.91709 -0.618556,0.4016 0.850879,5.70961 0.200043,0.7226 0.54121,3.58747 0.75815,6.36635 0.486664,6.23391 0.692626,7.34519 1.749314,9.43848 0.965565,1.91277 2.089893,4.80549 2.089893,5.37696 0,0.60513 -0.472551,0.46113 -0.670988,-0.20448 -0.09762,-0.32742 -0.481812,-1.286 -0.853768,-2.13016 -0.854554,-1.93943 -1.111639,-1.6044 -1.117026,1.45568 -0.0047,2.66489 0.36376,4.66606 1.135004,6.16459 0.409977,0.79658 0.531498,1.48366 0.491355,2.77812 -0.06245,2.01382 0.238271,3.30647 0.769877,3.30931 0.314063,0.002 0.377838,0.85019 0.377838,5.02708 0,4.99128 0.0049,5.03378 0.727604,6.32125 0.663676,1.18229 0.727604,1.5373 0.727604,4.04057 0,2.66492 0.019,2.75305 0.656373,3.04345 0.361006,0.16448 0.732764,0.54888 0.826133,0.85422 0.283477,0.92705 0.660069,1.21831 1.526452,1.18059 0.669592,-0.0292 0.708436,-0.0586 0.203547,-0.15445 z M 31.647716,161.65957 c 0.200586,-2.85715 0.264432,-3.13645 0.623284,-2.72668 0.367453,0.4196 -0.03966,5.21455 -0.454369,5.35154 -0.298278,0.0985 -0.327853,-0.36101 -0.168915,-2.62486 z m 8.514135,-22.12505 c -0.06456,-0.10914 -0.202094,-0.73422 -0.305622,-1.38906 -0.103532,-0.65484 -0.355391,-1.45433 -0.559689,-1.77663 -0.515681,-0.81355 -0.489871,-2.19212 0.04104,-2.19212 0.226869,0 0.339751,0.11769 0.250851,0.26153 -0.0889,0.14385 0.08267,0.81383 0.381262,1.48884 0.298593,0.67503 0.542896,1.56518 0.542896,1.97812 0,0.48002 0.190852,0.85295 0.529167,1.03401 0.291041,0.15576 0.529166,0.39807 0.529166,0.53847 0,0.29883 -1.236424,0.3487 -1.409073,0.0568 z m 2.996573,-0.3904 c 0,-0.69896 0.652794,-1.75698 0.919494,-1.49028 0.253873,0.25388 -0.23508,1.89508 -0.600919,2.01702 -0.189191,0.0631 -0.318575,-0.15086 -0.318575,-0.52674 z m 0.387882,-3.44023 c -0.210693,-0.54906 0.349073,-2.58551 0.710692,-2.58551 0.188764,0 0.222509,0.42268 0.100327,1.25677 -0.203715,1.39068 -0.561998,1.97768 -0.811019,1.32874 z M 26.87903,134.90431 c -0.10002,-0.47294 -0.411021,-1.23742 -0.691112,-1.69884 -0.530682,-0.87424 -0.278068,-1.4472 0.320223,-0.7263 0.188655,0.22731 0.801663,0.64729 1.362241,0.93327 1.012781,0.51669 1.15395,1.19718 0.184526,0.88949 -0.424275,-0.13466 -0.5069,-0.0286 -0.5069,0.6507 0,1.07187 -0.438777,1.04017 -0.668978,-0.0483 z m 9.673212,-25.2677 c 0.0046,-0.10915 0.416806,-0.60484 0.915968,-1.10154 0.942523,-0.93788 2.371387,-3.47542 3.176726,-5.64159 0.472283,-1.27033 1.065008,-2.00345 1.371774,-1.69669 0.09263,0.0926 -0.02455,0.55609 -0.260432,1.0299 -0.235863,0.47381 -0.911492,1.92328 -1.501394,3.22104 -0.69954,1.53896 -1.443217,2.71217 -2.138354,3.37344 -1.008261,0.95914 -1.583055,1.25877 -1.564288,0.81544 z M 32.045924,98.883128 c 0,-0.4136 0.712769,-0.77104 1.08221,-0.54272 0.505642,0.31251 0.229176,0.91129 -0.420751,0.91129 -0.388996,0 -0.661459,-0.15182 -0.661459,-0.36857 z m -4.662037,-4.71002 c -0.108428,-0.17544 -0.03408,-0.3675 0.168389,-0.43499 0.745446,-0.24848 1.522179,-1.31049 1.978232,-2.7048 1.153788,-3.527529 1.493543,-4.222304 2.258112,-4.617679 0.837583,-0.433131 2.109388,-0.527918 2.109388,-0.15721 0,0.129746 -0.327422,0.317167 -0.727605,0.416488 -1.248595,0.309896 -1.87802,1.171726 -2.598811,3.558361 -0.808714,2.67777 -1.174486,3.3133 -2.217311,3.85257 -0.584954,0.30249 -0.824087,0.324 -0.970394,0.0873 z m 11.188853,-0.54381 c -0.354124,-0.47294 -1.078164,-1.87144 -1.608974,-3.10777 -0.530812,-1.23634 -1.312963,-2.680745 -1.738116,-3.20979 -0.903407,-1.12417 -0.772565,-1.495192 0.266388,-0.755391 0.49086,0.34952 1.132014,1.444982 1.969846,3.365621 0.68317,1.56609 1.531663,3.15335 1.885538,3.52724 0.584655,0.61772 0.615595,1.03999 0.0762,1.03999 -0.113861,0 -0.496758,-0.38695 -0.850884,-0.8599 z m 3.262768,74.287142 c 0,-0.57387 -0.816663,-2.5189 -1.057617,-2.5189 -0.113524,0 -0.288724,0.43878 -0.389331,0.97507 -0.155581,0.82931 -0.09077,1.04596 0.433572,1.44933 0.755431,0.58113 1.013376,0.60518 1.013376,0.0945 z m 4.175008,-47.6965 c 0.434822,-0.69123 0.992119,-1.88045 1.238435,-2.64272 0.409517,-1.26732 0.811946,-1.86956 1.074103,-1.60741 0.153437,0.15344 -1.127588,3.56921 -1.620965,4.3222 -0.236238,0.36054 -0.311348,0.65553 -0.166907,0.65553 0.452726,0 0.890929,-0.72324 1.478918,-2.44093 0.46165,-1.3486 0.686919,-1.67688 1.200531,-1.7495 0.549151,-0.0776 0.609735,-0.008 0.460954,0.52917 -0.514582,1.85816 -0.504867,1.97934 0.08466,1.05592 0.689703,-1.08033 1.071092,-2.97047 1.071092,-5.30825 0,-1.0716 0.515588,-4.26731 1.322917,-8.19966 1.459124,-7.107162 1.565605,-8.644812 0.817165,-11.800302 -0.276124,-1.16417 -0.576559,-3.66448 -0.667628,-5.556251 -0.206468,-4.288925 -0.377447,-5.688541 -0.694915,-5.688541 -0.136604,0 -0.248372,0.238125 -0.248372,0.529166 0,0.291042 -0.135486,0.529167 -0.301078,0.529167 -0.219117,0 -0.237889,-0.55821 -0.06897,-2.050521 0.509744,-4.503129 0.232272,-5.855444 -1.682133,-8.198273 -1.367693,-1.673765 -2.357187,-2.186623 -4.218811,-2.186623 -1.700173,0 -2.084033,-0.158378 -1.65036,-0.680922 0.286264,-0.344927 0.171183,-0.455148 -2.73042,-2.615148 -1.453563,-1.082054 -1.631844,-1.132525 -1.442471,-0.40836 0.07607,0.290896 0.0302,0.595717 -0.101929,0.677379 -0.369342,0.228267 -0.768416,-1.094205 -0.768416,-2.546424 0,-0.71813 -0.07779,-1.305692 -0.172873,-1.305692 -0.09508,0 -0.802328,0.595313 -1.571662,1.322917 -1.040419,0.983986 -1.62315,1.335314 -2.274523,1.371306 -1.736338,0.09594 -2.466041,-0.07882 -3.178286,-0.761195 -0.536643,-0.514137 -0.75149,-0.597478 -0.828522,-0.321394 -0.506157,1.814061 -0.621228,1.964617 -2.163567,2.830768 -3.319733,1.864305 -3.145885,2.27055 0.862871,2.016355 3.438377,-0.218027 3.601976,0.212504 0.247519,0.651372 -1.750253,0.228988 -2.675369,0.242241 -3.192225,0.04573 -1.043702,-0.396815 -3.202252,-0.340996 -4.283475,0.110768 -1.283954,0.536471 -3.198444,1.948453 -3.718912,2.742788 -0.401165,0.612256 -0.401314,0.685909 -0.002,0.977919 0.650173,0.475416 0.552794,0.58053 -0.95719,1.033211 -0.763984,0.229036 -1.787899,0.782206 -2.275366,1.229265 -0.853347,0.782611 -0.876041,0.853911 -0.610305,1.917448 0.44706,1.789245 0.685622,5.205656 0.363501,5.205656 -0.310293,0 -0.476637,-0.677992 -0.746524,-3.042708 -0.09965,-0.873125 -0.512446,-2.747349 -0.917325,-4.164944 -0.713154,-2.496958 -0.729157,-2.691122 -0.512447,-6.217709 0.2485,-4.043919 0.522646,-5.12027 1.601065,-6.286098 0.403831,-0.436562 0.929021,-1.27 1.167088,-1.852083 0.238067,-0.582083 0.790272,-1.504818 1.227122,-2.050521 l 0.794273,-0.992187 h -0.666171 c -0.428606,0 -1.117115,0.428783 -1.930697,1.202383 -0.695489,0.661311 -1.708557,1.436385 -2.251262,1.722387 -1.017427,0.536174 -1.791399,1.667431 -1.791399,2.618341 0,0.796717 -0.436261,0.660322 -0.7479707,-0.23385 -0.25331,-0.726645 -0.189326,-0.849007 1.0030547,-1.918229 0.700493,-0.628141 1.513242,-1.320668 1.806109,-1.538949 0.501371,-0.373684 0.524263,-0.609462 0.391757,-4.034896 -0.0774,-2.000911 -0.226189,-3.638021 -0.330639,-3.638021 -0.104451,0 -0.297278,1.041797 -0.428506,2.315104 l -0.238596,2.315105 -0.926042,0.04069 c -0.509323,0.02238 -1.1789207,0.121638 -1.4879937,0.220572 -0.5008699,0.160329 -0.5810619,0.05245 -0.7377659,-0.992535 -0.0967,-0.644829 -0.04813,-1.742151 0.107919,-2.438493 0.354105,-1.580087 0.142673,-1.863725 -0.407583,-0.546776 -0.378754,0.906486 -0.583267,3.4554 -0.348515,4.343665 0.0527,0.199397 -0.261375,0.565579 -0.697937,0.813737 -0.454422,0.258311 -0.8326324,0.718044 -0.8847034,1.075401 -0.147801,1.014345 0.4764704,3.666564 1.2197344,5.182051 0.576367,1.17519 0.640645,1.510171 0.386646,2.014976 -0.946438,1.880973 -1.6569364,13.131693 -0.88781,14.058434 0.185116,0.223051 0.300864,0.740193 0.257217,1.149204 -0.101373,0.94996 0.268671,3.203028 0.555145,3.380079 0.120328,0.07437 1.031336,0.250285 2.0244596,0.390927 2.162971,0.306316 2.932813,0.0361 5.871851,-2.061049 2.089516,-1.490972 2.567438,-1.659689 2.29817,-0.8113 -0.435948,1.373551 1.820906,-0.77811 2.772385,-2.643163 0.391385,-0.767176 0.46162,-1.327378 0.346395,-2.762846 -0.127796,-1.592072 -0.232057,-1.865262 -0.900448,-2.359424 -0.415754,-0.30738 -0.755916,-0.66094 -0.755916,-0.785688 0,-0.313505 1.938973,0.06974 2.178761,0.430638 0.106912,0.160912 0.19899,1.066472 0.204618,2.012357 0.0081,1.365557 0.158827,1.987823 0.731656,3.021066 0.874604,1.577575 1.78089,1.965986 5.110716,2.190319 2.885103,0.194368 4.542276,-0.055 5.46518,-0.822399 0.769167,-0.639564 1.211477,-0.6228 2.012259,0.07627 0.37361,0.326158 1.213922,0.450446 3.545941,0.524473 4.10524,0.130318 4.863618,-0.111154 5.580142,-1.776756 0.303556,-0.705636 0.691462,-1.866051 0.862015,-2.578701 0.170553,-0.71265 0.349641,-1.444556 0.397975,-1.626457 0.133702,-0.503179 0.633654,-0.394605 0.633654,0.13761 0,0.257585 -0.23853,1.329102 -0.530067,2.381144 -0.477303,1.722408 -0.505798,2.261775 -0.286266,5.41864 0.297702,4.280938 1.078405,7.414188 2.126134,8.532918 1.032777,1.10278 1.40847,1.92433 1.221198,2.67048 -0.226378,0.90195 -0.630307,0.78953 -0.728298,-0.2027 -0.0456,-0.46174 -0.247298,-0.89357 -0.448217,-0.95962 -0.304509,-0.10011 -0.331227,0.40292 -0.160531,3.02233 0.112628,1.728335 0.176948,5.025152 0.142933,7.326242 l -0.06184,4.1838 -1.19748,1.1038 c -0.660202,0.60855 -1.465691,1.71027 -1.795264,2.4555 -0.334582,0.75654 -0.963123,1.61184 -1.42753,1.94253 -0.456359,0.32495 -0.761786,0.70078 -0.678725,0.83518 0.286101,0.46292 1.161803,0.24253 2.028809,-0.5106 1.386893,-1.20473 1.942742,-1.42461 2.352688,-0.93065 0.291555,0.3513 0.279567,0.47037 -0.07334,0.72842 -0.232029,0.16967 -0.557363,0.96045 -0.722966,1.75731 -0.165605,0.79685 -0.596228,2.08547 -0.956942,2.86359 -0.5553,1.19787 -0.654944,1.89253 -0.271468,1.89253 0.049,0 0.44486,-0.56555 0.879684,-1.25677 z M 25.365195,82.032102 c -0.753505,-0.43809 -0.580202,-1.085287 0.264584,-0.988084 0.51155,0.05886 0.727604,0.234302 0.727604,0.590838 0,0.612982 -0.367826,0.760251 -0.992188,0.397246 z m 16.536458,0.111032 c -0.448823,-0.181105 -0.419002,-0.865838 0.04547,-1.044075 0.206909,-0.0794 0.631317,-0.0078 0.943126,0.159049 0.454218,0.243089 0.504486,0.378637 0.252859,0.681831 -0.320492,0.38617 -0.653084,0.440608 -1.241457,0.203195 z M 19.345924,80.084406 c 0,-0.440373 0.99246,-1.205627 1.563581,-1.205627 0.257405,0 0.13219,0.266491 -0.372956,0.79375 -0.835972,0.872567 -1.190625,0.995254 -1.190625,0.411877 z m 15.08125,-1.85147 c 0,-0.461113 0.43383,-0.767225 0.782196,-0.551923 0.352145,0.217638 0.03498,0.933183 -0.413628,0.933183 -0.202711,0 -0.368568,-0.171567 -0.368568,-0.38126 z m 0.004,-2.066136 c 0.0021,-0.181901 0.121291,-0.509323 0.264584,-0.727605 0.222094,-0.33832 0.295957,-0.34186 0.500636,-0.024 0.132057,0.205084 0.178851,0.532505 0.103984,0.727604 -0.171844,0.44782 -0.874633,0.46722 -0.869204,0.024 z m -9.672219,-3.655624 c -0.09592,-0.155202 -0.132712,-0.30403 -0.08176,-0.330729 0.05095,-0.0267 0.372124,-0.205621 0.713717,-0.397605 0.809645,-0.455041 1.048408,-0.193962 0.438724,0.479731 -0.540357,0.597088 -0.815781,0.661038 -1.070681,0.248603 z m 18.540632,-0.237125 c -0.260945,-0.288342 -0.397692,-0.707671 -0.307459,-0.942813 0.182597,-0.475845 0.695415,-0.284995 0.695415,0.258806 0,0.194124 0.178594,0.421485 0.396875,0.505249 0.218281,0.08376 0.396875,0.275093 0.396875,0.425183 0,0.450263 -0.679434,0.308578 -1.181706,-0.246425 z m -9.754404,-1.244578 c -0.323988,-0.323988 -0.181494,-0.617361 0.29986,-0.617361 0.261937,0 0.617141,-0.140891 0.789339,-0.31309 0.456325,-0.456325 0.67809,-0.08786 0.334039,0.555013 -0.285361,0.533202 -1.060897,0.737781 -1.423238,0.375438 z m 4.643527,-0.481239 c -0.914305,-0.181482 -1.73782,-0.405415 -1.830035,-0.497628 -0.414624,-0.414624 0.321786,-0.498529 1.870651,-0.21314 0.925523,0.170535 2.29412,0.310063 3.041328,0.310063 1.323445,0 1.783143,0.309622 0.94004,0.63315 -0.60639,0.232695 -2.119045,0.145273 -4.021984,-0.232445 z M 33.567231,69.15732 c -0.400183,-0.2504 -0.727605,-0.606289 -0.727605,-0.790865 0,-0.399514 0.429909,-0.445666 0.661459,-0.07101 0.327019,0.529129 0.854117,0.239827 1.694092,-0.929819 0.471766,-0.656922 0.97009,-1.124977 1.107387,-1.040122 0.282861,0.174818 -0.346792,1.351716 -1.346271,2.516337 -0.651216,0.758815 -0.672724,0.7637 -1.389062,0.315479 z m 14.463686,51.62051 c 0.139348,-0.36314 0.100631,-0.3795 -0.236276,-0.0999 -0.459116,0.38104 -0.506899,0.5342 -0.166656,0.5342 0.129953,0 0.311272,-0.19544 0.402932,-0.4343 z m -0.812543,-12.33185 c 0.194844,-0.78077 0.205472,-5.71218 0.02267,-10.517202 -0.118387,-3.11182 -0.275857,-4.25075 -0.833688,-6.02987 -0.378251,-1.20637 -0.777693,-2.09934 -0.887648,-1.98437 -0.109956,0.11497 -0.365927,0.78599 -0.568823,1.49116 -0.325358,1.13078 -0.312327,1.66173 0.110392,4.49792 0.263613,1.76868 0.410059,3.54341 0.325438,3.943825 -0.08462,0.400427 0.02622,1.293397 0.246295,1.984387 0.220086,0.69099 0.473943,2.26837 0.564126,3.5053 0.198416,2.72133 0.372951,3.70416 0.657799,3.70416 0.118182,0 0.281731,-0.26789 0.363442,-0.59531 z M 36.87457,63.565476 c 1.853962,-1.89137 2.242831,-2.836613 1.230358,-2.990691 l -0.555578,-0.08455 0.590304,-0.747337 c 0.325133,-0.411627 0.650111,-1.277944 0.723442,-1.928545 0.126167,-1.119336 0.0769,-1.229345 -0.940453,-2.100165 -0.66656,-0.570551 -1.143246,-1.243743 -1.257311,-1.775621 -0.265514,-1.238062 -0.341921,-1.29467 -1.087823,-0.805935 -0.580234,0.380182 -0.840561,0.397217 -1.868546,0.122273 -1.163206,-0.31111 -1.222957,-0.296567 -2.288609,0.557084 -1.165292,0.933466 -2.438953,1.783454 -2.672412,1.783454 -0.07788,0 -0.141601,-0.178594 -0.141601,-0.396875 0,-0.218281 -0.119062,-0.396875 -0.264583,-0.396875 -0.145521,0 -0.26276,0.148828 -0.260532,0.330729 0.0056,0.454225 0.401653,1.041434 0.686988,1.018473 0.129251,-0.0104 0.253863,0.604508 0.276914,1.366465 0.04207,1.390497 0.582987,3.986453 1.088075,5.221833 0.148741,0.363802 0.756042,1.184065 1.349558,1.822806 1.053635,1.133923 1.108954,1.157382 2.342494,0.993398 1.123548,-0.149361 1.461045,-0.369605 3.049315,-1.989923 z m -3.96875,0.563816 c -0.627594,-0.211161 -0.328525,-0.596347 0.463021,-0.596347 0.436562,0 0.79375,0.105176 0.79375,0.233725 0,0.284574 -0.801449,0.51582 -1.256771,0.362622 z M 31.238591,62.85512 c -0.347319,-0.418492 0.48479,-0.636775 2.445363,-0.641479 1.395532,-0.0033 2.289826,0.38235 1.487594,0.641581 -0.911606,0.294573 -3.688459,0.294501 -3.932957,-1.02e-4 z m 0.164459,-1.882691 c -0.09635,-0.251099 0.0062,-0.620423 0.236279,-0.850447 0.365738,-0.36574 0.406595,-0.347727 0.406595,0.179267 0,0.519736 0.137184,0.585863 1.215396,0.585863 0.99288,0 1.240729,-0.09688 1.353775,-0.529167 0.175201,-0.669967 0.504452,-0.680823 0.676658,-0.02231 0.210363,0.804433 -0.321236,1.080645 -2.079813,1.080645 -1.289502,0 -1.674852,-0.09455 -1.80889,-0.443849 z m 1.121868,-1.606671 c -0.07094,-0.857125 -0.172162,-0.993412 -0.743577,-1.001181 -2.168537,-0.02948 -2.960903,-1.154937 -0.859896,-1.221371 l 1.256771,-0.03974 -1.190625,-0.158699 c -1.479601,-0.197217 -1.554594,-0.661069 -0.123907,-0.766402 1.710026,-0.1259 2.417911,0.945635 2.280473,3.451974 -0.05923,1.080046 -0.524404,0.881289 -0.619239,-0.264583 z m 2.210618,-1.553062 c 0.109831,-0.570045 1.221451,-0.892938 2.036331,-0.591495 0.974823,0.360611 0.5105,0.88011 -0.866389,0.969342 -1.07615,0.06974 -1.245634,0.015 -1.169942,-0.377847 z m -0.308362,-1.145564 c 0,-0.599262 2.406902,-0.752343 2.87931,-0.183127 0.24539,0.295676 0.01659,0.363388 -1.290518,0.381922 -0.873837,0.01239 -1.588792,-0.07707 -1.588792,-0.198795 z M 7.0470064,57.481161 C 6.946484,56.516778 6.771958,55.630998 6.65917,55.512763 c -0.373441,-0.391478 -0.537595,1.40202 -0.250744,2.739559 0.413024,1.925865 0.8630544,1.3824 0.6385804,-0.771161 z M 40.73328,57.71857 c 0.117628,-0.790915 -0.364143,-0.479 -0.91979,0.595503 l -0.430757,0.832989 0.631076,-0.417067 C 40.3609,58.500608 40.68466,58.045467 40.73328,57.71857 Z M 10.881139,56.852216 c 0.001,-0.472943 0.06358,-1.693334 0.138988,-2.711979 0.08737,-1.180246 0.05246,-1.66013 -0.09624,-1.322917 -0.380273,0.86237 -0.909806,4.06246 -0.743812,4.495031 0.271325,0.707063 0.69912,0.426283 0.701059,-0.460135 z m 29.362818,-1.852084 c 0.0022,-0.545703 0.123113,-0.992187 0.268634,-0.992187 0.145521,0 0.264583,0.357187 0.264583,0.79375 0,0.848175 0.36798,1.066258 0.633151,0.375235 0.446175,-1.162712 0.07779,-2.435886 -0.801526,-2.770205 -0.481373,-0.183017 -0.625602,-0.437278 -0.626364,-1.104211 -0.001,-0.913624 -0.857745,-2.586236 -1.324653,-2.586236 -0.151299,0 -0.346524,0.357188 -0.433837,0.79375 -0.224904,1.124525 -0.621771,0.985084 -0.621771,-0.218463 0,-0.712654 -0.176178,-1.172681 -0.595312,-1.554437 -1.476947,-1.345236 -2.453341,-1.380062 -4.244017,-0.151372 -0.551577,0.378471 -1.443855,0.759809 -1.982841,0.847419 -0.717407,0.116611 -1.071354,0.349955 -1.321042,0.87091 -0.187589,0.391391 -0.694295,0.963138 -1.126013,1.270548 -0.431718,0.307411 -0.784941,0.762999 -0.784941,1.012418 0,0.24942 -0.16855,1.103268 -0.374556,1.897441 -0.215583,0.831091 -0.28147,1.610288 -0.155237,1.835853 0.159285,0.284627 0.268621,0.129097 0.399433,-0.568188 0.196774,-1.048898 0.950363,-1.482478 1.475945,-0.84919 0.502389,0.605342 0.98979,0.433677 2.33121,-0.821064 0.950542,-0.889122 1.483678,-1.190625 2.105329,-1.190625 0.563574,0 0.832459,0.128191 0.832459,0.396875 0,0.682878 0.917678,0.435741 2.081694,-0.560613 0.615233,-0.526618 1.180698,-0.895397 1.256588,-0.819509 0.07589,0.07589 -0.0063,0.619655 -0.182718,1.208369 -0.254156,0.848298 -0.251302,1.237926 0.01376,1.877843 0.183954,0.444098 0.415044,0.807452 0.513535,0.807452 0.09849,0 0.59001,0.405429 1.092269,0.900954 1.027819,1.014042 1.299826,0.867752 1.30624,-0.702517 z M 11.855392,54.074091 c -0.06655,-0.254662 -0.121,-0.0463 -0.121,0.463021 0,0.509322 0.05445,0.717682 0.121,0.46302 0.06655,-0.254661 0.06655,-0.67138 0,-0.926041 z"
       id="path826"
       inkscape:connector-curvature="0" />
    <g
       id="layer1-7"
       inkscape:label="Layer 1"
       transform="translate(-75.05902,6.437786)"
       style="filter:url(#filter848)">
      <path
         style="display:inline;opacity:0.119;fill:#000000;stroke-width:0.26458335;filter:url(#filter928)"
         d="m 118.33354,170.30597 c -2.471,-3.15265 -5.29202,-7.2443 -4.87702,-11.37131 0.97034,-5.45565 -0.6319,-10.82693 -1.50829,-16.16874 -0.6316,-2.12036 -1.22273,-7.75478 -1.69829,-2.17818 -1.08574,5.29924 -0.73169,10.66049 -0.0132,15.98097 2.09812,6.23969 -5.87626,6.05923 -7.77248,10.55892 -4.875985,4.06399 -12.149902,-1.2052 -7.706175,-6.6555 4.983876,-2.00786 7.482625,-6.88375 4.988874,-11.96644 -1.282618,-5.64667 -2.435131,-11.38492 -2.065499,-17.20319 -1.306934,-6.0625 -2.834398,-12.09432 -3.035854,-18.3342 -0.600737,-4.76827 -1.194354,-9.56712 0.04714,-14.288472 0.002,-5.577681 2.910586,-11.002824 0.875429,-16.509659 -2.042021,-3.809127 -8.100507,3.51343 -12.158672,0.808177 -4.939634,-2.206408 -3.061077,-9.496309 -3.383934,-13.898834 -0.198399,-3.28938 1.602261,-6.634956 0.336816,-9.824307 -0.634962,-4.416215 -3.095898,-10.951466 2.413894,-13.103127 1.454976,-1.817051 4.756721,-2.029357 1.875203,0.232575 -0.827323,-1.090394 -2.120417,2.616661 -3.164733,1.319921 -1.237203,3.695729 0.01441,7.914404 1.039349,11.590424 0.209701,3.051876 -0.959244,6.210786 -0.886419,9.336451 0.172579,4.262066 -1.63044,12.845582 5.125535,12.040019 3.372663,0.01149 7.770823,-4.792917 9.815603,-3.55522 1.35528,5.347159 2.215005,10.624944 0.305804,15.9374 -0.127583,5.187429 -2.195942,10.233522 -0.911456,15.420452 0.492153,6.27325 0.99949,12.56043 2.882503,18.59906 1.106568,5.4179 -0.03101,11.09975 1.784122,16.45858 0.44143,4.43942 3.73932,9.79191 0.1201,13.63322 -2.268789,2.27228 -8.58878,4.97429 -4.123215,8.56088 3.721025,0.81943 5.900865,-2.59788 7.790685,-4.89539 5.52676,-0.0114 4.51102,-5.44101 3.72846,-9.33325 -1.22818,-6.56318 1.44034,-13.0287 0.76471,-19.57114 -1.91029,-5.6038 -0.23201,-11.65402 -0.57343,-17.47784 -0.096,-2.00449 0.556,-6.55144 1.6143,-2.043 2.02984,5.871 0.8071,12.34453 2.97896,18.17544 -1.30915,5.46995 1.01153,10.7017 1.55497,16.08729 1.25942,4.43753 1.00524,9.05825 0.29504,13.56552 2.81128,2.19295 2.68595,10.29812 8.01449,6.9827 2.27357,-1.72789 0.65484,-3.85041 -0.25821,-5.75458 -0.99836,-2.21497 -2.51616,-4.31261 -2.0322,-6.86242 0.34508,-7.49172 3.49264,-15.02371 1.12943,-22.50645 -1.11465,-5.47525 -0.1821,-11.06565 0.98429,-16.43989 3.87591,-4.35199 3.35662,-10.53274 4.65611,-16.001321 1.33846,-5.268691 2.25259,-10.696411 0.73366,-16.030815 -0.47381,-5.386265 -0.86022,-10.867866 -2.01753,-16.095967 -1.39817,-5.633201 -7.85711,-4.206649 -10.96656,-8.274807 -3.84997,-4.953505 5.09389,-10.359671 0.52882,-15.370603 -1.97875,-4.339712 -6.83552,-5.483726 -10.58434,-2.755047 -4.12268,3.049541 -4.17813,8.570444 -1.34866,12.691961 3.35822,4.601156 -1.17399,8.574511 -5.631007,9.216086 -4.287915,-0.203168 -6.418057,8.145043 -9.889998,5.7076 -0.759642,-4.607675 -0.346154,-9.67406 2.69976,-13.395952 1.722857,-1.535281 2.993643,-5.317506 -0.54834,-2.890836 -4.14134,2.093213 0.202837,-7.130636 -3.67323,-7.25606 2.987308,-1.903556 3.570104,4.74146 3.777737,6.345867 5.785024,-1.68814 3.624484,4.654019 1.184944,7.098341 -2.090373,2.212564 -2.875578,7.87174 -1.23762,9.277509 2.334967,-5.233091 8.693221,-4.879101 12.481404,-8.325898 0.28073,-5.029315 -5.053405,-9.964626 -1.99709,-15.290393 2.53942,-3.635694 8.0642,-6.95525 12.33864,-4.325272 4.18759,2.346041 6.80182,7.916245 4.58186,12.450258 -4.49696,4.648562 0.18484,9.628398 5.33455,10.256442 5.40583,2.275142 5.11367,8.888595 5.9575,13.759371 0.29449,4.719274 0.87934,9.403395 1.50826,14.077846 -0.18508,6.652155 -2.56953,13.02183 -2.99458,19.66614 -1.45334,5.16355 -4.74229,9.51356 -4.77692,15.16994 -0.82715,5.84094 2.41797,11.42327 1.25291,17.29665 -0.14958,5.23496 -2.82416,10.44754 -1.44187,15.64991 2.07884,3.80286 5.57599,10.89027 -0.99638,12.35038 -1.07855,0.0933 -2.21484,0.0837 -3.22867,-0.34819 z m -7.57337,-40.046 c -0.10557,-2.36242 -1.33246,-5.20732 -0.98561,-1.17191 0.13469,2.78233 2.08796,7.01963 0.98561,1.17191 z m 10.45889,-29.83929 c -0.50282,-4.782154 -1.29282,-9.446105 -1.66805,-14.26344 -0.39017,-3.306816 2.06335,-3.944437 2.23705,-0.3547 0.2317,5.318125 1.43973,10.792204 0.24694,16.0746 -0.71831,1.06331 -0.77309,-1.30062 -0.81594,-1.45646 z"
         id="path839"
         inkscape:connector-curvature="0" />
    </g>
  </g>
</svg>
