<?xml version="1.0" encoding="UTF-8" standalone="no"?>
<!-- Created with Inkscape (http://www.inkscape.org/) -->

<svg
   xmlns:dc="http://purl.org/dc/elements/1.1/"
   xmlns:cc="http://creativecommons.org/ns#"
   xmlns:rdf="http://www.w3.org/1999/02/22-rdf-syntax-ns#"
   xmlns:svg="http://www.w3.org/2000/svg"
   xmlns="http://www.w3.org/2000/svg"
   xmlns:sodipodi="http://sodipodi.sourceforge.net/DTD/sodipodi-0.dtd"
   xmlns:inkscape="http://www.inkscape.org/namespaces/inkscape"
   width="210mm"
   height="297mm"
   viewBox="0 0 210 297"
   version="1.1"
   id="svg8"
   inkscape:version="0.92.3 (2405546, 2018-03-11)"
   sodipodi:docname="p_woman_black.svg">
  <defs
     id="defs2">
    <filter
       inkscape:collect="always"
       style="color-interpolation-filters:sRGB"
       id="filter72"
       x="-0.065635701"
       width="1.1312714"
       y="-0.024801621"
       height="1.0496032">
      <feGaussianBlur
         inkscape:collect="always"
         stdDeviation="1.2724479"
         id="feGaussianBlur74" />
    </filter>
    <filter
       height="1.0165344"
       y="-0.0082672074"
       width="1.0437571"
       x="-0.021878565"
       id="filter100"
       style="color-interpolation-filters:sRGB"
       inkscape:collect="always">
      <feGaussianBlur
         id="feGaussianBlur102"
         stdDeviation="0.42414928"
         inkscape:collect="always" />
    </filter>
    <filter
       inkscape:collect="always"
       style="color-interpolation-filters:sRGB"
       id="filter299"
       x="-0.065635695"
       width="1.1312714"
       y="-0.024801622"
       height="1.0496032">
      <feGaussianBlur
         inkscape:collect="always"
         stdDeviation="1.2724478"
         id="feGaussianBlur301" />
    </filter>
  </defs>
  <sodipodi:namedview
     id="base"
     pagecolor="#ffffff"
     bordercolor="#666666"
     borderopacity="1.0"
     inkscape:pageopacity="0.0"
     inkscape:pageshadow="2"
     inkscape:zoom="0.78691102"
     inkscape:cx="92.28539"
     inkscape:cy="1020.239"
     inkscape:document-units="mm"
     inkscape:current-layer="layer1"
     showgrid="false"
     inkscape:window-width="1366"
     inkscape:window-height="705"
     inkscape:window-x="-8"
     inkscape:window-y="-8"
     inkscape:window-maximized="1" />
  <metadata
     id="metadata5">
    <rdf:RDF>
      <cc:Work
         rdf:about="">
        <dc:format>image/svg+xml</dc:format>
        <dc:type
           rdf:resource="http://purl.org/dc/dcmitype/StillImage" />
        <dc:title></dc:title>
      </cc:Work>
    </rdf:RDF>
  </metadata>
  <g
     inkscape:label="Layer 1"
     inkscape:groupmode="layer"
     id="layer1"
     style="display:inline">
    <path
       style="fill:#000000;stroke-width:0.26458335"
       d="m 47.174889,122.80705 c -0.478485,-0.40018 -1.101733,-0.85587 -1.384993,-1.01265 -0.779645,-0.4315 -1.39927,-1.38266 -2.218955,-3.40619 -0.408577,-1.00866 -0.873553,-1.87748 -1.033277,-1.93072 -0.175778,-0.0586 -0.234227,0.11804 -0.148079,0.44747 0.173413,0.66314 -0.343181,0.72094 -1.183431,0.1324 -0.367583,-0.25746 -0.588039,-0.6873 -0.588039,-1.14653 0,-1.03787 0.296619,-1.20927 0.872291,-0.50403 0.446866,0.54743 0.481838,0.55512 0.355158,0.0781 -0.739388,-2.78439 -2.619586,-6.8528 -7.776265,-16.826401 -0.628348,-1.215296 -0.947965,-2.248746 -1.052703,-3.403803 -0.145613,-1.605872 -0.132305,-1.65291 0.418267,-1.478163 0.312769,0.09927 0.568669,0.109108 0.568669,0.02188 0,-0.413047 -0.835959,-2.084354 -1.43614,-2.87123 -1.20214,-1.576086 -2.725616,-5.263052 -3.84651,-9.308936 -0.604738,-2.182812 -1.761981,-5.516563 -2.571652,-7.408333 -1.850636,-4.323954 -2.729353,-6.874426 -2.727893,-7.917697 7.41e-4,-0.538234 0.357535,-1.283634 1.054271,-2.202616 0.702947,-0.927174 0.923067,-1.389063 0.661979,-1.389063 -0.410572,0 -1.84952,1.8117 -2.122785,2.672681 -0.324066,1.021043 -0.992246,0.447754 -3.423436,-2.937264 -1.550748,-2.159154 -3.733397,-4.432216 -3.999961,-4.16565 -0.09183,0.09183 0.422797,0.798782 1.143624,1.570998 0.720828,0.772215 1.829458,2.177933 2.463624,3.123819 0.634165,0.945885 1.682299,2.286574 2.329186,2.979309 1.359308,1.455647 1.231252,-0.05463 1.037338,12.234233 -0.106775,6.766684 -0.166475,7.543689 -0.689273,8.971108 -0.613934,1.676241 -0.735078,2.935634 -0.307789,3.199712 0.157139,0.09712 0.264583,-0.212534 0.264583,-0.762521 0,-1.188254 0.448055,-1.469324 0.813262,-0.51017 0.64701,1.699263 0.780656,3.418539 0.509927,6.559902 -0.150706,1.7487 -0.377652,5.175225 -0.504322,7.614485 -0.126671,2.43926 -0.343025,4.58239 -0.480787,4.7625 -0.242698,0.3173 -0.243867,5.14009 -0.0013,5.38265 0.0662,0.0662 0.271811,-0.62741 0.456913,-1.54136 l 0.336549,-1.66173 0.38804,0.92449 c 0.213423,0.50847 0.449807,1.30511 0.525299,1.77031 0.120393,0.7419 0.02766,0.91264 -0.754721,1.38963 -0.927583,0.5655 -1.69617,0.72619 -1.432446,0.29947 0.08372,-0.13546 0.04075,-0.31519 -0.09549,-0.39939 -0.382539,-0.23642 -1.267407,1.0566 -1.764847,2.57889 -0.669451,2.0487 -1.099632,2.77254 -1.763483,2.96734 -0.329017,0.0965 -1.113118,0.41756 -1.742445,0.71337 -0.855282,0.40202 -1.220262,0.46181 -1.445308,0.23676 -0.225046,-0.22504 -0.05302,-0.50554 0.68121,-1.11075 0.54025,-0.44533 0.982279,-0.94084 0.982279,-1.10113 0,-0.16029 -0.275565,-0.0326 -0.612365,0.28385 -0.819213,0.76961 -1.137024,0.72947 -0.60869,-0.0769 0.66295,-1.01179 0.507757,-1.10893 -0.410956,-0.25724 l -0.838261,0.7771 0.599874,-0.99966 c 0.480909,-0.80141 0.536262,-1.0763 0.279115,-1.38615 -0.176417,-0.21257 -0.426331,-0.32124 -0.555363,-0.24149 -0.129032,0.0797 -0.234604,0.0149 -0.234604,-0.14413 0,-0.15902 0.41406,-0.53342 0.920133,-0.83201 0.506072,-0.2986 1.345281,-1.12207 1.864909,-1.82994 0.610364,-0.83148 1.080713,-1.23488 1.328825,-1.13967 0.645458,0.24769 0.497194,-3.46349 -0.258715,-6.47588 -1.96675,-7.837725 -3.329423,-15.389259 -2.949184,-16.343519 0.192347,-0.482719 0.219624,-0.478676 0.606036,0.08984 0.465023,0.684178 0.869246,0.776457 0.869246,0.198438 0,-0.218281 0.187871,-0.396875 0.417492,-0.396875 0.297771,0 0.153559,-0.308346 -0.502898,-1.07527 -1.005418,-1.174604 -1.498493,-2.833245 -0.944113,-3.175873 0.249421,-0.154149 0.06476,-0.785471 -0.74325,-2.541045 -1.821215,-3.956979 -4.246497,-12.231817 -4.717089,-16.094271 -0.1082524,-0.888497 0.0261,-2.235198 0.409125,-4.101042 0.313668,-1.527969 0.714277,-4.510715 0.89024,-6.628326 0.353502,-4.254156 0.651856,-5.118039 2.543312,-7.364169 1.592089,-1.890628 2.105435,-3.26448 2.112203,-5.652818 l 0.0058,-2.050521 h 0.804291 c 0.945017,0 2.556359,-0.768466 3.27308,-1.560967 0.783596,-0.866447 0.393891,-0.867627 -0.893943,-0.0027 -1.420569,0.954063 -2.110636,1.145746 -3.312822,0.920215 -0.730948,-0.137125 -1.063508,-0.417978 -1.620645,-1.368663 -0.589837,-1.00648 -0.676718,-1.400992 -0.547955,-2.488197 0.08416,-0.710634 0.345539,-1.664343 0.580833,-2.119352 0.273747,-0.529368 0.36637,-1.107004 0.257204,-1.604034 -0.204172,-0.929587 -0.655073,-0.76875 -0.660693,0.235675 -0.0022,0.391594 -0.175559,1.188238 -0.385262,1.770322 -0.209703,0.582083 -0.386504,1.569093 -0.392891,2.193353 -0.01111,1.085937 0.736613,3.007717 1.307522,3.36056 0.417831,0.258234 0.325141,1.246746 -0.440954,4.702631 -0.507576,2.289696 -0.960848,3.617468 -1.593689,4.668406 -1.113774,1.849604 -1.331283,2.692599 -1.542216,5.977133 -0.09345,1.455209 -0.471261,4.244158 -0.839573,6.197667 -0.6452824,3.422547 -0.6753824,4.502388 -0.1904664,6.833063 0.112237,0.539448 0.07498,0.859896 -0.09999,0.859896 -0.153394,0 -0.414412,-0.652767 -0.580041,-1.450594 -0.165628,-0.797827 -0.412194,-1.51923 -0.547925,-1.603116 -0.64053,-0.39587 0.124873,2.869533 0.932844,3.979752 1.0098254,1.38758 1.0354854,1.615313 0.07453,0.661458 -0.513114,-0.509323 -1.291781,-1.620475 -1.730371,-2.469224 l -0.797437,-1.543193 0.702972,-1.499523 0.702973,-1.499527 0.150432,-8.73125 0.150432,-8.73125 1.009054,-2.645833 1.0090544,-2.645834 0.175288,-5.688542 c 0.222145,-7.209166 0.433544,-7.725934 3.760601,-9.192846 1.08693,-0.479232 1.272939,-0.49617 1.621458,-0.14765 0.329362,0.329362 0.777176,0.352427 2.740973,0.141175 l 2.347291,-0.252506 -1.719791,-0.06296 c -0.945886,-0.03463 -1.993665,-0.140389 -2.328398,-0.235024 -0.56843,-0.160705 -0.520851,-0.237563 0.720732,-1.164251 0.731136,-0.545704 1.451493,-0.992188 1.600793,-0.992188 0.149301,0 0.271456,-0.401836 0.271456,-0.892969 0,-0.491133 0.07441,-1.265039 0.165365,-1.719791 0.146468,-0.732341 0.26861,-0.826823 1.068873,-0.826823 0.896515,0 2.484634,-0.671941 3.833689,-1.622051 0.386266,-0.272039 0.769119,-0.494616 0.850783,-0.494616 0.08166,0 0.23021,0.625078 0.330102,1.389062 0.146658,1.121669 0.371616,1.580059 1.16861,2.38125 0.542844,0.545704 1.209356,0.996143 1.481138,1.000978 0.59297,0.01055 2.62343,1.366846 2.580602,1.72378 -0.04934,0.41117 -1.967843,0.871124 -3.724485,0.89293 -0.900917,0.01118 -1.711615,0.139396 -1.801552,0.284917 -0.265068,0.428889 2.909146,0.31228 4.73372,-0.1739 0.935502,-0.249276 1.951123,-0.361795 2.353679,-0.260761 1.142939,0.28686 2.498582,1.68008 3.383187,3.476966 0.786747,1.598111 0.840399,1.918413 1.181733,7.054968 0.196662,2.95947 0.611812,6.750071 0.922557,8.423561 0.755359,4.067915 0.593799,7.612001 -0.531871,11.66758 -0.439018,1.581695 -0.798213,3.255343 -0.798213,3.719219 0,0.463875 -0.187061,1.05011 -0.415693,1.302742 -0.37492,0.414285 -0.37619,0.575686 -0.01294,1.645603 0.837282,2.466154 0.880478,5.652561 0.06748,4.977833 -0.241811,-0.200683 -0.428803,-0.192185 -0.650555,0.02957 -0.238557,0.238551 -0.311211,0.202551 -0.311211,-0.154202 0,-1.063691 -0.490778,-0.05522 -0.657614,1.351288 -0.09928,0.837004 -0.474104,2.057609 -0.832935,2.712453 -0.645247,1.177538 -0.65024,1.180446 -0.454276,0.264583 0.254881,-1.19121 0.225245,-3.411911 -0.07238,-5.423959 l -0.234828,-1.5875 -0.468728,2.156429 c -0.257802,1.186037 -0.659024,2.31436 -0.891606,2.507385 -0.382767,0.317669 -0.408173,0.175873 -0.267846,-1.49497 0.264499,-3.149346 0.616559,-4.979041 1.169737,-6.07926 0.637754,-1.268439 1.297704,-8.598546 1.1851,-13.163021 -0.05909,-2.3954 -0.0069,-2.844271 0.330729,-2.844271 0.55948,0 0.509786,-0.293802 -0.369086,-2.182107 -0.93477,-2.008409 -1.229476,-3.473211 -1.650325,-8.20279 -0.28172,-3.165996 -0.383834,-3.63802 -0.787027,-3.63802 -0.720963,0 -0.738618,1.50572 -0.03381,2.883678 0.692531,1.353957 0.736769,2.004811 0.220279,3.240944 -0.466019,1.115341 -1.073612,1.659044 -2.289709,2.048939 -1.156054,0.370647 -2.893706,-0.150262 -3.983213,-1.194075 -0.403802,-0.386866 -0.771944,-0.560242 -0.866104,-0.407887 -0.25188,0.407551 1.613284,1.803913 2.885224,2.160034 1.398791,0.391639 2.541772,0.163177 3.588015,-0.717179 1.358098,-1.142765 1.356834,-0.900099 -0.01902,3.64707 l -0.606429,2.004234 1.296159,2.625974 1.296156,2.625976 -0.01797,4.894792 c -0.0168,4.573792 -0.05794,4.971979 -0.627473,6.071772 -0.583255,1.126295 -0.91087,2.76483 -1.247444,6.238939 -0.12033,1.242052 -0.0657,1.668812 0.24683,1.928188 0.334182,0.277347 0.494461,0.214747 0.957564,-0.373996 0.305914,-0.388903 0.556205,-0.869635 0.556205,-1.068293 0,-0.643432 0.513823,-0.382161 0.698939,0.355399 0.10914,0.434856 0.0071,1.202992 -0.259543,1.953742 -0.591527,1.665481 -0.562163,1.901889 0.316973,2.551861 l 0.75637,0.559208 0.764984,-0.707888 c 0.420741,-0.389339 0.961991,-1.005546 1.202778,-1.369348 0.85784,-1.296109 1.041344,-0.392224 1.268523,6.248397 0.158298,4.627148 0.33137,6.673557 0.646327,7.642228 0.236577,0.727605 0.506815,2.602839 0.600528,4.167188 0.09371,1.564349 0.271258,2.844271 0.394546,2.844271 0.123285,0 0.224158,-0.238125 0.224158,-0.529167 0,-0.905052 0.440663,-0.58402 0.998744,0.727604 0.848712,1.994678 1.575712,5.008042 1.899036,7.871358 0.988711,8.75589 1.401003,10.37737 3.428304,13.48288 0.686469,1.05157 1.403215,2.28636 1.592771,2.74398 0.189552,0.45762 0.451828,0.7658 0.582834,0.68483 0.131006,-0.081 0.169693,-0.25805 0.08597,-0.39351 -0.30375,-0.49148 0.330245,-0.23107 0.891222,0.36606 0.654595,0.69679 0.824704,1.51151 0.208878,1.00042 -0.292314,-0.2426 -0.400338,-0.1689 -0.534207,0.36448 -0.09229,0.36771 -0.284594,0.66857 -0.427342,0.66857 -0.411101,0 -0.301934,0.83753 0.17834,1.36823 0.240834,0.26612 0.314944,0.48385 0.164687,0.48385 -0.150257,0 -0.421412,-0.17859 -0.60257,-0.39687 -0.181157,-0.21828 -0.440888,-0.39688 -0.577178,-0.39688 -0.438454,0 0.06402,0.53264 1.148038,1.21695 0.864979,0.54603 0.998416,0.73517 0.739111,1.04761 -0.491345,0.59203 -1.471427,0.45213 -2.426113,-0.34633 z M 39.030615,90.940334 c 0,-0.37872 -0.467262,-0.227799 -0.633151,0.204501 -0.28925,0.753772 -0.151889,1.047428 0.24469,0.523103 0.213653,-0.282475 0.388461,-0.609897 0.388461,-0.727604 z m -2.996774,0.05691 c -0.364411,-0.433075 -0.741871,-1.14849 -0.838801,-1.589807 -0.09693,-0.44132 -0.276836,-0.740222 -0.399796,-0.664229 -0.341164,0.210852 0.181536,1.726153 0.835589,2.422359 0.846082,0.900612 1.183777,0.759568 0.403008,-0.168323 z M 18.911366,90.21755 c 0.279733,-0.522687 0.04779,-2.66623 -0.288505,-2.66623 -0.12636,0 -0.229746,0.581427 -0.229746,1.292058 0,1.115185 -0.08149,1.314392 -0.595312,1.455201 -0.47133,0.129167 -0.517654,0.213151 -0.222431,0.403254 0.466608,0.300466 1.024177,0.09835 1.335994,-0.484283 z m 7.683832,-28.330814 c 0,-0.145521 -0.112035,-0.264583 -0.248968,-0.264583 -0.136933,0 -0.322553,0.119062 -0.41249,0.264583 -0.08994,0.145521 0.0221,0.264583 0.248968,0.264583 0.22687,0 0.41249,-0.119062 0.41249,-0.264583 z m 2.328099,-5.376598 c 0.380575,-1.052462 0.392419,-1.237985 0.07903,-1.237985 -0.221316,0 -0.819633,1.380807 -0.819633,1.891564 0,0.546005 0.450626,0.148325 0.740599,-0.653579 z M 15.05112,55.153508 c -0.508883,-1.23735 -0.89209,-1.556385 -0.890349,-0.741251 0.0012,0.564269 1.026662,2.30169 1.235336,2.093015 0.08221,-0.08221 -0.07303,-0.690507 -0.344987,-1.351764 z m 6.252412,-2.234298 c 0,-0.582848 -0.552822,-0.869897 -1.065314,-0.553162 -0.293689,0.181513 -0.295394,0.292807 -0.0098,0.63698 0.47426,0.571449 1.075069,0.524607 1.075069,-0.08382 z m 7.672916,-6.539354 c 0,-0.216919 0.181652,-0.745673 0.40367,-1.17501 0.470762,-0.910354 0.08236,-1.053928 -0.520958,-0.192571 -0.455014,0.649621 -0.572728,2.188435 -0.147295,1.925502 0.145521,-0.08994 0.264583,-0.341 0.264583,-0.557921 z m -13.01674,-8.208503 c 0.04575,-0.319061 -0.09619,-0.626597 -0.330729,-0.716597 -0.249577,-0.09577 -0.410864,-0.01378 -0.410864,0.208859 0,0.201589 -0.140142,0.413237 -0.311428,0.470332 -0.465154,0.155051 0.02394,0.777099 0.534535,0.679839 0.241093,-0.04592 0.474412,-0.335019 0.518486,-0.642433 z m 14.28674,0.114549 c 0.354398,-0.354399 0.43579,-1.534583 0.105834,-1.534583 -0.409746,0 -0.846667,0.641728 -0.846667,1.243541 0,0.673103 0.257581,0.774296 0.740833,0.291042 z M 23.722509,26.545351 c 0.442859,-0.229012 0.735194,-0.486389 0.649633,-0.57195 -0.209865,-0.209866 -2.27486,0.485558 -2.27486,0.7661 0,0.349761 0.745679,0.260681 1.625227,-0.19415 z M 23.52896,25.043506 c 0.552524,-0.853143 1.5586,-3.646354 1.378306,-3.826648 -0.08366,-0.08366 -0.501816,0.627307 -0.92923,1.579933 -0.427414,0.952625 -0.98262,1.847051 -1.233791,1.987614 -0.25117,0.140562 -0.3734,0.390308 -0.27162,0.55499 0.282861,0.45768 0.631554,0.360008 1.056335,-0.295889 z M 21.568115,23.24907 c 0,-0.552562 -0.856865,-2.229739 -0.976855,-1.912037 -0.164623,0.435881 0.421993,2.185119 0.732791,2.185119 0.134235,0 0.244064,-0.122887 0.244064,-0.273082 z m -7.672916,94.46475 c 0,-0.14552 0.126089,-0.26458 0.280198,-0.26458 0.154109,0 0.206613,0.11906 0.116677,0.26458 -0.08994,0.14552 -0.216026,0.26459 -0.280199,0.26459 -0.06417,0 -0.116676,-0.11907 -0.116676,-0.26459 z M 34.532698,73.047062 c 0,-0.136392 0.291836,-1.006623 0.648526,-1.933845 0.526341,-1.368234 0.649377,-1.536311 0.653044,-0.892106 0.0024,0.436563 -0.170291,1.024866 -0.383942,1.307341 -0.213654,0.282474 -0.388461,0.721931 -0.388461,0.976572 0,0.25464 -0.119063,0.536567 -0.264583,0.626504 -0.145521,0.08994 -0.264584,0.05193 -0.264584,-0.08447 z M 23.441086,70.199064 c 0.0127,-0.308227 0.07539,-0.37092 0.159853,-0.159854 0.07643,0.190995 0.06703,0.419198 -0.02089,0.507119 -0.08792,0.08792 -0.150453,-0.06835 -0.138964,-0.347265 z m 13.789026,-0.507119 c 0.0054,-0.436563 0.06469,-0.583126 0.131773,-0.325695 0.06708,0.257432 0.06267,0.61462 -0.0098,0.79375 -0.07248,0.179131 -0.127363,-0.03149 -0.121971,-0.468055 z M 36.40567,68.876147 c 0.0127,-0.308227 0.07539,-0.37092 0.159851,-0.159853 0.07643,0.190994 0.06703,0.419197 -0.02088,0.507118 -0.08792,0.08792 -0.150452,-0.06835 -0.138964,-0.347265 z M 15.259892,42.572152 c 0,-0.363802 0.06005,-0.51263 0.133452,-0.330729 0.0734,0.181901 0.0734,0.479557 0,0.661458 -0.0734,0.181901 -0.133452,0.03307 -0.133452,-0.330729 z m 17.15614,-0.264583 c 0,-0.145521 0.119062,-0.264584 0.264583,-0.264584 0.145521,0 0.264583,0.119063 0.264583,0.264584 0,0.145521 -0.119062,0.264583 -0.264583,0.264583 -0.145521,0 -0.264583,-0.119062 -0.264583,-0.264583 z m -15.875,-17.54766 c 0,-0.04684 0.194662,-0.656461 0.432583,-1.35472 0.555018,-1.62889 0.361923,-4.089233 -0.522712,-6.66019 -0.632422,-1.837965 -0.639407,-1.946114 -0.296168,-4.585472 0.389824,-2.9975885 1.106164,-4.4772719 2.757236,-5.695394 1.032799,-0.7619757 1.404396,-0.6532766 1.160053,0.3393369 -0.24767,1.0061263 -0.783337,1.7581026 -1.541365,2.1637866 -0.892807,0.477816 -1.209602,1.6195395 -1.258813,4.5367305 -0.04386,2.59984 0.11617,3.094652 1.917482,5.928965 0.434379,0.683482 0.477506,1.023701 0.284519,2.244524 -0.189246,1.197162 -0.395464,1.584156 -1.227347,2.303262 -0.834325,0.721217 -1.705468,1.119213 -1.705468,0.779171 z m 13.706983,-1.596512 c -0.828607,-0.451579 -1.632279,-1.09698 -1.785938,-1.434224 -0.153658,-0.337244 -0.279379,-1.982699 -0.279379,-3.656568 0,-3.450253 -0.25569,-4.228923 -1.677113,-5.10741 C 25.910011,12.597109 25.456374,12.010643 25.153218,11.21684 24.660178,9.9258327 24.327118,9.6607965 22.867201,9.3977175 21.909929,9.2252155 21.000262,8.4586925 20.679565,7.5543248 20.410031,6.7942359 21.550891,5.0208591 22.679977,4.4448426 24.992075,3.2652979 26.51119,4.027636 28.88156,7.5569852 c 2.467249,3.6735978 2.738856,4.6045798 2.750146,9.4266538 0.0058,2.466516 0.150204,4.614034 0.37301,5.546325 0.426923,1.786382 0.385958,1.801154 -1.756701,0.633433 z m -3.114341,-2.269685 c -0.150641,-0.281475 -0.273892,-1.293506 -0.273892,-2.248958 0,-1.367776 0.08439,-1.737186 0.396875,-1.737186 0.32165,0 0.396875,0.426273 0.396875,2.248959 0,1.236927 -0.05534,2.248958 -0.122983,2.248958 -0.06764,0 -0.246234,-0.230298 -0.396875,-0.511773 z m -7.20239,-1.274165 c -1.070025,-1.251345 -2.331919,-3.767214 -2.331919,-4.649204 0,-0.950849 0.352246,-1.473508 0.658791,-0.977507 0.0914,0.147894 0.391371,0.268899 0.666594,0.268899 0.275222,0 0.611204,0.197988 0.746626,0.439974 0.218125,0.389768 0.266948,0.374672 0.427852,-0.132292 0.240393,-0.757411 -0.05576,-1.638111 -0.49426,-1.469842 -0.199241,0.07646 -0.409516,-0.09934 -0.490852,-0.410376 -0.08478,-0.324202 -0.359875,-0.544131 -0.680616,-0.544131 -0.742371,0 -0.857216,-0.291091 -0.551572,-1.398044 0.163877,-0.593513 0.643863,-1.2533765 1.275743,-1.7538345 l 1.013018,-0.8023253 0.697845,0.7832113 c 0.452463,0.507813 1.057458,0.8407152 1.72056,0.9467502 1.344796,0.2150413 1.450844,0.2986773 2.149306,1.6950753 0.327545,0.654844 0.781067,1.401589 1.007828,1.659433 0.373721,0.42495 0.371616,0.554107 -0.0225,1.380576 -0.396781,0.832058 -0.397955,0.932383 -0.01343,1.147575 0.360022,0.201479 0.375296,0.375397 0.104915,1.19466 -0.339802,1.029612 -1.153273,1.72882 -2.97111,2.553777 -1.42359,0.646043 -2.398855,0.668685 -2.912821,0.06762 z m 1.504539,-1.124479 c 0.09274,-0.15006 -0.129544,-0.264583 -0.513551,-0.264583 -0.372391,0 -0.677074,0.119062 -0.677074,0.264583 0,0.145521 0.231099,0.264584 0.513552,0.264584 0.282454,0 0.587136,-0.119063 0.677073,-0.264584 z m 0.251355,-0.790137 c 0.757265,-0.0026 0.9653,-0.08342 0.755348,-0.293369 -0.321757,-0.321757 -2.84179,-0.475561 -3.127298,-0.190868 -0.341456,0.340483 0.195405,0.791452 0.761394,0.639579 0.310998,-0.08345 1.035748,-0.153355 1.610556,-0.155342 z m -0.449792,-1.493293 c 0.385548,-0.103323 0.592477,-0.358429 0.587267,-0.723991 -0.007,-0.488169 -0.04246,-0.505517 -0.262658,-0.128367 -0.176737,0.302707 -0.578935,0.424094 -1.314987,0.396875 -0.583207,-0.02157 -1.060324,0.03024 -1.060259,0.115128 3.7e-4,0.49863 0.901773,0.648239 2.050637,0.340355 z m 1.878747,-2.240369 c 0.966939,-0.337077 1.066613,-0.64512 0.27567,-0.851956 -1.00526,-0.262881 -2.184605,0.428727 -1.647299,0.966033 0.238015,0.238015 0.400344,0.224514 1.371629,-0.114077 z m 0.5466,-1.731183 c 0.26285,-0.226549 -2.001061,-0.06166 -2.359201,0.171827 -0.270941,0.176639 0.02291,0.205504 0.926041,0.09097 0.727605,-0.09228 1.372526,-0.210533 1.43316,-0.262793 z m 2.932465,3.662065 c 0,-0.278254 0.574662,-0.846666 0.855976,-0.846666 0.121537,0 0.09354,0.238125 -0.06223,0.529166 -0.279653,0.522537 -0.79375,0.728176 -0.79375,0.3175 z m -8.863541,-2.963333 c -0.09437,-0.152691 0.150785,-0.26287 0.579697,-0.260532 0.577084,0.0031 0.654504,0.06138 0.346344,0.260532 -0.50834,0.328515 -0.723008,0.328515 -0.926041,0 z"
       id="path279"
       inkscape:connector-curvature="0" />
    <g
       id="layer1-2"
       inkscape:label="Layer 1"
       transform="translate(0.14729101,0.15024661)"
       style="filter:url(#filter299)">
      <g
         style="opacity:0.55;filter:url(#filter100)"
         transform="translate(-14.10129,-4.8664419)"
         inkscape:label="Layer 1"
         id="layer1-7">
        <path
           style="opacity:0.41666667;fill:#000000;stroke-width:0.26458335"
           d="m 61.79981,130.72972 c -3.763266,-2.57575 -8.730412,-6.13813 -8.822671,-10.97995 -0.872193,-7.62436 -8.044748,-13.09002 -7.927122,-20.967021 -2.064645,-5.205898 -4.079463,-10.440649 -5.587274,-15.829617 -1.520348,0.61693 -0.260394,7.090292 -0.37262,9.865501 0.889592,6.771367 -0.287092,13.544537 -0.03208,20.319787 2.108771,4.87024 0.07264,9.17106 -4.273201,11.85683 -2.076603,6.09836 -11.957138,2.15099 -8.310492,-3.60858 4.323823,-2.75947 5.232656,-8.34371 2.899293,-12.68057 -1.475123,-5.45506 -2.059238,-11.109223 -2.06923,-16.74062 -0.934224,-5.534421 -2.809664,-11.126382 -6.509717,-15.358377 -2.391386,-4.694187 0.654578,-9.675222 -0.02059,-14.565758 -0.234053,-5.38386 0.117255,-10.876266 2.093705,-15.918661 0.962964,-4.887445 -1.319344,-11.490192 3.558342,-14.725947 5.861834,-3.562098 0.831111,-9.629051 1.972394,-14.680305 0.623519,-6.288124 8.745711,-11.3885779 14.324833,-7.643376 3.200872,3.123835 5.13784,7.527275 5.135697,12.053414 0.122926,3.947933 -0.126363,8.135775 3.504264,10.61512 3.479195,5.531827 2.10861,12.295253 3.409433,18.420986 0.79798,4.894539 0.28661,9.862037 -1.176676,14.570127 -0.670907,5.966163 0.768507,11.912678 0.53436,17.896735 0.07709,6.069634 0.997289,12.194464 3.660991,17.693072 1.876924,5.88784 0.739798,12.68068 4.086354,18.06082 3.080684,2.89534 7.043562,9.02242 2.353661,12.24045 -0.753857,0.3478 -1.653185,0.42346 -2.431654,0.10594 z m 2.064546,-2.83697 c 3.30426,-5.43678 -4.945002,-8.34115 -5.195676,-13.48362 -1.563904,-6.2451 -0.93711,-13.12699 -4.299825,-18.847393 C 51.493774,86.233848 52.85235,76.340578 51.630107,66.782148 51.818412,60.796983 54.962126,54.941093 53.007436,48.924359 51.657633,42.994012 53.634755,35.820397 49.061677,31.05018 44.503459,27.057392 47.202919,21.086158 45.576685,16.094195 44.304544,11.404566 39.521168,5.3527489 34.474168,9.737115 c -5.971311,2.912112 -4.591594,10.057311 -3.531119,15.318768 1.251044,5.922509 -8.378687,7.642376 -6.204418,13.853756 0.78781,5.104081 -1.572439,9.85817 -2.251768,14.692743 -0.221195,5.115894 0.318833,10.300358 -0.32567,15.367306 -3.014299,4.400036 3.347046,7.784626 4.119303,12.026564 2.320028,5.217613 3.105161,10.865996 2.914678,16.55662 0.228736,6.243668 3.518896,12.130608 3.152948,18.373388 -1.333544,2.75784 -8.163652,7.82533 -2.390449,9.43968 3.726912,-1.21358 6.313667,-5.7222 8.39033,-8.1658 -2.234222,-5.87128 -0.405444,-12.11153 -0.511237,-18.199487 -0.54167,-5.812841 -0.903819,-11.616126 -0.620857,-17.481593 -0.432394,-2.039166 0.21042,-10.357228 2.158159,-4.416872 2.926101,6.099624 3.684314,13.062036 7.19932,18.90519 -0.676813,8.682782 8.018986,14.632512 7.904604,23.170362 1.322132,3.37387 5.90966,8.8823 9.386364,8.71501 z M 46.617018,52.689487 c -2.829164,-1.549982 0.935629,-9.198145 1.340513,-3.549056 0.236232,1.227985 0.932549,8.339168 -1.340513,3.549056 z M 28.426915,51.037336 c -0.497266,-1.74801 2.121902,-6.456918 1.449891,-2.122109 -0.106413,0.546921 -0.453861,3.276348 -1.449891,2.122109 z"
           id="path49"
           inkscape:connector-curvature="0" />
      </g>
    </g>
  </g>
</svg>
