<?xml version="1.0" encoding="UTF-8" standalone="no"?>
<!-- Created with Inkscape (http://www.inkscape.org/) -->

<svg
   xmlns:dc="http://purl.org/dc/elements/1.1/"
   xmlns:cc="http://creativecommons.org/ns#"
   xmlns:rdf="http://www.w3.org/1999/02/22-rdf-syntax-ns#"
   xmlns:svg="http://www.w3.org/2000/svg"
   xmlns="http://www.w3.org/2000/svg"
   xmlns:sodipodi="http://sodipodi.sourceforge.net/DTD/sodipodi-0.dtd"
   xmlns:inkscape="http://www.inkscape.org/namespaces/inkscape"
   width="210mm"
   height="297mm"
   viewBox="0 0 210 297"
   version="1.1"
   id="svg8"
   inkscape:version="0.92.3 (2405546, 2018-03-11)"
   sodipodi:docname="p_woman_white.svg">
  <defs
     id="defs2">
    <filter
       inkscape:collect="always"
       style="color-interpolation-filters:sRGB"
       id="filter72"
       x="-0.065635701"
       width="1.1312714"
       y="-0.024801621"
       height="1.0496032">
      <feGaussianBlur
         inkscape:collect="always"
         stdDeviation="1.2724479"
         id="feGaussianBlur74" />
    </filter>
    <filter
       height="1.0165344"
       y="-0.0082672074"
       width="1.0437571"
       x="-0.021878565"
       id="filter100"
       style="color-interpolation-filters:sRGB"
       inkscape:collect="always">
      <feGaussianBlur
         id="feGaussianBlur102"
         stdDeviation="0.42414928"
         inkscape:collect="always" />
    </filter>
    <filter
       inkscape:collect="always"
       style="color-interpolation-filters:sRGB"
       id="filter408"
       x="-0.065635695"
       width="1.1312714"
       y="-0.024801622"
       height="1.0496032">
      <feGaussianBlur
         inkscape:collect="always"
         stdDeviation="1.2724478"
         id="feGaussianBlur410" />
    </filter>
  </defs>
  <sodipodi:namedview
     id="base"
     pagecolor="#ffffff"
     bordercolor="#666666"
     borderopacity="1.0"
     inkscape:pageopacity="0.0"
     inkscape:pageshadow="2"
     inkscape:zoom="0.78691102"
     inkscape:cx="92.28539"
     inkscape:cy="1020.239"
     inkscape:document-units="mm"
     inkscape:current-layer="layer1"
     showgrid="false"
     inkscape:window-width="1366"
     inkscape:window-height="705"
     inkscape:window-x="-8"
     inkscape:window-y="-8"
     inkscape:window-maximized="1" />
  <metadata
     id="metadata5">
    <rdf:RDF>
      <cc:Work
         rdf:about="">
        <dc:format>image/svg+xml</dc:format>
        <dc:type
           rdf:resource="http://purl.org/dc/dcmitype/StillImage" />
        <dc:title></dc:title>
      </cc:Work>
    </rdf:RDF>
  </metadata>
  <g
     inkscape:label="Layer 1"
     inkscape:groupmode="layer"
     id="layer1"
     style="display:inline">
    <path
       style="fill:#000000;stroke-width:0.26458335"
       d="m 42.876418,121.69627 c -0.478007,-0.41693 -1.116632,-0.83521 -1.419164,-0.92951 -0.310425,-0.0968 -0.945332,-0.89036 -1.457373,-1.82164 -0.622734,-1.1326 -1.185209,-1.78927 -1.79333,-2.09365 -0.487312,-0.24391 -1.180084,-0.71974 -1.539496,-1.05739 -0.607372,-0.57059 -0.641353,-0.7353 -0.481632,-2.33464 0.147114,-1.47309 0.06907,-2.00634 -0.54225,-3.70512 -0.855909,-2.37845 -2.242902,-5.1888 -4.520853,-9.16022 -2.194994,-3.826793 -2.741047,-5.438456 -2.741047,-8.090166 0,-1.991206 -0.05362,-2.177883 -1.176476,-4.096065 -1.092432,-1.866201 -1.861189,-3.989152 -3.7194,-10.271263 -0.647953,-2.190554 -3.395713,-8.975434 -3.837407,-9.475478 -0.490232,-0.554998 -0.929646,8.023802 -0.577569,11.276016 0.163904,1.514012 0.16049,2.718305 -0.0098,3.439583 -0.350925,1.486808 -0.290276,2.84969 0.2022,4.543745 0.224782,0.773227 0.426718,2.102864 0.448745,2.954751 0.04924,1.904103 -0.542259,13.730857 -0.732767,14.651437 -0.07594,0.36696 0.222579,1.88109 0.663434,3.36506 0.440821,1.48386 0.801492,2.92524 0.801492,3.20307 0,0.62033 -0.443475,1.00417 -2.339746,2.02515 -1.30697,0.70369 -1.573963,0.99767 -2.353178,2.59099 -0.483417,0.98848 -1.083786,1.86923 -1.334153,1.95722 -0.250368,0.088 -0.954698,0.38056 -1.565177,0.65016 -1.448202,0.63955 -2.227114,0.61873 -3.1196813,-0.0834 -0.698496,-0.54944 -0.721934,-0.64379 -0.55782,-2.24563 0.225683,-2.2028 0.269543,-2.28947 1.5121003,-2.98782 0.7173,-0.40315 1.4486,-1.19627 2.236704,-2.42579 1.481001,-2.31051 1.489207,-2.81427 0.135588,-8.32327 -2.23788,-9.107782 -2.853211,-13.077217 -2.431609,-15.686062 0.370747,-2.294165 -0.04397,-4.257305 -2.2119403,-10.470576 -1.556479,-4.460875 -1.875151,-5.145545 -2.909697,-6.251557 -0.638981,-0.683122 -1.601166,-2.114539 -2.13819,-3.180926 -0.947091,-1.880669 -0.963777,-1.963066 -0.555753,-2.744238 1.051337,-2.012812 1.082517,-2.295551 1.22675,-11.124102 l 0.142642,-8.73125 0.881092,-2.116667 c 0.865723,-2.079749 0.886713,-2.225114 1.203413,-8.334375 0.403861,-7.790635 0.467718,-7.945701 4.0858473,-9.921875 1.321111,-0.721573 1.496532,-0.926075 1.929149,-2.248959 0.626637,-1.916171 0.61056,-3.435733 -0.0602,-5.689383 -0.979266,-3.290205 -0.997417,-3.477289 -0.607811,-6.264788 0.53693,-3.841546 1.458538,-5.0919758 5.259838,-7.1365031 1.760954,-0.9471277 2.362018,-1.1386734 3.576623,-1.1397898 1.978218,-0.00182 2.757727,0.6038355 4.879817,3.7914634 2.43254,3.6539631 2.547362,4.0628185 2.796199,9.9567085 0.262642,6.220884 0.536192,7.347403 1.980012,8.153928 1.259928,0.703803 2.880673,2.995547 3.306747,4.675761 0.165695,0.653412 0.404215,3.153725 0.530042,5.55625 0.129289,2.468528 0.537234,6.151732 0.938044,8.469271 0.833061,4.816866 0.766857,7.635176 -0.26674,11.355369 -1.235776,4.447879 -1.480365,6.396321 -1.073049,8.54814 0.205319,1.084694 0.493516,5.677289 0.660378,10.523575 0.222409,6.459471 0.417314,9.158515 0.783357,10.847917 0.268008,1.236927 0.568246,2.82712 0.667198,3.533764 0.09895,0.706641 0.577011,2.016329 1.062355,2.910417 1.267989,2.335858 1.877049,4.868251 2.649987,11.018327 0.374925,2.98317 0.801941,5.9002 0.948928,6.48229 0.708472,2.80566 1.765969,4.57082 4.38323,7.31646 0.922854,0.96811 1.687664,1.98015 1.699583,2.24896 0.08204,1.8504 -0.115739,3.7538 -0.442555,4.25906 -0.568066,0.87824 -1.967029,0.80421 -3.075636,-0.16274 z m 2.641002,-0.0379 c 0.04368,-0.22956 -0.313796,-0.60892 -0.841663,-0.89319 -0.504677,-0.27179 -0.980377,-0.65777 -1.057109,-0.85773 -0.1862,-0.48523 0.225111,-0.46375 0.637625,0.0333 0.181158,0.21828 0.452313,0.39687 0.60257,0.39687 0.150257,0 0.07615,-0.21773 -0.164687,-0.48385 -0.240837,-0.26612 -0.437883,-0.63471 -0.437883,-0.81908 0,-0.61707 0.909595,-1.88423 1.256885,-1.75096 0.437179,0.16776 0.02156,-0.66737 -0.58098,-1.16745 -0.343295,-0.28491 -0.411322,-0.27037 -0.411322,0.0879 0,0.7466 -0.541242,0.465 -0.939834,-0.48897 -0.211016,-0.50503 -0.905531,-1.72542 -1.543362,-2.71198 -2.056255,-3.18047 -2.19904,-3.69835 -3.193614,-11.58332 -0.642596,-5.094509 -1.239742,-7.764989 -2.218626,-9.921875 -0.486032,-1.070927 -0.558308,-1.130776 -0.718942,-0.595312 -0.276791,0.922665 -0.644093,0.703109 -0.663945,-0.396875 -0.01638,-0.907257 -0.04248,-0.941229 -0.305014,-0.396875 -0.349227,0.724111 -0.735412,0.775859 -0.735412,0.09854 0,-0.577392 0.615743,-1.176972 0.913992,-0.889995 0.323564,0.311338 -0.117885,-3.051127 -0.686348,-5.227817 -0.401097,-1.535825 -0.548849,-3.210415 -0.65365,-7.408334 -0.182081,-7.293465 -0.09505,-7.018208 -1.677532,-5.305872 -1.089293,1.178679 -1.35695,1.344551 -1.793021,1.111176 -1.084601,-0.580464 -1.236006,-1.008798 -0.882004,-2.495251 0.180739,-0.758915 0.281813,-1.796564 0.224612,-2.305886 l -0.104002,-0.926042 -0.45751,1.003699 c -0.498755,1.094185 -1.100941,1.484689 -1.568502,1.017128 -0.219459,-0.219459 -0.224615,-1.128544 -0.0195,-3.436536 0.219101,-2.465247 0.431533,-3.460769 0.990706,-4.642768 0.680815,-1.439122 0.714115,-1.708603 0.764881,-6.189742 l 0.05309,-4.685115 -1.256771,-2.60327 c -0.691224,-1.431798 -1.256755,-2.801017 -1.256735,-3.042708 2e-5,-0.241692 0.29589,-1.391939 0.657488,-2.556106 0.610481,-1.965441 0.831541,-3.307291 0.544851,-3.307291 -0.0663,0 -0.559162,0.297656 -1.095255,0.661458 -0.601018,0.407863 -1.346395,0.661458 -1.944175,0.661458 -1.16054,0 -3.615308,-1.163589 -4.009792,-1.900692 -0.446147,-0.833634 -0.0703,-0.873226 0.859821,-0.09058 1.569356,1.320525 3.180928,1.597793 4.705261,0.80953 1.519444,-0.785733 2.112592,-3.526531 1.117359,-5.163058 -0.569038,-0.935707 -0.427,-2.783327 0.213971,-2.783327 0.434417,0 1.037109,3.451699 1.055892,6.047227 0.01418,1.958083 0.623218,4.357801 1.612881,6.354908 0.696561,1.405639 0.815276,2.23447 0.271955,1.898679 -0.113565,-0.07019 -0.289063,1.624513 -0.389996,3.765998 -0.485484,10.300208 -0.557035,11.033083 -1.180336,12.089498 -0.560572,0.950097 -1.002532,3.06964 -1.283996,6.157754 -0.246991,2.709886 0.697876,1.170387 1.380299,-2.248959 0.240401,-1.204558 0.5211,-1.070729 0.554951,0.264584 0.01569,0.618463 0.143912,1.804178 0.284961,2.634919 0.195094,1.149019 0.170852,1.714034 -0.101301,2.361298 -0.196768,0.467971 -0.309149,0.9789 -0.249735,1.135393 0.177721,0.468114 1.216105,-2.02882 1.222383,-2.939386 0.0032,-0.463471 0.13171,-1.173811 0.285586,-1.578536 0.219253,-0.576675 0.33061,-0.653605 0.514779,-0.355616 0.129254,0.209137 0.319823,0.295434 0.423487,0.19177 0.103663,-0.103664 0.337552,-0.06476 0.519752,0.08645 0.249018,0.206666 0.374042,0.08021 0.503516,-0.509281 0.189431,-0.862478 0.029,-2.097267 -0.542256,-4.1735 -0.32698,-1.188411 -0.324448,-1.456217 0.02,-2.116667 0.216892,-0.415867 0.395081,-1.085496 0.395978,-1.48807 7.93e-4,-0.402571 0.371869,-2.065851 0.824383,-3.696176 1.046438,-3.770112 1.133758,-7.647541 0.281623,-12.505206 -0.30633,-1.74625 -0.675082,-5.199063 -0.819452,-7.672917 -0.144367,-2.473854 -0.386569,-4.924023 -0.538223,-5.444818 -0.403577,-1.385938 -2.114563,-3.669751 -3.225485,-4.305362 -0.944087,-0.540157 -1.004975,-0.542479 -2.778126,-0.105937 -2.346692,0.577745 -4.899663,0.711653 -5.051699,0.264971 -0.08128,-0.238799 0.30226,-0.330729 1.379817,-0.330729 1.504365,0 3.789517,-0.434309 4.19449,-0.797191 0.291121,-0.260863 -0.95299,-1.124283 -2.791675,-1.937436 -1.609335,-0.711725 -2.135974,-1.400937 -2.466296,-3.227641 -0.268758,-1.486251 -0.321128,-1.520177 -1.260972,-0.8169 -1.267476,0.948442 -2.451094,1.48703 -3.277884,1.491552 -1.126124,0.0062 -1.33227,0.262707 -1.538123,1.914178 -0.1045,0.83836 -0.324425,1.524899 -0.489877,1.52925 -0.165134,0.0043 -0.836025,0.47704 -1.490869,1.050438 l -1.190625,1.042542 2.167198,0.0079 c 2.054936,0.0075 2.957131,0.290836 2.042977,0.64163 -0.746957,0.286634 -4.487603,0.173629 -4.806435,-0.145203 -0.39733,-0.397329 -2.3993773,0.341726 -3.5512063,1.310926 -1.455053,1.224346 -1.627614,2.007966 -1.817766,8.25471 l -0.17316,5.688542 -1.007054,2.645833 -1.007054,2.645834 -0.172976,8.73125 c -0.166243,8.391308 -0.197152,8.785916 -0.793892,10.13528 l -0.620914,1.404027 0.749051,1.567199 c 0.698333,1.461079 2.244357,3.339372 2.244357,2.726711 0,-0.150193 -0.238747,-0.48914 -0.530548,-0.753216 -0.562032,-0.508632 -1.743937,-4.03017 -1.450947,-4.323159 0.285528,-0.285528 0.873259,0.73247 1.059576,1.835269 0.09608,0.568661 0.27074,1.033931 0.388145,1.033931 0.117405,0 0.10978,-0.446485 -0.01694,-0.992188 -0.382569,-1.647425 -0.274072,-3.470862 0.413253,-6.945312 0.359842,-1.819011 0.657042,-4.089096 0.660444,-5.044636 0.0097,-2.718396 0.477182,-4.717497 1.511815,-6.46474 0.917902,-1.550111 1.649158,-3.991861 2.1769283,-7.269017 0.250767,-1.557118 0.22872,-1.679982 -0.5197153,-2.896346 -0.901992,-1.465924 -1.049449,-3.365765 -0.384716,-4.956696 0.218282,-0.522423 0.396875,-1.352035 0.396875,-1.843585 0,-0.491554 0.116794,-0.893731 0.2595433,-0.893731 0.500266,0 0.597509,1.345403 0.177722,2.458871 -0.9505933,2.521415 -0.8475443,3.739049 0.435669,5.1479 0.851147,0.934482 2.943769,0.839605 4.376744,-0.198438 1.24362,-0.900874 1.364905,-0.93859 1.364905,-0.424457 0,0.552537 -2.439144,2.011957 -3.362605,2.011957 h -0.802738 l -0.119794,2.069383 c -0.138122,2.385976 -0.694507,3.737367 -2.3615133,5.735826 -1.74559,2.092669 -2.055633,3.059232 -2.479151,7.728778 -0.208389,2.29761 -0.510819,4.633744 -0.672068,5.191409 -1.091407,3.77453 -0.633312,7.247681 2.064807,15.654814 0.653832,2.037291 1.6055473,4.625356 2.1149233,5.75125 0.702715,1.553245 0.85511,2.132669 0.631711,2.401848 -0.420611,0.506804 0.01682,1.82884 0.999632,3.021161 0.90831,1.101937 0.995112,1.393449 0.414921,1.393449 -0.218281,0 -0.401156,0.20836 -0.40639,0.463021 -0.0073,0.355301 -0.160882,0.278358 -0.660144,-0.330729 l -0.650629,-0.79375 -9.52e-4,1.719792 c -0.0012,2.186141 0.439555,4.670724 2.102955,11.854279 0.997519,4.30788 1.334952,6.28747 1.334952,7.83165 0,1.71522 -0.06653,2.04099 -0.391339,1.91635 -0.257918,-0.099 -0.670182,0.25512 -1.209219,1.03858 -0.449834,0.65381 -1.296731,1.50564 -1.881993,1.89294 -0.98037,0.64878 -1.020551,0.72032 -0.510573,0.90897 0.692562,0.25619 0.695089,0.63694 0.012,1.80932 l -0.539556,0.92604 0.798011,-0.92604 c 0.8406,-0.97546 1.154639,-0.60658 0.400369,0.47029 -0.526128,0.75116 -0.200188,0.75816 0.593263,0.0128 0.336801,-0.31641 0.612365,-0.43548 0.612365,-0.26459 0,0.35881 -0.774273,1.18281 -1.491499,1.58729 -0.327354,0.18461 -0.404021,0.3657 -0.228292,0.53922 0.283676,0.28012 3.097812,-0.77244 3.851976,-1.44074 0.226816,-0.201 0.694087,-1.17128 1.038379,-2.15619 0.344293,-0.98491 0.81356,-2.0549 1.042816,-2.37775 0.472914,-0.66598 1.219076,-0.82298 0.982607,-0.20675 -0.19229,0.5011 0.178812,0.5043 1.13509,0.01 1.035316,-0.53538 1.16472,-1.06748 0.6398,-2.63078 l -0.452548,-1.34776 -0.400968,1.52136 c -0.220533,0.83674 -0.468232,1.52135 -0.550443,1.52135 -0.234717,0 -0.162573,-5.38436 0.07718,-5.75995 0.117962,-0.1848 0.328945,-2.68511 0.468852,-5.55625 0.139908,-2.871142 0.341662,-6.232295 0.448343,-7.469222 0.20857,-2.418274 0.02966,-4.345388 -0.525447,-5.659885 l -0.3473,-0.822407 -0.132292,1.037651 c -0.07276,0.570708 -0.281119,1.086646 -0.46302,1.146527 -0.563906,0.185639 -0.38548,-1.80172 0.352278,-3.923774 0.642486,-1.848017 0.67126,-2.145088 0.484995,-5.007279 -0.237949,-3.656373 -0.239189,-3.187658 0.02467,-9.32329 l 0.213199,-4.957662 -1.31275,-1.392339 C 16.639887,63.682127 15.565173,62.3412 14.973645,61.468075 14.382117,60.59495 13.331642,59.250859 12.639256,58.481204 11.94687,57.711547 11.457851,57.00435 11.552548,56.909653 c 0.268004,-0.268001 2.737342,2.26708 3.924763,4.029255 1.0875,1.61389 2.808416,3.571875 3.1394,3.571875 0.100212,0 0.252446,-0.279868 0.338298,-0.621932 0.196912,-0.784556 2.162219,-3.016012 2.42764,-2.756397 0.108832,0.10645 -0.229288,0.741831 -0.751376,1.411954 -0.522089,0.670123 -1.023687,1.5573 -1.114661,1.971506 -0.210393,0.95791 0.698409,3.823308 2.599781,8.196953 0.790786,1.81901 1.985995,5.245288 2.656021,7.613952 1.260607,4.456475 2.290458,6.909792 4.126587,9.830364 1.203362,1.914088 1.348711,2.523622 0.540613,2.267143 -0.444887,-0.141203 -0.529167,-0.04755 -0.529167,0.588039 0,1.592921 0.849111,3.879002 2.603698,7.009975 2.650223,4.72919 3.704871,6.89225 4.809657,9.86449 0.540904,1.45521 1.179367,3.09232 1.418812,3.63802 0.369086,0.84117 0.377116,0.99219 0.05276,0.99219 -0.210428,0 -0.458724,-0.23985 -0.551767,-0.53301 -0.09304,-0.29316 -0.279659,-0.46472 -0.414705,-0.38126 -0.434835,0.26874 -0.261901,1.25962 0.329753,1.8894 0.713113,0.75907 1.378357,0.82 1.151572,0.10547 -0.08849,-0.2788 -0.05492,-0.57239 0.07459,-0.65243 0.268645,-0.16603 0.672433,0.53779 1.217012,2.12129 0.566499,1.64724 1.679213,3.25982 2.452103,3.55367 0.378645,0.14396 1.045496,0.56219 1.481889,0.92939 0.845875,0.71176 1.856356,0.76737 1.981615,0.10906 z M 31.483404,89.976227 c -0.887857,-0.98107 -1.263483,-2.711495 -0.588589,-2.711495 0.243594,0 0.396875,0.247629 0.396875,0.641157 0,0.352639 0.297656,0.994904 0.661458,1.427257 0.363802,0.432356 0.661459,0.858208 0.661459,0.946344 0,0.335922 -0.729811,0.140268 -1.131203,-0.303263 z M 13.44052,89.394673 c -0.08543,-0.138219 0.08614,-0.380532 0.38126,-0.538475 0.414401,-0.221782 0.536577,-0.55259 0.536577,-1.45287 0,-0.641135 0.105526,-1.230918 0.234503,-1.310632 0.281159,-0.173765 0.550644,0.727681 0.555634,1.858632 0.005,1.142672 -1.242329,2.196777 -1.707974,1.443345 z m 8.32617,-28.852859 c 0,-0.145521 0.178594,-0.264583 0.396875,-0.264583 0.218281,0 0.396875,0.119062 0.396875,0.264583 0,0.145521 -0.178594,0.264584 -0.396875,0.264584 -0.218281,0 -0.396875,-0.119063 -0.396875,-0.264584 z m 2.48543,-5.349544 c 0.181502,-0.90751 0.575485,-1.467318 0.843822,-1.198983 0.239208,0.239209 -0.411828,2.050611 -0.737011,2.050611 -0.171004,0 -0.211909,-0.326139 -0.106811,-0.851628 z M 10.981821,54.916505 c -0.308637,-0.386913 -1.1213813,-1.957318 -1.1213813,-2.16676 0,-0.07999 0.1548693,-0.145431 0.3441533,-0.145431 0.418214,0 1.583449,2.303346 1.264847,2.500254 -0.124369,0.07687 -0.343798,-0.0078 -0.487619,-0.188063 z m 5.256211,-3.08329 c -0.428155,-0.271105 -0.205904,-1.082916 0.294833,-1.076934 0.613586,0.0073 1.080499,0.464159 0.915058,0.89529 -0.179912,0.468841 -0.645848,0.538795 -1.209891,0.181644 z m 8.174491,-6.782665 c 0,-0.786649 0.690375,-2.235819 1.065128,-2.235819 0.360639,0 0.321888,0.345776 -0.137456,1.226526 -0.217385,0.416817 -0.395978,0.966208 -0.396875,1.220869 -8.97e-4,0.254662 -0.120693,0.463021 -0.266213,0.463021 -0.145521,0 -0.264584,-0.303569 -0.264584,-0.674597 z M 10.530095,37.271741 c -0.09572,-0.154868 0.01211,-0.353009 0.239617,-0.440311 0.227505,-0.0873 0.413645,-0.334508 0.413645,-0.549347 0,-0.214839 0.148828,-0.341008 0.330729,-0.280374 0.181901,0.06063 0.330729,0.397979 0.330729,0.749652 0,0.453274 -0.166031,0.66307 -0.570346,0.720688 -0.313691,0.0447 -0.648659,-0.04544 -0.744374,-0.200308 z M 25.34625,36.684805 c 0.439161,-1.430742 1.260389,-1.733941 1.133558,-0.418512 -0.06464,0.670443 -0.21951,0.879237 -0.70292,0.947679 -0.539799,0.07643 -0.595511,0.008 -0.430638,-0.529167 z M 17.930232,25.35223 c -0.08994,-0.145521 -0.0672,-0.278317 0.05053,-0.295103 0.117728,-0.01679 0.333115,-0.0471 0.478635,-0.06737 0.145521,-0.02027 0.534935,-0.190634 0.865364,-0.37859 0.5744,-0.326733 1.119011,-0.241873 1.119011,0.174362 0,0.205797 -1.545269,0.831286 -2.05369,0.831286 -0.162982,0 -0.369914,-0.119062 -0.459851,-0.264583 z m 0.302929,-1.45069 c -0.108326,-0.28229 0.04421,-0.496176 0.469048,-0.657699 0.437532,-0.166349 0.763247,-0.641805 1.06778,-1.558667 0.51764,-1.55847 1.417944,-2.5603 1.103315,-1.227736 -0.103075,0.436563 -0.509778,1.448594 -0.903783,2.248959 -0.723459,1.469603 -1.44141,1.963772 -1.73636,1.195143 z m -1.148819,-1.761444 c -0.16356,-0.197857 -0.380819,-0.806225 -0.482796,-1.351929 -0.256418,-1.372141 0.299021,-1.30127 0.672523,0.08581 0.334196,1.241109 0.250625,1.79881 -0.189727,1.266117 z m 14.730233,46.636018 c -0.0034,-0.236001 -0.300558,0.285284 -0.66023,1.158409 -0.359675,0.873125 -0.647647,1.706562 -0.639937,1.852083 0.02283,0.431287 1.307023,-2.542175 1.300167,-3.010492 z m 1.509938,-0.610992 c -0.08446,-0.211066 -0.147156,-0.148373 -0.159851,0.159853 -0.01148,0.278913 0.05104,0.435184 0.138965,0.347266 0.08792,-0.08792 0.09732,-0.316124 0.02087,-0.507119 z M 29.84249,45.892147 c -0.175733,-2.392151 -0.837694,-5.458667 -1.178348,-5.458667 -0.231727,0 -0.848601,1.706005 -1.100209,3.042709 -0.176006,0.935059 -0.07179,1.294932 0.894718,3.089558 0.601662,1.117174 1.199094,1.96623 1.327626,1.886791 0.128855,-0.07963 0.154075,-1.228293 0.05621,-2.560391 z M 11.002061,44.525545 c 0.394798,-0.8279 0.667127,-4.136925 0.31117,-3.780967 -0.242931,0.242932 -1.140625,4.715986 -0.946448,4.715986 0.104169,0 0.390045,-0.420759 0.635278,-0.935019 z M 14.305058,22.43199 c 1.038122,-0.997521 1.111632,-1.163147 1.111632,-2.504614 0,-1.221464 -0.155092,-1.676415 -1.036229,-3.039707 -1.339887,-2.073065 -1.647086,-4.157931 -1.064953,-7.2275084 0.199391,-1.051384 0.482528,-1.527061 1.439285,-2.4180346 0.839523,-0.7817997 1.191064,-1.3184642 1.191064,-1.8182833 0,-0.9156443 -0.300077,-0.8940895 -1.435857,0.1031386 -1.582138,1.3891357 -1.97888,2.3035023 -2.302645,5.3068787 -0.286766,2.660166 -0.273705,2.816593 0.425496,5.095823 0.597716,1.948416 0.697608,2.673943 0.582852,4.233333 -0.07617,1.035057 -0.221301,2.209344 -0.322513,2.609526 -0.252913,0.999994 0.107142,0.913146 1.411868,-0.340552 z M 27.998535,21.846501 C 27.900517,21.373558 27.731737,18.724417 27.623467,15.959521 27.45471,11.649911 27.345289,10.75188 26.8568,9.6673286 26.056828,7.8912206 24.085243,5.0191937 22.814292,3.7785664 21.852187,2.8394168 21.606869,2.7323082 20.456509,2.7491323 c -1.483861,0.021702 -2.456614,0.5633676 -3.199378,1.7815356 -0.658245,1.0795529 -0.65314,1.7923748 0.01896,2.6468071 0.370216,0.4706526 0.898254,0.7362756 1.703802,0.8570746 1.333904,0.200031 1.76793,0.59194 2.392467,2.1603054 0.244093,0.612975 0.66557,1.184886 0.936616,1.270912 0.271045,0.08603 0.795696,0.516371 1.165889,0.956321 0.63758,0.757721 0.67406,0.969778 0.691675,4.020754 0.01023,1.771466 0.109196,3.452335 0.21993,3.735266 0.180804,0.461967 2.996515,2.440723 3.561816,2.503085 0.125656,0.01386 0.14827,-0.361749 0.05025,-0.834692 z m -4.379762,-3.340365 c 0,-1.658604 -0.264683,-2.974658 -0.56138,-2.791289 -0.262822,0.162433 -0.308325,2.580118 -0.06561,3.48582 0.277017,1.03369 0.626986,0.646019 0.626986,-0.694531 z m -4.101041,-0.719332 c 1.587774,-0.940848 1.862986,-1.215426 2.20256,-2.197494 0.387636,-1.121068 0.390492,-1.084997 -0.08589,-1.084997 -0.515475,0 -0.500861,-0.305097 0.06155,-1.285048 0.441393,-0.769082 0.438524,-0.821497 -0.07721,-1.410504 C 21.32414,11.472304 20.880629,10.748397 20.63316,10.200079 20.18738,9.2123566 19.688851,8.8706816 18.238412,8.5587976 17.825827,8.4700776 17.216862,8.1046536 16.885156,7.7467366 16.55345,7.3888196 16.170146,7.09598 16.033369,7.09598 c -0.136777,0 -0.688671,0.4030106 -1.226431,0.8955796 -0.769439,0.704779 -0.977746,1.092315 -0.977746,1.81901 0,0.8215154 0.09076,0.9415834 0.822397,1.0879104 0.599711,0.119942 0.779963,0.275062 0.665684,0.572868 -0.109046,0.284168 -0.01716,0.385035 0.302082,0.331614 0.356361,-0.05963 0.477129,0.144749 0.540913,0.915414 0.08663,1.046738 -0.09603,1.239534 -0.582116,0.614422 -0.161563,-0.20777 -0.650939,-0.416129 -1.087502,-0.46302 -1.142329,-0.122697 -1.176749,0.767413 -0.110878,2.867346 1.281809,2.525369 1.865707,3.064757 3.086144,2.850895 0.546416,-0.09575 1.469734,-0.456297 2.051818,-0.801215 z M 16.21044,17.150146 c 0,-0.14552 0.297656,-0.264583 0.661458,-0.264583 0.363803,0 0.661459,0.119063 0.661459,0.264583 0,0.145521 -0.297656,0.264584 -0.661459,0.264584 -0.363802,0 -0.661458,-0.119063 -0.661458,-0.264584 z m -1.172097,-0.76377 c -0.07975,-0.129033 0.03139,-0.380989 0.246968,-0.559903 0.426742,-0.354165 3.306379,-0.13664 3.306379,0.24976 0,0.439896 -3.295391,0.727524 -3.553347,0.310143 z m 0.179622,-1.670527 c -0.22642,-0.272905 -0.03903,-0.349186 0.90848,-0.369807 0.701981,-0.01528 1.28622,-0.175612 1.418232,-0.389212 0.12347,-0.199779 0.31605,-0.271674 0.427956,-0.159768 0.111906,0.111906 0.07649,0.406114 -0.07871,0.653796 -0.353153,0.563613 -2.270667,0.753498 -2.675962,0.264991 z m 2.315392,-2.186602 c 0,-0.545847 0.987728,-1.010437 1.744435,-0.820516 0.820986,0.206054 0.808232,0.515874 -0.03709,0.901029 -0.92583,0.421836 -1.707342,0.384983 -1.707342,-0.08051 z m -0.465426,-1.258865 c 0.159791,-0.479374 2.023393,-0.870185 2.391965,-0.501613 0.218225,0.218225 0.112851,0.295961 -0.40119,0.295961 -0.383433,0 -1.012795,0.120007 -1.398582,0.266684 -0.532627,0.202504 -0.675142,0.187816 -0.592193,-0.06103 z m 6.286259,2.805826 c 0,-0.218281 -0.119062,-0.32329 -0.264583,-0.233353 -0.145521,0.08994 -0.264584,0.342115 -0.264584,0.560396 0,0.218281 0.119063,0.323291 0.264584,0.233354 0.145521,-0.08994 0.264583,-0.342116 0.264583,-0.560397 z m -8.802908,-2.642164 c -0.08792,-0.08792 -0.316122,-0.09732 -0.507118,-0.02089 -0.211067,0.08446 -0.148372,0.147157 0.159853,0.159852 0.278914,0.01149 0.435184,-0.05105 0.347265,-0.138964 z"
       id="path388"
       inkscape:connector-curvature="0" />
    <g
       id="layer1-1"
       inkscape:label="Layer 1"
       transform="translate(-4.2766574,-1.7683504)"
       style="opacity:0.98999999;filter:url(#filter408)">
      <g
         style="opacity:0.55;filter:url(#filter100)"
         transform="translate(-14.10129,-4.8664419)"
         inkscape:label="Layer 1"
         id="layer1-7">
        <path
           style="opacity:0.41666667;fill:#000000;stroke-width:0.26458335"
           d="m 61.79981,130.72972 c -3.763266,-2.57575 -8.730412,-6.13813 -8.822671,-10.97995 -0.872193,-7.62436 -8.044748,-13.09002 -7.927122,-20.967021 -2.064645,-5.205898 -4.079463,-10.440649 -5.587274,-15.829617 -1.520348,0.61693 -0.260394,7.090292 -0.37262,9.865501 0.889592,6.771367 -0.287092,13.544537 -0.03208,20.319787 2.108771,4.87024 0.07264,9.17106 -4.273201,11.85683 -2.076603,6.09836 -11.957138,2.15099 -8.310492,-3.60858 4.323823,-2.75947 5.232656,-8.34371 2.899293,-12.68057 -1.475123,-5.45506 -2.059238,-11.109223 -2.06923,-16.74062 -0.934224,-5.534421 -2.809664,-11.126382 -6.509717,-15.358377 -2.391386,-4.694187 0.654578,-9.675222 -0.02059,-14.565758 -0.234053,-5.38386 0.117255,-10.876266 2.093705,-15.918661 0.962964,-4.887445 -1.319344,-11.490192 3.558342,-14.725947 5.861834,-3.562098 0.831111,-9.629051 1.972394,-14.680305 0.623519,-6.288124 8.745711,-11.3885779 14.324833,-7.643376 3.200872,3.123835 5.13784,7.527275 5.135697,12.053414 0.122926,3.947933 -0.126363,8.135775 3.504264,10.61512 3.479195,5.531827 2.10861,12.295253 3.409433,18.420986 0.79798,4.894539 0.28661,9.862037 -1.176676,14.570127 -0.670907,5.966163 0.768507,11.912678 0.53436,17.896735 0.07709,6.069634 0.997289,12.194464 3.660991,17.693072 1.876924,5.88784 0.739798,12.68068 4.086354,18.06082 3.080684,2.89534 7.043562,9.02242 2.353661,12.24045 -0.753857,0.3478 -1.653185,0.42346 -2.431654,0.10594 z m 2.064546,-2.83697 c 3.30426,-5.43678 -4.945002,-8.34115 -5.195676,-13.48362 -1.563904,-6.2451 -0.93711,-13.12699 -4.299825,-18.847393 C 51.493774,86.233848 52.85235,76.340578 51.630107,66.782148 51.818412,60.796983 54.962126,54.941093 53.007436,48.924359 51.657633,42.994012 53.634755,35.820397 49.061677,31.05018 44.503459,27.057392 47.202919,21.086158 45.576685,16.094195 44.304544,11.404566 39.521168,5.3527489 34.474168,9.737115 c -5.971311,2.912112 -4.591594,10.057311 -3.531119,15.318768 1.251044,5.922509 -8.378687,7.642376 -6.204418,13.853756 0.78781,5.104081 -1.572439,9.85817 -2.251768,14.692743 -0.221195,5.115894 0.318833,10.300358 -0.32567,15.367306 -3.014299,4.400036 3.347046,7.784626 4.119303,12.026564 2.320028,5.217613 3.105161,10.865996 2.914678,16.55662 0.228736,6.243668 3.518896,12.130608 3.152948,18.373388 -1.333544,2.75784 -8.163652,7.82533 -2.390449,9.43968 3.726912,-1.21358 6.313667,-5.7222 8.39033,-8.1658 -2.234222,-5.87128 -0.405444,-12.11153 -0.511237,-18.199487 -0.54167,-5.812841 -0.903819,-11.616126 -0.620857,-17.481593 -0.432394,-2.039166 0.21042,-10.357228 2.158159,-4.416872 2.926101,6.099624 3.684314,13.062036 7.19932,18.90519 -0.676813,8.682782 8.018986,14.632512 7.904604,23.170362 1.322132,3.37387 5.90966,8.8823 9.386364,8.71501 z M 46.617018,52.689487 c -2.829164,-1.549982 0.935629,-9.198145 1.340513,-3.549056 0.236232,1.227985 0.932549,8.339168 -1.340513,3.549056 z M 28.426915,51.037336 c -0.497266,-1.74801 2.121902,-6.456918 1.449891,-2.122109 -0.106413,0.546921 -0.453861,3.276348 -1.449891,2.122109 z"
           id="path49"
           inkscape:connector-curvature="0" />
      </g>
    </g>
  </g>
</svg>
