<?xml version="1.0" encoding="UTF-8" standalone="no"?>
<!-- Created with Inkscape (http://www.inkscape.org/) -->

<svg
   xmlns:dc="http://purl.org/dc/elements/1.1/"
   xmlns:cc="http://creativecommons.org/ns#"
   xmlns:rdf="http://www.w3.org/1999/02/22-rdf-syntax-ns#"
   xmlns:svg="http://www.w3.org/2000/svg"
   xmlns="http://www.w3.org/2000/svg"
   xmlns:sodipodi="http://sodipodi.sourceforge.net/DTD/sodipodi-0.dtd"
   xmlns:inkscape="http://www.inkscape.org/namespaces/inkscape"
   width="210mm"
   height="297mm"
   viewBox="0 0 210 297"
   version="1.1"
   id="svg8"
   inkscape:version="0.92.3 (2405546, 2018-03-11)"
   sodipodi:docname="p_woman_black.svg">
  <defs
     id="defs2">
    <filter
       inkscape:collect="always"
       style="color-interpolation-filters:sRGB"
       id="filter72"
       x="-0.065635701"
       width="1.1312714"
       y="-0.024801621"
       height="1.0496032">
      <feGaussianBlur
         inkscape:collect="always"
         stdDeviation="1.2724479"
         id="feGaussianBlur74" />
    </filter>
    <filter
       inkscape:collect="always"
       style="color-interpolation-filters:sRGB"
       id="filter100"
       x="-0.021878565"
       width="1.0437571"
       y="-0.0082672074"
       height="1.0165344">
      <feGaussianBlur
         inkscape:collect="always"
         stdDeviation="0.42414928"
         id="feGaussianBlur102" />
    </filter>
  </defs>
  <sodipodi:namedview
     id="base"
     pagecolor="#ffffff"
     bordercolor="#666666"
     borderopacity="1.0"
     inkscape:pageopacity="0.0"
     inkscape:pageshadow="2"
     inkscape:zoom="0.95714286"
     inkscape:cx="92.515991"
     inkscape:cy="888.57143"
     inkscape:document-units="mm"
     inkscape:current-layer="layer1"
     showgrid="false"
     inkscape:window-width="1366"
     inkscape:window-height="705"
     inkscape:window-x="-8"
     inkscape:window-y="-8"
     inkscape:window-maximized="1" />
  <metadata
     id="metadata5">
    <rdf:RDF>
      <cc:Work
         rdf:about="">
        <dc:format>image/svg+xml</dc:format>
        <dc:type
           rdf:resource="http://purl.org/dc/dcmitype/StillImage" />
        <dc:title></dc:title>
      </cc:Work>
    </rdf:RDF>
  </metadata>
  <g
     inkscape:label="Layer 1"
     inkscape:groupmode="layer"
     id="layer1">
    <g
       id="layer1-7"
       inkscape:label="Layer 1"
       transform="translate(-14.10129,-4.8664419)"
       style="opacity:0.55;filter:url(#filter100)">
      <path
         inkscape:connector-curvature="0"
         id="path49"
         d="m 61.79981,130.72972 c -3.763266,-2.57575 -8.730412,-6.13813 -8.822671,-10.97995 -0.872193,-7.62436 -8.044748,-13.09002 -7.927122,-20.967021 -2.064645,-5.205898 -4.079463,-10.440649 -5.587274,-15.829617 -1.520348,0.61693 -0.260394,7.090292 -0.37262,9.865501 0.889592,6.771367 -0.287092,13.544537 -0.03208,20.319787 2.108771,4.87024 0.07264,9.17106 -4.273201,11.85683 -2.076603,6.09836 -11.957138,2.15099 -8.310492,-3.60858 4.323823,-2.75947 5.232656,-8.34371 2.899293,-12.68057 -1.475123,-5.45506 -2.059238,-11.109223 -2.06923,-16.74062 -0.934224,-5.534421 -2.809664,-11.126382 -6.509717,-15.358377 -2.391386,-4.694187 0.654578,-9.675222 -0.02059,-14.565758 -0.234053,-5.38386 0.117255,-10.876266 2.093705,-15.918661 0.962964,-4.887445 -1.319344,-11.490192 3.558342,-14.725947 5.861834,-3.562098 0.831111,-9.629051 1.972394,-14.680305 0.623519,-6.288124 8.745711,-11.3885779 14.324833,-7.643376 3.200872,3.123835 5.13784,7.527275 5.135697,12.053414 0.122926,3.947933 -0.126363,8.135775 3.504264,10.61512 3.479195,5.531827 2.10861,12.295253 3.409433,18.420986 0.79798,4.894539 0.28661,9.862037 -1.176676,14.570127 -0.670907,5.966163 0.768507,11.912678 0.53436,17.896735 0.07709,6.069634 0.997289,12.194464 3.660991,17.693072 1.876924,5.88784 0.739798,12.68068 4.086354,18.06082 3.080684,2.89534 7.043562,9.02242 2.353661,12.24045 -0.753857,0.3478 -1.653185,0.42346 -2.431654,0.10594 z m 2.064546,-2.83697 c 3.30426,-5.43678 -4.945002,-8.34115 -5.195676,-13.48362 -1.563904,-6.2451 -0.93711,-13.12699 -4.299825,-18.847393 C 51.493774,86.233848 52.85235,76.340578 51.630107,66.782148 51.818412,60.796983 54.962126,54.941093 53.007436,48.924359 51.657633,42.994012 53.634755,35.820397 49.061677,31.05018 44.503459,27.057392 47.202919,21.086158 45.576685,16.094195 44.304544,11.404566 39.521168,5.3527489 34.474168,9.737115 c -5.971311,2.912112 -4.591594,10.057311 -3.531119,15.318768 1.251044,5.922509 -8.378687,7.642376 -6.204418,13.853756 0.78781,5.104081 -1.572439,9.85817 -2.251768,14.692743 -0.221195,5.115894 0.318833,10.300358 -0.32567,15.367306 -3.014299,4.400036 3.347046,7.784626 4.119303,12.026564 2.320028,5.217613 3.105161,10.865996 2.914678,16.55662 0.228736,6.243668 3.518896,12.130608 3.152948,18.373388 -1.333544,2.75784 -8.163652,7.82533 -2.390449,9.43968 3.726912,-1.21358 6.313667,-5.7222 8.39033,-8.1658 -2.234222,-5.87128 -0.405444,-12.11153 -0.511237,-18.199487 -0.54167,-5.812841 -0.903819,-11.616126 -0.620857,-17.481593 -0.432394,-2.039166 0.21042,-10.357228 2.158159,-4.416872 2.926101,6.099624 3.684314,13.062036 7.19932,18.90519 -0.676813,8.682782 8.018986,14.632512 7.904604,23.170362 1.322132,3.37387 5.90966,8.8823 9.386364,8.71501 z M 46.617018,52.689487 c -2.829164,-1.549982 0.935629,-9.198145 1.340513,-3.549056 0.236232,1.227985 0.932549,8.339168 -1.340513,3.549056 z M 28.426915,51.037336 c -0.497266,-1.74801 2.121902,-6.456918 1.449891,-2.122109 -0.106413,0.546921 -0.453861,3.276348 -1.449891,2.122109 z"
         style="opacity:0.41666667;fill:#000000;stroke-width:0.26458335" />
    </g>
  </g>
</svg>
