<?xml version="1.0" encoding="UTF-8" standalone="no"?>
<!-- Created with Inkscape (http://www.inkscape.org/) -->

<svg
   xmlns:dc="http://purl.org/dc/elements/1.1/"
   xmlns:cc="http://creativecommons.org/ns#"
   xmlns:rdf="http://www.w3.org/1999/02/22-rdf-syntax-ns#"
   xmlns:svg="http://www.w3.org/2000/svg"
   xmlns="http://www.w3.org/2000/svg"
   xmlns:sodipodi="http://sodipodi.sourceforge.net/DTD/sodipodi-0.dtd"
   xmlns:inkscape="http://www.inkscape.org/namespaces/inkscape"
   width="210mm"
   height="297mm"
   viewBox="0 0 210 297"
   version="1.1"
   id="svg8"
   inkscape:version="0.92.3 (2405546, 2018-03-11)"
   sodipodi:docname="sex_hand_0.svg">
  <defs
     id="defs2">
    <filter
       inkscape:collect="always"
       style="color-interpolation-filters:sRGB"
       id="filter72"
       x="-0.065635701"
       width="1.1312714"
       y="-0.024801621"
       height="1.0496032">
      <feGaussianBlur
         inkscape:collect="always"
         stdDeviation="1.2724479"
         id="feGaussianBlur74" />
    </filter>
  </defs>
  <sodipodi:namedview
     id="base"
     pagecolor="#ffffff"
     bordercolor="#666666"
     borderopacity="1.0"
     inkscape:pageopacity="0.0"
     inkscape:pageshadow="2"
     inkscape:zoom="2.2257205"
     inkscape:cx="85.629798"
     inkscape:cy="1033.2146"
     inkscape:document-units="mm"
     inkscape:current-layer="layer1"
     showgrid="false"
     inkscape:window-width="1366"
     inkscape:window-height="705"
     inkscape:window-x="-8"
     inkscape:window-y="-8"
     inkscape:window-maximized="1" />
  <metadata
     id="metadata5">
    <rdf:RDF>
      <cc:Work
         rdf:about="">
        <dc:format>image/svg+xml</dc:format>
        <dc:type
           rdf:resource="http://purl.org/dc/dcmitype/StillImage" />
        <dc:title></dc:title>
      </cc:Work>
    </rdf:RDF>
  </metadata>
  <g
     inkscape:label="Layer 1"
     inkscape:groupmode="layer"
     id="layer1"
     style="display:inline">
    <g
       id="layer1-6"
       inkscape:label="Layer 1"
       transform="translate(-32.189393,-79.232399)">
      <g
         transform="translate(-62.766479,-17.638521)"
         inkscape:label="Layer 1"
         id="layer1-4">
        <g
           id="layer1-9"
           inkscape:label="Layer 1"
           transform="translate(39.489698,70.454221)" />
      </g>
    </g>
    <path
       style="opacity:0.1;fill:#000000;stroke-width:0.26458332"
       d="m 13.618775,36.387968 c 0,-0.218281 -0.230102,-0.396875 -0.511337,-0.396875 -0.670247,0 -0.902761,-0.793702 -0.836452,-2.855283 0.02945,-0.915562 -0.02108,-1.89978 -0.112292,-2.187153 -0.163974,-0.516636 -0.174511,-0.516315 -0.939829,0.02864 -0.455171,0.32411 -1.073937,0.516625 -1.5021469,0.467361 -1.045196,-0.120249 -1.078702,-0.984789 -0.07962,-2.054315 0.4436699,-0.47495 0.8066729,-1.020413 0.8066729,-1.212139 0,-0.191727 0.299109,-0.704065 0.664687,-1.138529 1.638371,-1.947094 1.92144,-5.788589 0.793233,-10.764867 -0.362311,-1.598074 -0.734894,-3.639514 -0.827962,-4.536531 l -0.16921,-1.630942 1.142241,-0.5518714 c 1.286937,-0.6217802 2.48657,-0.6954607 3.989888,-0.2450557 0.881441,0.2640862 1.063884,0.4547208 1.310033,1.3688491 0.759188,2.819409 0.753895,8.452101 -0.01198,12.752834 -0.186885,1.049438 -0.129433,1.720034 0.271114,3.164532 0.279538,1.0081 0.584572,3.08952 0.677853,4.625377 0.14519,2.390526 0.107781,2.843775 -0.259899,3.148923 -0.236226,0.19605 -0.600626,0.290788 -0.809778,0.210528 -0.222559,-0.0854 -0.555689,0.121788 -0.803219,0.499567 -0.232619,0.35502 -0.629683,0.645492 -0.882366,0.645492 -0.252682,0 -0.608134,0.238125 -0.789892,0.529166 -0.387027,0.619729 -1.119736,0.706295 -1.119736,0.132292 z m 1.656802,-1.383699 c 0.283783,0.108897 0.512498,-0.08898 0.741301,-0.641365 0.260349,-0.628536 0.460227,-0.774128 0.937515,-0.682889 0.383848,0.07338 0.664129,-0.0339 0.763219,-0.292126 0.245578,-0.639966 -0.11882,-3.925907 -0.705234,-6.359425 -0.514319,-2.13433 -0.518355,-2.323923 -0.109835,-5.159375 0.516392,-3.58417 0.53026,-7.961049 0.03184,-10.047584 -0.203342,-0.851242 -0.424691,-1.602692 -0.491887,-1.669888 -0.324141,-0.3241415 -3.137159,-0.3982358 -3.853538,-0.101501 -1.280406,0.530361 -1.285099,0.230324 0.105713,6.758685 0.604659,2.838223 0.65216,3.456025 0.447818,5.824388 -0.125723,1.457164 -0.397413,2.962641 -0.603754,3.345506 -0.990521,1.837905 -2.452735,4.081012 -2.7840439,4.270858 -0.203085,0.116371 -0.369246,0.324731 -0.369246,0.46302 0,0.458423 0.7420829,0.260748 1.5392479,-0.410022 1.551552,-1.305545 1.890876,-0.820372 1.896722,2.71198 0.0033,1.983059 0.05061,2.182812 0.517165,2.182812 0.282453,0 0.591539,0.126187 0.686858,0.280416 0.110191,0.178292 0.294659,0.114459 0.506521,-0.175281 0.18861,-0.25794 0.511317,-0.387353 0.743621,-0.298209 z"
       id="path454"
       inkscape:connector-curvature="0" />
  </g>
</svg>
