<?xml version="1.0" encoding="UTF-8" standalone="no"?>
<!-- Created with Inkscape (http://www.inkscape.org/) -->

<svg
   xmlns:dc="http://purl.org/dc/elements/1.1/"
   xmlns:cc="http://creativecommons.org/ns#"
   xmlns:rdf="http://www.w3.org/1999/02/22-rdf-syntax-ns#"
   xmlns:svg="http://www.w3.org/2000/svg"
   xmlns="http://www.w3.org/2000/svg"
   xmlns:sodipodi="http://sodipodi.sourceforge.net/DTD/sodipodi-0.dtd"
   xmlns:inkscape="http://www.inkscape.org/namespaces/inkscape"
   width="210mm"
   height="297mm"
   viewBox="0 0 210 297"
   version="1.1"
   id="svg8"
   inkscape:version="0.92.3 (2405546, 2018-03-11)"
   sodipodi:docname="sex_leg.svg">
  <defs
     id="defs2">
    <filter
       inkscape:collect="always"
       style="color-interpolation-filters:sRGB"
       id="filter72"
       x="-0.065635701"
       width="1.1312714"
       y="-0.024801621"
       height="1.0496032">
      <feGaussianBlur
         inkscape:collect="always"
         stdDeviation="1.2724479"
         id="feGaussianBlur74" />
    </filter>
    <filter
       inkscape:collect="always"
       style="color-interpolation-filters:sRGB"
       id="filter516"
       x="-0.059036406"
       width="1.1180728"
       y="-0.025895428"
       height="1.0517909">
      <feGaussianBlur
         inkscape:collect="always"
         stdDeviation="0.33520765"
         id="feGaussianBlur518" />
    </filter>
    <filter
       height="1.0517909"
       y="-0.025895428"
       width="1.1180728"
       x="-0.059036406"
       id="filter516-5"
       style="color-interpolation-filters:sRGB"
       inkscape:collect="always">
      <feGaussianBlur
         id="feGaussianBlur518-4"
         stdDeviation="0.33520765"
         inkscape:collect="always" />
    </filter>
    <filter
       inkscape:collect="always"
       style="color-interpolation-filters:sRGB"
       id="filter590"
       x="-0.11807281"
       width="1.2361456"
       y="-0.051790856"
       height="1.1035817">
      <feGaussianBlur
         inkscape:collect="always"
         stdDeviation="0.67041529"
         id="feGaussianBlur592" />
    </filter>
  </defs>
  <sodipodi:namedview
     id="base"
     pagecolor="#ffffff"
     bordercolor="#666666"
     borderopacity="1.0"
     inkscape:pageopacity="0.0"
     inkscape:pageshadow="2"
     inkscape:zoom="2.2257205"
     inkscape:cx="85.629798"
     inkscape:cy="1033.2146"
     inkscape:document-units="mm"
     inkscape:current-layer="layer1"
     showgrid="false"
     inkscape:window-width="1366"
     inkscape:window-height="705"
     inkscape:window-x="-8"
     inkscape:window-y="-8"
     inkscape:window-maximized="1" />
  <metadata
     id="metadata5">
    <rdf:RDF>
      <cc:Work
         rdf:about="">
        <dc:format>image/svg+xml</dc:format>
        <dc:type
           rdf:resource="http://purl.org/dc/dcmitype/StillImage" />
        <dc:title></dc:title>
      </cc:Work>
    </rdf:RDF>
  </metadata>
  <g
     inkscape:label="Layer 1"
     inkscape:groupmode="layer"
     id="layer1"
     style="display:inline">
    <path
       style="fill:#000000;stroke-width:0.26458335"
       d="m 18.393921,30.033095 c -0.581751,-0.691372 -0.675595,-1.000725 -0.53344,-1.758472 0.250615,-1.335896 0.823223,-2.067253 2.103946,-2.68724 0.622794,-0.30149 1.654729,-1.168041 2.293187,-1.925669 1.062399,-1.260698 1.156636,-1.490158 1.111325,-2.705976 -0.02723,-0.730658 -0.415387,-2.970112 -0.86257,-4.976564 C 21.46791,11.319745 20.882981,6.9526406 21.119437,5.6242836 l 0.184842,-1.0384015 3.161818,-1.1655849 c 3.642327,-1.3427211 3.596456,-1.3563223 4.132401,1.2253095 0.313094,1.5081643 0.252158,2.7766397 -0.338393,7.0441623 -0.43721,3.15942 -0.425745,6.179293 0.0385,10.141369 0.268839,2.294394 0.300564,3.393323 0.106936,3.704167 -0.151416,0.24308 -0.978268,0.694134 -1.837447,1.002341 -1.28644,0.461476 -1.690486,0.762596 -2.289327,1.706141 -0.962069,1.515856 -0.943745,1.500995 -2.595073,2.104575 -1.952957,0.71383 -2.465145,0.664747 -3.289772,-0.315267 z m 2.219001,-0.05406 c 0.166086,-0.200122 0.765103,-0.437914 1.331148,-0.528428 0.933478,-0.14927 1.113461,-0.318402 1.935644,-1.818955 0.957442,-1.747413 2.150115,-2.735325 2.543891,-2.107151 0.162002,0.258436 0.390992,0.273595 0.945899,0.06262 l 0.732151,-0.278363 -0.188811,-1.914703 c -0.244927,-2.483763 -0.492291,-2.82871 -0.657937,-0.917486 -0.07276,0.839512 -0.221589,1.524121 -0.330729,1.521355 -0.109141,-0.0028 -0.198438,-0.06456 -0.198438,-0.137322 0,-0.07276 0,-0.965729 0,-1.984375 0,-1.515473 0.07636,-1.852083 0.420132,-1.852083 0.33523,0 0.390424,-0.200504 0.273127,-0.992188 -0.369861,-2.496333 -0.475738,-5.114701 -0.219383,-5.425378 0.311835,-0.377913 0.514188,-2.472149 0.263127,-2.72321 -0.09212,-0.09211 -0.0132,-0.604775 0.175374,-1.1392449 0.606297,-1.7184293 0.721234,-3.1147075 0.393512,-4.7804866 -0.377137,-1.9169491 -0.776722,-2.3439987 -0.776722,-0.830108 0,0.5906715 -0.119063,1.0739483 -0.264583,1.0739483 -0.145521,0 -0.264584,-0.3373438 -0.264584,-0.7496528 0,-0.412309 -0.07046,-0.8201145 -0.156581,-0.9062343 -0.08612,-0.08612 -1.217214,0.2122551 -2.513542,0.6630554 l -2.35696,0.819637 0.0052,1.4756598 c 0.0072,2.0270668 0.378123,4.4349511 1.457054,9.4586031 0.505425,2.353327 0.918954,4.701626 0.918954,5.218443 0,1.191618 -1.022358,3.335072 -1.590721,3.335072 -0.234818,0 -0.76915,0.357188 -1.187404,0.79375 -0.418253,0.436563 -0.916779,0.79375 -1.107834,0.79375 -0.192821,0 -0.347374,0.290153 -0.347374,0.652149 0,0.390287 -0.22158,0.770736 -0.551827,0.947479 -0.303505,0.162431 -0.489799,0.357358 -0.413985,0.433171 0.07581,0.07581 0.410159,-0.0529 0.74299,-0.28602 0.669259,-0.468767 1.016572,-0.53846 1.016572,-0.203988 0,0.120931 -0.297477,0.379079 -0.66106,0.573663 -0.363583,0.194583 -0.605423,0.409423 -0.537424,0.477423 0.068,0.068 0.435339,-0.0806 0.816308,-0.330219 0.380969,-0.249621 0.762959,-0.38357 0.848864,-0.297664 0.254119,0.254118 -1.341458,1.763697 -1.713338,1.620994 -0.187467,-0.07194 -0.34085,-0.02539 -0.34085,0.103434 0,0.543912 1.147949,0.675664 1.560098,0.179054 z"
       id="path548"
       inkscape:connector-curvature="0" />
    <g
       style="display:inline;opacity:0.57000002;filter:url(#filter590)"
       id="layer1-9"
       inkscape:label="Layer 1"
       transform="translate(12.854456,-0.10777587)">
      <path
         inkscape:connector-curvature="0"
         id="path514"
         d="m 5.8287723,32.313272 c -0.495693,-0.173688 -1.129491,-0.62376 -1.40844,-1.000162 -1.457992,-1.967344 -0.383152,-5.771728 1.818905,-6.437989 0.312146,-0.09444 1.115818,-0.757871 1.785937,-1.474283 1.482415,-1.584821 1.489951,-1.707783 0.4016,-6.552703 C 6.8239333,9.7129046 6.4796663,6.1205492 7.2550253,4.6211703 7.5721723,4.0078757 8.1957633,3.644885 10.496171,2.734508 c 3.11331,-1.2320797 5.027428,-1.4797741 5.761625,-0.7455771 1.20371,1.2037097 1.446019,5.0146028 0.692104,10.8849971 -0.435304,3.38952 -0.438491,3.908274 -0.04798,7.811763 0.437736,4.375524 0.364213,5.916159 -0.314732,6.595104 -0.223718,0.223718 -1.044818,0.613445 -1.824667,0.86606 -1.058015,0.34272 -1.566226,0.688221 -2.002258,1.361209 -0.321392,0.496052 -0.738111,1.117555 -0.926041,1.38112 -0.330046,0.462875 -3.8703267,1.78525 -4.6980257,1.754817 -0.223391,-0.0082 -0.811732,-0.157043 -1.307424,-0.330729 z m 2.488759,-2.829338 c 0.08994,-0.14552 0.483917,-0.268369 0.875511,-0.272997 0.9356327,-0.01106 1.3704177,-0.394628 2.1583057,-1.90407 0.601637,-1.152622 0.762456,-1.274784 2.060622,-1.565301 2.398014,-0.536652 2.340112,-0.395958 1.903531,-4.62533 C 14.84826,16.58984 14.840886,14.461658 15.281241,11.227685 15.878753,6.8394872 15.935274,5.4980061 15.597969,3.7103537 15.352294,2.4083289 15.159492,1.9667428 14.83601,1.9651932 14.597826,1.9640521 13.063495,2.4584274 11.426386,3.063805 L 8.4498233,4.1644913 v 1.103744 c 0,1.5774601 0.683236,5.9319447 1.480343,9.4347117 1.0751417,4.724547 1.2364547,6.203369 0.7741877,7.097294 -0.663369,1.282816 -2.8568767,3.345934 -3.7465847,3.523875 -0.650835,0.130167 -0.910309,0.387435 -1.251967,1.241321 -0.537303,1.342851 -0.541035,1.849877 -0.0191,2.595042 0.305418,0.436046 0.677518,0.588039 1.439594,0.588039 0.565243,0 1.1013,-0.119063 1.191235,-0.264584 z"
         style="opacity:0.13999999;fill:#000000;stroke-width:0.26458335;filter:url(#filter516-5)" />
    </g>
  </g>
</svg>
